G04 #@! TF.FileFunction,Copper,L2,Bot,Signal*
%FSLAX46Y46*%
G04 Gerber Fmt 4.6, Leading zero omitted, Abs format (unit mm)*
G04 Created by KiCad (PCBNEW 4.0.7-e2-6376~58~ubuntu16.04.1) date Sun Jan 14 11:27:02 2018*
%MOMM*%
%LPD*%
G01*
G04 APERTURE LIST*
%ADD10C,0.100000*%
%ADD11C,0.600000*%
%ADD12C,0.300000*%
%ADD13C,0.595824*%
%ADD14C,1.700000*%
%ADD15C,2.000000*%
%ADD16C,1.524000*%
%ADD17R,1.700000X1.700000*%
%ADD18O,1.700000X1.700000*%
%ADD19O,0.950000X1.250000*%
%ADD20O,1.550000X1.000000*%
%ADD21C,0.600000*%
%ADD22C,0.500000*%
%ADD23C,0.250000*%
%ADD24C,0.152400*%
%ADD25C,0.254000*%
G04 APERTURE END LIST*
D10*
D11*
X144700000Y-91140000D02*
X145970000Y-91140000D01*
X145970000Y-91140000D02*
X147240000Y-92410000D01*
X147240000Y-92410000D02*
X147240000Y-93680000D01*
D12*
X144700000Y-70820000D02*
X144700000Y-69550000D01*
D13*
X144387116Y-69644983D02*
X143263559Y-69698515D01*
X143263559Y-69698515D02*
X142202029Y-69976263D01*
X142202029Y-69976263D02*
X141226938Y-70454248D01*
X141226938Y-70454248D02*
X140362698Y-71108430D01*
X140362698Y-71108430D02*
X139633719Y-71914832D01*
X139633719Y-71914832D02*
X139064414Y-72849474D01*
X139064414Y-72849474D02*
X138679196Y-73888317D01*
X138679196Y-73888317D02*
X138502475Y-75007382D01*
X138502475Y-75007382D02*
X138558720Y-76187641D01*
X138558720Y-76187641D02*
X138845610Y-77302642D01*
X138845610Y-77302642D02*
X139338459Y-78326723D01*
X139338459Y-78326723D02*
X140012583Y-79234233D01*
X140012583Y-79234233D02*
X140843296Y-79999509D01*
X140843296Y-79999509D02*
X141805913Y-80596892D01*
X141805913Y-80596892D02*
X142875748Y-81000724D01*
X142875748Y-81000724D02*
X144028117Y-81185349D01*
X144028117Y-81185349D02*
X145241352Y-81125262D01*
X145241352Y-81125262D02*
X146387409Y-80823411D01*
X146387409Y-80823411D02*
X147439899Y-80305674D01*
X147439899Y-80305674D02*
X148372432Y-79597923D01*
X148372432Y-79597923D02*
X149158620Y-78726033D01*
X149158620Y-78726033D02*
X149772072Y-77715876D01*
X149772072Y-77715876D02*
X150186400Y-76593327D01*
X150186400Y-76593327D02*
X150375215Y-75384259D01*
X150375215Y-75384259D02*
X150312494Y-74113416D01*
X150312494Y-74113416D02*
X150001754Y-72913030D01*
X150001754Y-72913030D02*
X149469537Y-71810752D01*
X149469537Y-71810752D02*
X148742387Y-70834278D01*
X148742387Y-70834278D02*
X147846845Y-70011210D01*
X147846845Y-70011210D02*
X146809455Y-69369215D01*
X146809455Y-69369215D02*
X145656757Y-68935988D01*
X145656757Y-68935988D02*
X144415295Y-68739133D01*
X144415295Y-68739133D02*
X143112383Y-68805767D01*
X143112383Y-68805767D02*
X141881798Y-69131685D01*
X141881798Y-69131685D02*
X140751908Y-69689192D01*
X140751908Y-69689192D02*
X139751079Y-70450531D01*
X139751079Y-70450531D02*
X138907681Y-71387915D01*
X138907681Y-71387915D02*
X138250081Y-72473588D01*
X138250081Y-72473588D02*
X137806645Y-73679853D01*
X137806645Y-73679853D02*
X137605742Y-74978919D01*
X137605742Y-74978919D02*
X137674934Y-76340353D01*
X137674934Y-76340353D02*
X138009521Y-77626126D01*
X138009521Y-77626126D02*
X138581104Y-78806582D01*
X138581104Y-78806582D02*
X139361282Y-79852067D01*
X139361282Y-79852067D02*
X140321655Y-80732923D01*
X140321655Y-80732923D02*
X141433822Y-81419500D01*
X141433822Y-81419500D02*
X142669383Y-81882138D01*
X142669383Y-81882138D02*
X143999938Y-82091186D01*
X143999938Y-82091186D02*
X145392529Y-82018026D01*
X145392529Y-82018026D02*
X146707644Y-81667995D01*
X146707644Y-81667995D02*
X147914937Y-81070727D01*
X147914937Y-81070727D02*
X148984061Y-80255844D01*
X148984061Y-80255844D02*
X149884671Y-79252974D01*
X149884671Y-79252974D02*
X150586419Y-78091747D01*
X150586419Y-78091747D02*
X151058960Y-76801788D01*
X151058960Y-76801788D02*
X151271947Y-75412725D01*
X151271947Y-75412725D02*
X151196288Y-73960709D01*
X151196288Y-73960709D02*
X150837855Y-72589549D01*
X150837855Y-72589549D02*
X150226906Y-71330909D01*
X150226906Y-71330909D02*
X149393700Y-70216413D01*
X149393700Y-70216413D02*
X148368495Y-69277780D01*
X148368495Y-69277780D02*
X147181550Y-68546605D01*
X147181550Y-68546605D02*
X145863124Y-68054574D01*
X145863124Y-68054574D02*
X144443474Y-67833314D01*
X144443474Y-67833314D02*
X142961205Y-67913019D01*
X142961205Y-67913019D02*
X141561560Y-68287107D01*
X141561560Y-68287107D02*
X140276863Y-68924166D01*
X140276863Y-68924166D02*
X139139441Y-69792601D01*
X139139441Y-69792601D02*
X138181619Y-70860968D01*
X138181619Y-70860968D02*
X137435723Y-72097732D01*
X137435723Y-72097732D02*
X136934078Y-73471390D01*
X136934078Y-73471390D02*
X136709010Y-74950453D01*
X136709010Y-74950453D02*
X136791132Y-76493066D01*
X136791132Y-76493066D02*
X137173409Y-77949615D01*
X137173409Y-77949615D02*
X137823724Y-79286453D01*
X137823724Y-79286453D02*
X138709959Y-80469919D01*
X138709959Y-80469919D02*
X139799998Y-81466363D01*
X139799998Y-81466363D02*
X141061722Y-82242131D01*
X141061722Y-82242131D02*
X142463015Y-82763567D01*
X142463015Y-82763567D02*
X143971759Y-82997023D01*
X143971759Y-82997023D02*
X145543707Y-82910804D01*
X145543707Y-82910804D02*
X147027884Y-82512603D01*
X147027884Y-82512603D02*
X148389985Y-81835802D01*
X148389985Y-81835802D02*
X149595706Y-80913786D01*
X149595706Y-80913786D02*
X150610741Y-79779931D01*
X150610741Y-79779931D02*
X151400785Y-78467626D01*
X151400785Y-78467626D02*
X151931533Y-77010251D01*
X151931533Y-77010251D02*
X152168680Y-75441188D01*
X152168680Y-75441188D02*
X152080097Y-73808002D01*
X152080097Y-73808002D02*
X151673977Y-72266038D01*
X151673977Y-72266038D02*
X150984296Y-70851035D01*
X150984296Y-70851035D02*
X150045031Y-69598549D01*
X150045031Y-69598549D02*
X148890158Y-68544319D01*
X148890158Y-68544319D02*
X147553653Y-67723964D01*
X147553653Y-67723964D02*
X146069492Y-67173129D01*
X146069492Y-67173129D02*
X144471653Y-66927465D01*
X144471653Y-66927465D02*
X142810028Y-67020210D01*
X142810028Y-67020210D02*
X141241319Y-67442499D01*
X141241319Y-67442499D02*
X139801811Y-68159049D01*
X139801811Y-68159049D02*
X138527791Y-69134641D01*
X138527791Y-69134641D02*
X137455542Y-70333990D01*
X137455542Y-70333990D02*
X136621350Y-71721846D01*
X136621350Y-71721846D02*
X136061500Y-73262927D01*
X136061500Y-73262927D02*
X135812277Y-74921986D01*
X135812277Y-74921986D02*
X135907318Y-76645778D01*
X135907318Y-76645778D02*
X136337280Y-78273108D01*
X136337280Y-78273108D02*
X137066326Y-79766330D01*
X137066326Y-79766330D02*
X138058622Y-81087780D01*
X138058622Y-81087780D02*
X139278331Y-82199814D01*
X139278331Y-82199814D02*
X140689617Y-83064775D01*
X140689617Y-83064775D02*
X142256646Y-83645008D01*
X142256646Y-83645008D02*
X143943581Y-83902860D01*
X143943581Y-83902860D02*
X145694885Y-83803592D01*
X145694885Y-83803592D02*
X147348127Y-83357224D01*
X147348127Y-83357224D02*
X148865041Y-82600894D01*
X148865041Y-82600894D02*
X150207362Y-81571740D01*
X150207362Y-81571740D02*
X151336825Y-80306899D01*
X151336825Y-80306899D02*
X152215164Y-78843512D01*
X152215164Y-78843512D02*
X152804115Y-77218717D01*
X152804115Y-77218717D02*
X153065412Y-75469655D01*
X153065412Y-75469655D02*
X152963915Y-73655265D01*
X152963915Y-73655265D02*
X152510113Y-71942558D01*
X152510113Y-71942558D02*
X151741701Y-70371131D01*
X151741701Y-70371131D02*
X150696375Y-68980685D01*
X150696375Y-68980685D02*
X149411829Y-67810859D01*
X149411829Y-67810859D02*
X147925761Y-66901323D01*
X147925761Y-66901323D02*
X146275863Y-66291685D01*
X146275863Y-66291685D02*
X144499832Y-66021645D01*
X144499832Y-66021645D02*
X142658849Y-66127431D01*
X142658849Y-66127431D02*
X140921073Y-66597890D01*
X140921073Y-66597890D02*
X139326752Y-67393963D01*
X139326752Y-67393963D02*
X137916130Y-68476680D01*
X137916130Y-68476680D02*
X136729453Y-69807012D01*
X136729453Y-69807012D02*
X135806966Y-71345960D01*
X135806966Y-71345960D02*
X135188914Y-73054463D01*
X135188914Y-73054463D02*
X134915545Y-74893523D01*
X134915545Y-74893523D02*
X135023497Y-76798491D01*
X135023497Y-76798491D02*
X135501140Y-78596607D01*
X135501140Y-78596607D02*
X136308917Y-80246213D01*
X136308917Y-80246213D02*
X137407274Y-81705654D01*
X137407274Y-81705654D02*
X138756656Y-82933278D01*
X138756656Y-82933278D02*
X140317508Y-83887431D01*
X140317508Y-83887431D02*
X142050275Y-84526456D01*
X142050275Y-84526456D02*
X143915402Y-84808698D01*
X143915402Y-84808698D02*
X145846064Y-84696389D01*
X145846064Y-84696389D02*
X147668373Y-84201857D01*
X147668373Y-84201857D02*
X149340102Y-83365996D01*
X149340102Y-83365996D02*
X150819026Y-82229700D01*
X150819026Y-82229700D02*
X152062918Y-80833871D01*
X152062918Y-80833871D02*
X153029553Y-79219398D01*
X153029553Y-79219398D02*
X153676704Y-77427184D01*
X153676704Y-77427184D02*
X153962145Y-75498118D01*
X153962145Y-75498118D02*
X153847739Y-73502559D01*
X153847739Y-73502559D02*
X153346258Y-71619046D01*
X153346258Y-71619046D02*
X152499115Y-69891257D01*
X152499115Y-69891257D02*
X151347726Y-68362821D01*
X151347726Y-68362821D02*
X149933507Y-67077398D01*
X149933507Y-67077398D02*
X148297871Y-66078651D01*
X148297871Y-66078651D02*
X146482234Y-65410240D01*
X146482234Y-65410240D02*
X144528011Y-65115796D01*
X144528011Y-65115796D02*
X142507670Y-65234622D01*
X142507670Y-65234622D02*
X140600827Y-65753251D01*
X140600827Y-65753251D02*
X138851689Y-66628876D01*
X138851689Y-66628876D02*
X137304463Y-67818720D01*
X137304463Y-67818720D02*
X136003355Y-69280065D01*
X136003355Y-69280065D02*
X134992573Y-70970074D01*
X134992573Y-70970074D02*
X134316323Y-72846000D01*
X134316323Y-72846000D02*
X134018812Y-74865056D01*
X134018812Y-74865056D02*
X134139670Y-76951207D01*
X134139670Y-76951207D02*
X134664990Y-78920106D01*
X134664990Y-78920106D02*
X135551498Y-80726102D01*
X135551498Y-80726102D02*
X136755918Y-82323533D01*
X136755918Y-82323533D02*
X138234976Y-83666750D01*
X138234976Y-83666750D02*
X139945396Y-84710094D01*
X139945396Y-84710094D02*
X141843903Y-85407906D01*
X141843903Y-85407906D02*
X143887223Y-85714535D01*
X143887223Y-85714535D02*
X145997243Y-85589192D01*
X145997243Y-85589192D02*
X147988620Y-85046499D01*
X147988620Y-85046499D02*
X149815167Y-84131107D01*
X149815167Y-84131107D02*
X151430696Y-82887673D01*
X151430696Y-82887673D02*
X152789019Y-81360848D01*
X152789019Y-81360848D02*
X153843949Y-79595290D01*
X153843949Y-79595290D02*
X154549298Y-77635653D01*
X154549298Y-77635653D02*
X154858878Y-75526585D01*
X154858878Y-75526585D02*
X154731569Y-73349852D01*
X154731569Y-73349852D02*
X154182410Y-71295566D01*
X154182410Y-71295566D02*
X153256537Y-69411353D01*
X153256537Y-69411353D02*
X151999085Y-67744926D01*
X151999085Y-67744926D02*
X150455190Y-66343907D01*
X150455190Y-66343907D02*
X148669985Y-65255980D01*
X148669985Y-65255980D02*
X146688607Y-64528766D01*
X146688607Y-64528766D02*
X144556190Y-64209946D01*
X144556190Y-64209946D02*
X142356491Y-64341813D01*
X142356491Y-64341813D02*
X140280579Y-64908582D01*
X140280579Y-64908582D02*
X138376622Y-65863729D01*
X138376622Y-65863729D02*
X136692790Y-67160759D01*
X136692790Y-67160759D02*
X135277251Y-68753057D01*
X135277251Y-68753057D02*
X134178174Y-70594188D01*
X134178174Y-70594188D02*
X133443727Y-72637537D01*
X133443727Y-72637537D02*
X133122079Y-74836593D01*
X133122079Y-74836593D02*
X133255838Y-77103922D01*
X133255838Y-77103922D02*
X133828834Y-79243605D01*
X133828834Y-79243605D02*
X134794072Y-81205991D01*
X134794072Y-81205991D02*
X136104556Y-82941419D01*
X136104556Y-82941419D02*
X137713291Y-84400229D01*
X137713291Y-84400229D02*
X139573281Y-85532762D01*
X139573281Y-85532762D02*
X141637530Y-86289363D01*
X141637530Y-86289363D02*
X143859044Y-86620372D01*
X143859044Y-86620372D02*
X146148422Y-86481998D01*
X146148422Y-86481998D02*
X148308869Y-85891144D01*
X148308869Y-85891144D02*
X150290235Y-84896224D01*
X150290235Y-84896224D02*
X152042371Y-83545648D01*
X152042371Y-83545648D02*
X153515126Y-81887832D01*
X153515126Y-81887832D02*
X154658351Y-79971182D01*
X154658351Y-79971182D02*
X155421895Y-77844119D01*
X155421895Y-77844119D02*
X155755610Y-75555048D01*
X155755610Y-75555048D02*
X155615402Y-73197146D01*
X155615402Y-73197146D02*
X155018568Y-70972055D01*
X155018568Y-70972055D02*
X154013965Y-68931479D01*
X154013965Y-68931479D02*
X152650449Y-67127062D01*
X152650449Y-67127062D02*
X150976875Y-65610447D01*
X150976875Y-65610447D02*
X149042100Y-64433309D01*
X149042100Y-64433309D02*
X146894979Y-63647321D01*
X146894979Y-63647321D02*
X144584369Y-63304127D01*
X144584369Y-63304127D02*
X142205311Y-63449004D01*
X142205311Y-63449004D02*
X139960329Y-64063943D01*
X139960329Y-64063943D02*
X137901553Y-65098642D01*
X137901553Y-65098642D02*
X136081113Y-66502769D01*
X136081113Y-66502769D02*
X134551142Y-68226079D01*
X134551142Y-68226079D02*
X133363770Y-70218272D01*
X133363770Y-70218272D02*
X132571128Y-72429043D01*
X132571128Y-72429043D02*
X132225347Y-74808121D01*
X132225347Y-74808121D02*
X132372004Y-77256629D01*
X132372004Y-77256629D02*
X132992674Y-79567104D01*
X132992674Y-79567104D02*
X134036642Y-81685883D01*
X134036642Y-81685883D02*
X135453190Y-83559304D01*
X135453190Y-83559304D02*
X137191604Y-85133711D01*
X137191604Y-85133711D02*
X139201164Y-86355436D01*
X139201164Y-86355436D02*
X141431157Y-87170823D01*
X141431157Y-87170823D02*
X143830865Y-87526210D01*
X143830865Y-87526210D02*
X146299601Y-87374807D01*
X146299601Y-87374807D02*
X148629119Y-86735795D01*
X148629119Y-86735795D02*
X150765306Y-85661347D01*
X150765306Y-85661347D02*
X152654049Y-84203630D01*
X152654049Y-84203630D02*
X154241237Y-82414816D01*
X154241237Y-82414816D02*
X155472757Y-80347077D01*
X155472757Y-80347077D02*
X156294496Y-78052589D01*
X156294496Y-78052589D02*
X156652343Y-75583514D01*
X156652343Y-75583514D02*
X156499238Y-73044409D01*
X156499238Y-73044409D02*
X155854731Y-70648543D01*
X155854731Y-70648543D02*
X154771398Y-68451574D01*
X154771398Y-68451574D02*
X153301817Y-66509167D01*
X153301817Y-66509167D02*
X151498564Y-64876956D01*
X151498564Y-64876956D02*
X149414217Y-63610637D01*
X149414217Y-63610637D02*
X147101353Y-62765846D01*
X147101353Y-62765846D02*
X144612548Y-62398278D01*
X144612548Y-62398278D02*
X142054132Y-62556195D01*
X142054132Y-62556195D02*
X139640078Y-63219274D01*
X139640078Y-63219274D02*
X137426481Y-64333495D01*
X137426481Y-64333495D02*
X135469433Y-65844778D01*
X135469433Y-65844778D02*
X133825029Y-67699102D01*
X133825029Y-67699102D02*
X132549362Y-69842386D01*
X132549362Y-69842386D02*
X131698526Y-72220580D01*
X131698526Y-72220580D02*
X131328614Y-74779663D01*
X131328614Y-74779663D02*
X131488166Y-77409351D01*
X131488166Y-77409351D02*
X132156509Y-79890609D01*
X132156509Y-79890609D02*
X133279207Y-82165781D01*
X133279207Y-82165781D02*
X134801821Y-84177199D01*
X134801821Y-84177199D02*
X136669913Y-85867199D01*
X136669913Y-85867199D02*
X138829047Y-87178114D01*
X138829047Y-87178114D02*
X141224784Y-88052286D01*
X141224784Y-88052286D02*
X143802686Y-88432047D01*
X143802686Y-88432047D02*
X146450781Y-88267619D01*
X146450781Y-88267619D02*
X148949371Y-87580449D01*
X148949371Y-87580449D02*
X151240379Y-86426473D01*
X151240379Y-86426473D02*
X153265731Y-84861612D01*
X153265731Y-84861612D02*
X154967352Y-82941803D01*
X154967352Y-82941803D02*
X156287166Y-80722976D01*
X156287166Y-80722976D02*
X157167099Y-78261058D01*
X157167099Y-78261058D02*
X157549075Y-75611981D01*
X157549075Y-75611981D02*
X157383077Y-72891702D01*
X157383077Y-72891702D02*
X156690897Y-70325063D01*
X156690897Y-70325063D02*
X155528835Y-67971670D01*
X155528835Y-67971670D02*
X153953188Y-65891272D01*
X153953188Y-65891272D02*
X152020256Y-64143465D01*
X152020256Y-64143465D02*
X149786336Y-62787966D01*
X149786336Y-62787966D02*
X147307726Y-61884402D01*
X147307726Y-61884402D02*
X144640727Y-61492459D01*
X144640727Y-61492459D02*
X141902952Y-61663416D01*
X141902952Y-61663416D02*
X139319826Y-62374665D01*
X139319826Y-62374665D02*
X136951407Y-63568378D01*
X136951407Y-63568378D02*
X134857750Y-65186817D01*
X134857750Y-65186817D02*
X133098913Y-67172124D01*
X133098913Y-67172124D02*
X131734951Y-69466500D01*
X131734951Y-69466500D02*
X130825922Y-72012116D01*
X130825922Y-72012116D02*
X130431882Y-74751206D01*
X130431882Y-74751206D02*
X130446523Y-76172636D01*
X130446523Y-76172636D02*
X130604326Y-77562069D01*
X130604326Y-77562069D02*
X131320342Y-80214117D01*
X131320342Y-80214117D02*
X132521769Y-82645679D01*
X132521769Y-82645679D02*
X134150449Y-84795094D01*
X134150449Y-84795094D02*
X136148221Y-86600687D01*
X136148221Y-86600687D02*
X138456928Y-88000794D01*
X138456928Y-88000794D02*
X141018410Y-88933748D01*
X141018410Y-88933748D02*
X143774507Y-89337881D01*
X143774507Y-89337881D02*
X145204331Y-89322624D01*
X145204331Y-89322624D02*
X146601961Y-89160429D01*
X146601961Y-89160429D02*
X149269623Y-88425106D01*
X149269623Y-88425106D02*
X151715453Y-87191599D01*
X151715453Y-87191599D02*
X153877415Y-85519597D01*
X153877415Y-85519597D02*
X155693469Y-83468792D01*
X155693469Y-83468792D02*
X157101579Y-81098871D01*
X157101579Y-81098871D02*
X158039704Y-78469525D01*
X158039704Y-78469525D02*
X158313136Y-77076221D01*
X158313136Y-77076221D02*
X158445808Y-75640444D01*
X158445808Y-75640444D02*
X158430235Y-74173201D01*
X158430235Y-74173201D02*
X158266918Y-72738996D01*
X158266918Y-72738996D02*
X157963361Y-71345789D01*
X157963361Y-71345789D02*
X157527067Y-70001552D01*
X157527067Y-70001552D02*
X156286274Y-67491796D01*
X156286274Y-67491796D02*
X154604562Y-65273377D01*
X154604562Y-65273377D02*
X152541949Y-63409974D01*
X152541949Y-63409974D02*
X150158455Y-61965264D01*
X150158455Y-61965264D02*
X148865134Y-61419827D01*
X148865134Y-61419827D02*
X147514101Y-61002927D01*
X147514101Y-61002927D02*
X146112857Y-60722536D01*
X146112857Y-60722536D02*
X144668906Y-60586609D01*
X144668906Y-60586609D02*
X143193723Y-60602864D01*
X143193723Y-60602864D02*
X141751773Y-60770576D01*
X141751773Y-60770576D02*
X140351056Y-61082197D01*
X140351056Y-61082197D02*
X138999575Y-61529965D01*
X138999575Y-61529965D02*
X137705333Y-62106229D01*
X137705333Y-62106229D02*
X136476333Y-62803261D01*
X136476333Y-62803261D02*
X135320576Y-63613349D01*
X135320576Y-63613349D02*
X134246066Y-64528826D01*
X134246066Y-64528826D02*
X133260805Y-65541977D01*
X133260805Y-65541977D02*
X132372794Y-66645116D01*
X132372794Y-66645116D02*
X131590038Y-67830557D01*
X131590038Y-67830557D02*
X130920538Y-69090584D01*
X130920538Y-69090584D02*
X130372296Y-70417515D01*
X130372296Y-70417515D02*
X129953316Y-71803653D01*
X129953316Y-71803653D02*
X129671599Y-73241283D01*
X129671599Y-73241283D02*
X129535149Y-74722718D01*
X129535149Y-74722718D02*
X129551655Y-76235791D01*
X129551655Y-76235791D02*
X129720484Y-77714770D01*
X129720484Y-77714770D02*
X130033901Y-79151446D01*
X130033901Y-79151446D02*
X130484171Y-80537610D01*
X130484171Y-80537610D02*
X131063558Y-81865057D01*
X131063558Y-81865057D02*
X131764327Y-83125575D01*
X131764327Y-83125575D02*
X132578744Y-84310952D01*
X132578744Y-84310952D02*
X133499073Y-85412985D01*
X133499073Y-85412985D02*
X134517579Y-86423463D01*
X134517579Y-86423463D02*
X135626527Y-87334178D01*
X135626527Y-87334178D02*
X136818182Y-88136918D01*
X136818182Y-88136918D02*
X138084808Y-88823478D01*
X138084808Y-88823478D02*
X139418671Y-89385645D01*
X139418671Y-89385645D02*
X140812035Y-89815214D01*
X140812035Y-89815214D02*
X142257166Y-90103975D01*
X142257166Y-90103975D02*
X143746328Y-90243719D01*
X143746328Y-90243719D02*
X145266869Y-90226575D01*
X145266869Y-90226575D02*
X146753141Y-90053247D01*
X146753141Y-90053247D02*
X148196893Y-89731667D01*
X148196893Y-89731667D02*
X149589875Y-89269767D01*
X149589875Y-89269767D02*
X150923837Y-88675478D01*
X150923837Y-88675478D02*
X152190529Y-87956731D01*
X152190529Y-87956731D02*
X153381700Y-87121457D01*
X153381700Y-87121457D02*
X154489100Y-86177584D01*
X154489100Y-86177584D02*
X155504480Y-85133051D01*
X155504480Y-85133051D02*
X156419589Y-83995782D01*
X156419589Y-83995782D02*
X157226177Y-82773711D01*
X157226177Y-82773711D02*
X157915993Y-81474769D01*
X157915993Y-81474769D02*
X158480787Y-80106888D01*
X158480787Y-80106888D02*
X158912310Y-78677997D01*
X158912310Y-78677997D02*
X159202311Y-77196026D01*
X159202311Y-77196026D02*
X159342539Y-75668911D01*
X159342539Y-75668911D02*
X159325096Y-74110026D01*
X159325096Y-74110026D02*
X159150758Y-72586289D01*
X159150758Y-72586289D02*
X158827482Y-71106137D01*
X158827482Y-71106137D02*
X158363236Y-69678041D01*
X158363236Y-69678041D02*
X157765992Y-68310484D01*
X157765992Y-68310484D02*
X157043715Y-67011892D01*
X157043715Y-67011892D02*
X156204374Y-65790739D01*
X156204374Y-65790739D02*
X155255937Y-64655483D01*
X155255937Y-64655483D02*
X154206370Y-63614579D01*
X154206370Y-63614579D02*
X153063643Y-62676483D01*
X153063643Y-62676483D02*
X151835721Y-61849679D01*
X151835721Y-61849679D02*
X150530574Y-61142593D01*
X150530574Y-61142593D02*
X149156170Y-60563697D01*
X149156170Y-60563697D02*
X147720475Y-60121452D01*
X147720475Y-60121452D02*
X146231457Y-59824326D01*
X146231457Y-59824326D02*
X144697084Y-59680760D01*
X144697084Y-59680760D02*
X143131185Y-59698835D01*
X143131185Y-59698835D02*
X141600592Y-59877737D01*
X141600592Y-59877737D02*
X140113806Y-60209272D01*
X140113806Y-60209272D02*
X138679322Y-60685296D01*
X138679322Y-60685296D02*
X137305640Y-61297626D01*
X137305640Y-61297626D02*
X136001257Y-62038083D01*
X136001257Y-62038083D02*
X134774671Y-62898550D01*
X134774671Y-62898550D02*
X133634380Y-63870805D01*
X133634380Y-63870805D02*
X132588881Y-64946720D01*
X132588881Y-64946720D02*
X131646673Y-66118108D01*
X131646673Y-66118108D02*
X130816255Y-67376821D01*
X130816255Y-67376821D02*
X130106122Y-68714667D01*
X130106122Y-68714667D02*
X129524774Y-70123516D01*
X129524774Y-70123516D02*
X129080709Y-71595159D01*
X129080709Y-71595159D02*
X128782424Y-73121471D01*
X128782424Y-73121471D02*
X128638416Y-74694261D01*
X128638416Y-74694261D02*
X128656787Y-76298971D01*
X128656787Y-76298971D02*
X128836642Y-77867489D01*
X128836642Y-77867489D02*
X129169779Y-79391108D01*
X129169779Y-79391108D02*
X129647999Y-80861118D01*
X129647999Y-80861118D02*
X130263101Y-82268811D01*
X130263101Y-82268811D02*
X131006884Y-83605476D01*
X131006884Y-83605476D02*
X131871150Y-84862402D01*
X131871150Y-84862402D02*
X132847697Y-86030883D01*
X132847697Y-86030883D02*
X133928324Y-87102210D01*
X133928324Y-87102210D02*
X135104832Y-88067672D01*
X135104832Y-88067672D02*
X136369020Y-88918559D01*
X136369020Y-88918559D02*
X137712688Y-89646161D01*
X137712688Y-89646161D02*
X139127635Y-90241772D01*
X139127635Y-90241772D02*
X140605661Y-90696680D01*
X140605661Y-90696680D02*
X142138566Y-91002178D01*
X142138566Y-91002178D02*
X143718149Y-91149556D01*
X143718149Y-91149556D02*
X143817219Y-91153303D01*
X143817219Y-91153303D02*
X143916309Y-91156411D01*
X143916309Y-91156411D02*
X144015418Y-91158849D01*
X144015418Y-91158849D02*
X144114539Y-91160677D01*
X144114539Y-91160677D02*
X144213670Y-91161896D01*
X144213670Y-91161896D02*
X144312807Y-91162505D01*
X144312807Y-91162505D02*
X144411945Y-91162471D01*
X144411945Y-91162471D02*
X144511081Y-91161862D01*
D10*
G36*
X140535328Y-132114390D02*
X141977010Y-131213528D01*
X142877872Y-132655210D01*
X141436190Y-133556072D01*
X140535328Y-132114390D01*
X140535328Y-132114390D01*
G37*
D14*
X143052595Y-134538842D02*
X143052595Y-134538842D01*
X139552558Y-133730795D02*
X139552558Y-133730795D01*
X140898553Y-135884837D02*
X140898553Y-135884837D01*
X137398516Y-135076790D02*
X137398516Y-135076790D01*
X138744511Y-137230832D02*
X138744511Y-137230832D01*
X135244474Y-136422785D02*
X135244474Y-136422785D01*
X136590468Y-138576827D02*
X136590468Y-138576827D01*
X133090431Y-137768780D02*
X133090431Y-137768780D01*
X134436426Y-139922822D02*
X134436426Y-139922822D01*
X130936389Y-139114775D02*
X130936389Y-139114775D01*
X132282384Y-141268817D02*
X132282384Y-141268817D01*
X128782347Y-140460770D02*
X128782347Y-140460770D01*
X130128342Y-142614812D02*
X130128342Y-142614812D01*
X126628305Y-141806765D02*
X126628305Y-141806765D01*
X127974300Y-143960807D02*
X127974300Y-143960807D01*
D10*
G36*
X151911033Y-134811129D02*
X152970871Y-133115033D01*
X154666967Y-134174871D01*
X153607129Y-135870967D01*
X151911033Y-134811129D01*
X151911033Y-134811129D01*
G37*
D15*
X191196750Y-158180391D03*
D16*
X144700000Y-70820000D03*
X144700000Y-93680000D03*
X147240000Y-93680000D03*
D17*
X141500000Y-115000000D03*
D18*
X144040000Y-115000000D03*
X146580000Y-115000000D03*
X149120000Y-115000000D03*
X151660000Y-115000000D03*
X154200000Y-115000000D03*
X156740000Y-115000000D03*
D10*
G36*
X105499927Y-105675813D02*
X104074187Y-104749927D01*
X105000073Y-103324187D01*
X106425813Y-104250073D01*
X105499927Y-105675813D01*
X105499927Y-105675813D01*
G37*
D14*
X107380223Y-105883383D02*
X107380223Y-105883383D01*
X109510446Y-107266766D02*
X109510446Y-107266766D01*
X111640670Y-108650149D02*
X111640670Y-108650149D01*
D10*
G36*
X115499927Y-111675813D02*
X114074187Y-110749927D01*
X115000073Y-109324187D01*
X116425813Y-110250073D01*
X115499927Y-111675813D01*
X115499927Y-111675813D01*
G37*
D14*
X117380223Y-111883383D02*
X117380223Y-111883383D01*
X119510446Y-113266766D02*
X119510446Y-113266766D01*
X121640670Y-114650149D02*
X121640670Y-114650149D01*
D19*
X116950000Y-73000000D03*
X116950000Y-78000000D03*
D20*
X114250000Y-72000000D03*
X114250000Y-79000000D03*
D17*
X126000000Y-119000000D03*
D18*
X126000000Y-116460000D03*
D17*
X133600000Y-127440000D03*
D18*
X133600000Y-124900000D03*
D17*
X163677600Y-88900000D03*
D18*
X166217600Y-88900000D03*
X163677600Y-91440000D03*
X166217600Y-91440000D03*
D17*
X169138600Y-113792000D03*
D18*
X171678600Y-113792000D03*
X169138600Y-116332000D03*
X171678600Y-116332000D03*
X169138600Y-118872000D03*
X171678600Y-118872000D03*
D21*
X157251400Y-136652000D03*
X166700000Y-142500000D03*
X167591942Y-147208058D03*
X132207000Y-92024200D03*
X158623000Y-122631200D03*
X160299400Y-117957600D03*
X143103600Y-121691400D03*
X141249400Y-128295400D03*
X141325600Y-124739400D03*
X145567400Y-131013200D03*
X158148200Y-99898200D03*
X172900000Y-151500000D03*
X172250000Y-142100000D03*
X159308800Y-119557800D03*
X159181800Y-121869200D03*
X137998200Y-119557800D03*
X149834600Y-105791000D03*
X149275800Y-101574600D03*
X137439400Y-102438200D03*
X135305800Y-104571800D03*
X138150600Y-126009400D03*
X141249400Y-119557800D03*
X158724600Y-108178600D03*
X154127200Y-109042200D03*
X158546800Y-94564200D03*
X135600000Y-125700000D03*
X156500000Y-119400000D03*
X152747399Y-117375000D03*
X156794200Y-122097800D03*
X164896800Y-117017800D03*
X159918400Y-103835200D03*
X157048200Y-131622800D03*
X156159200Y-133070600D03*
X156108400Y-121742200D03*
X163195000Y-118821200D03*
X158038800Y-106273600D03*
X155500000Y-131300000D03*
X155524200Y-126746000D03*
X158572200Y-105664000D03*
X163753800Y-118262400D03*
X148793200Y-121640600D03*
X147066000Y-131064000D03*
X149402800Y-120980200D03*
X147828000Y-131241800D03*
X164312600Y-117703600D03*
X159080200Y-105029000D03*
X147320000Y-123952000D03*
X154863800Y-129235200D03*
X151587200Y-131394200D03*
X150876000Y-132435600D03*
X154863800Y-127711200D03*
X149961600Y-124587000D03*
X162052000Y-119989600D03*
X160900000Y-117500000D03*
X162610800Y-119380000D03*
X161575000Y-117000000D03*
X157886400Y-126974600D03*
X148107400Y-116763800D03*
X147800000Y-113500000D03*
X143200000Y-119100000D03*
X151866600Y-106629200D03*
X152755600Y-99847400D03*
X144449800Y-109093000D03*
X145643600Y-117144800D03*
X145618200Y-128701800D03*
X146278600Y-128016000D03*
X146456400Y-117271800D03*
X152654000Y-121945400D03*
X157700000Y-121125000D03*
X151841200Y-122072400D03*
X152900000Y-113500000D03*
X150700000Y-122500000D03*
X150616497Y-117197251D03*
X145000000Y-112875000D03*
X146600000Y-123200000D03*
X150596600Y-123825000D03*
X149400000Y-113400000D03*
X152679400Y-124409200D03*
X149555200Y-134010400D03*
X148996400Y-133045200D03*
X151688800Y-124637800D03*
X148386800Y-131927600D03*
X150774400Y-124663200D03*
X154863800Y-128473200D03*
X150926800Y-130733800D03*
X152933400Y-128473200D03*
X149910800Y-131572000D03*
X156641800Y-101066600D03*
X132200000Y-93100000D03*
X130800000Y-119300000D03*
X156616400Y-102412800D03*
X132900000Y-93800000D03*
X131600003Y-119300000D03*
X143687800Y-126060200D03*
X143662400Y-130048000D03*
X142824200Y-126009400D03*
X142798800Y-129717800D03*
X142011400Y-126034800D03*
X142011400Y-129717800D03*
X139700000Y-119532400D03*
X145465800Y-98526600D03*
D22*
X154457400Y-135661400D02*
X153289000Y-134493000D01*
X157251400Y-136652000D02*
X156260800Y-135661400D01*
X156260800Y-135661400D02*
X154457400Y-135661400D01*
D23*
X164900000Y-141800000D02*
X166000000Y-141800000D01*
X166000000Y-141800000D02*
X166700000Y-142500000D01*
X167291943Y-144191943D02*
X164900000Y-141800000D01*
X167591942Y-147208058D02*
X167291943Y-146908059D01*
X167291943Y-146908059D02*
X167291943Y-144191943D01*
D24*
X158148200Y-99898200D02*
X157124400Y-99898200D01*
X137160000Y-96977200D02*
X132207000Y-92024200D01*
X154203400Y-96977200D02*
X137160000Y-96977200D01*
X157124400Y-99898200D02*
X154203400Y-96977200D01*
X126000000Y-119000000D02*
X126061200Y-119000000D01*
X126061200Y-119000000D02*
X128752600Y-121691400D01*
X128752600Y-121691400D02*
X143103600Y-121691400D01*
X160299400Y-121640600D02*
X160274000Y-121640600D01*
X159283400Y-122631200D02*
X158623000Y-122631200D01*
X160274000Y-121640600D02*
X159283400Y-122631200D01*
X160401000Y-125171200D02*
X160401000Y-128143000D01*
X160299400Y-125069600D02*
X160401000Y-125171200D01*
X160299400Y-117957600D02*
X160299400Y-121640600D01*
X160299400Y-121640600D02*
X160299400Y-125069600D01*
X144040000Y-115000000D02*
X144040000Y-120755000D01*
X144040000Y-120755000D02*
X143103600Y-121691400D01*
D22*
X174117000Y-119049800D02*
X174117000Y-116230400D01*
X160401000Y-128143000D02*
X166116000Y-122428000D01*
X166116000Y-122428000D02*
X170738800Y-122428000D01*
X170738800Y-122428000D02*
X174117000Y-119049800D01*
X174117000Y-116230400D02*
X171678600Y-113792000D01*
X160375600Y-128168400D02*
X160401000Y-128143000D01*
X153212800Y-140208000D02*
X156083000Y-140208000D01*
X156083000Y-140208000D02*
X160375600Y-135915400D01*
X160375600Y-135915400D02*
X160375600Y-128168400D01*
X134239000Y-143408400D02*
X134239000Y-143225433D01*
X134239000Y-143225433D02*
X132282384Y-141268817D01*
X135813800Y-141833600D02*
X134239000Y-143408400D01*
X137541000Y-141833600D02*
X135813800Y-141833600D01*
X139801600Y-139573000D02*
X137541000Y-141833600D01*
X141427200Y-139573000D02*
X139801600Y-139573000D01*
X143179800Y-137820400D02*
X141427200Y-139573000D01*
X143179800Y-135868128D02*
X143179800Y-137820400D01*
X143052595Y-134538842D02*
X143052595Y-135740923D01*
X143052595Y-135740923D02*
X143179800Y-135868128D01*
D23*
X141249400Y-128295400D02*
X141325600Y-128219200D01*
X141325600Y-128219200D02*
X141325600Y-124739400D01*
D24*
X143052595Y-134538842D02*
X144353158Y-134538842D01*
X145567400Y-133324600D02*
X145567400Y-131013200D01*
X144353158Y-134538842D02*
X145567400Y-133324600D01*
D22*
X172900000Y-151500000D02*
X170829400Y-151500000D01*
X144987953Y-136474200D02*
X143052595Y-134538842D01*
X145288000Y-136474200D02*
X144987953Y-136474200D01*
X145364200Y-136398000D02*
X145288000Y-136474200D01*
X146812000Y-136398000D02*
X145364200Y-136398000D01*
X148336000Y-137922000D02*
X146812000Y-136398000D01*
X149174200Y-137922000D02*
X148336000Y-137922000D01*
X150164800Y-138912600D02*
X149174200Y-137922000D01*
X150698200Y-138912600D02*
X150164800Y-138912600D01*
X151993600Y-140208000D02*
X150698200Y-138912600D01*
X153212800Y-140208000D02*
X151993600Y-140208000D01*
X155016200Y-142011400D02*
X153212800Y-140208000D01*
X156108400Y-142011400D02*
X155016200Y-142011400D01*
X157708600Y-143611600D02*
X156108400Y-142011400D01*
X159613600Y-143611600D02*
X157708600Y-143611600D01*
X160705800Y-144703800D02*
X159613600Y-143611600D01*
X160807400Y-144703800D02*
X160705800Y-144703800D01*
X163144200Y-147040600D02*
X160807400Y-144703800D01*
X164185600Y-147040600D02*
X163144200Y-147040600D01*
X165608000Y-148463000D02*
X164185600Y-147040600D01*
X166827200Y-148463000D02*
X165608000Y-148463000D01*
X168198800Y-149834600D02*
X166827200Y-148463000D01*
X169164000Y-149834600D02*
X168198800Y-149834600D01*
X170829400Y-151500000D02*
X169164000Y-149834600D01*
X172900000Y-151500000D02*
X173800000Y-151500000D01*
X173800000Y-151500000D02*
X174500000Y-150800000D01*
X174500000Y-150800000D02*
X174500000Y-143613600D01*
X174500000Y-143613600D02*
X172986400Y-142100000D01*
X172986400Y-142100000D02*
X172250000Y-142100000D01*
D23*
X162846001Y-90264999D02*
X164852601Y-90264999D01*
X164852601Y-90264999D02*
X166217600Y-88900000D01*
X158148200Y-99898200D02*
X158572464Y-99898200D01*
X158572464Y-99898200D02*
X158699464Y-100025200D01*
X158699464Y-100025200D02*
X160655000Y-100025200D01*
X160655000Y-100025200D02*
X162052000Y-98628200D01*
X162052000Y-98628200D02*
X162052000Y-91059000D01*
X162052000Y-91059000D02*
X162846001Y-90264999D01*
X121640670Y-114650149D02*
X118050149Y-114650149D01*
X118050149Y-114650149D02*
X116200000Y-112800000D01*
X116200000Y-112800000D02*
X114588440Y-112800000D01*
X114588440Y-112800000D02*
X111640670Y-109852230D01*
X111640670Y-109852230D02*
X111640670Y-108650149D01*
X174500000Y-150800000D02*
X173800000Y-151500000D01*
X174500000Y-143900000D02*
X174500000Y-150800000D01*
X172700000Y-142100000D02*
X174500000Y-143900000D01*
X172250000Y-142100000D02*
X172700000Y-142100000D01*
D24*
X159308800Y-121742200D02*
X159308800Y-119557800D01*
X159181800Y-121869200D02*
X159308800Y-121742200D01*
D22*
X140208000Y-120599200D02*
X141249400Y-119557800D01*
X139039600Y-120599200D02*
X140208000Y-120599200D01*
X137998200Y-119557800D02*
X139039600Y-120599200D01*
X149834600Y-105791000D02*
X149656800Y-105613200D01*
X149656800Y-105613200D02*
X149656800Y-101955600D01*
X149656800Y-101955600D02*
X149275800Y-101574600D01*
X135305800Y-104571800D02*
X137439400Y-102438200D01*
D24*
X141706600Y-132384800D02*
X141376400Y-132384800D01*
X141376400Y-132384800D02*
X138150600Y-129159000D01*
X138150600Y-129159000D02*
X138150600Y-126009400D01*
X152747399Y-117375000D02*
X153947800Y-117375000D01*
X155575000Y-109677200D02*
X155041600Y-109143800D01*
X155575000Y-115747800D02*
X155575000Y-109677200D01*
X153947800Y-117375000D02*
X155575000Y-115747800D01*
X141500000Y-115000000D02*
X141500000Y-119307200D01*
X141500000Y-119307200D02*
X141249400Y-119557800D01*
X141500000Y-115000000D02*
X141500000Y-110493400D01*
X152171400Y-109042200D02*
X154127200Y-109042200D01*
X150749000Y-107619800D02*
X152171400Y-109042200D01*
X144373600Y-107619800D02*
X150749000Y-107619800D01*
X141500000Y-110493400D02*
X144373600Y-107619800D01*
X158724600Y-108178600D02*
X157759400Y-109143800D01*
X157759400Y-109143800D02*
X155041600Y-109143800D01*
X154533600Y-109042200D02*
X154127200Y-109042200D01*
X155041600Y-109143800D02*
X154635200Y-109143800D01*
X154635200Y-109143800D02*
X154533600Y-109042200D01*
D22*
X160909000Y-90093800D02*
X162102800Y-88900000D01*
X162102800Y-88900000D02*
X163677600Y-88900000D01*
X160909000Y-92626264D02*
X160909000Y-90093800D01*
X158546800Y-94564200D02*
X158971064Y-94564200D01*
X158971064Y-94564200D02*
X160909000Y-92626264D01*
D23*
X133600000Y-127440000D02*
X134700000Y-127440000D01*
X134700000Y-127440000D02*
X135600000Y-126540000D01*
X135600000Y-126540000D02*
X135600000Y-125700000D01*
X152747399Y-117375000D02*
X154475000Y-117375000D01*
X154475000Y-117375000D02*
X156500000Y-119400000D01*
D24*
X157073600Y-126949200D02*
X157073600Y-126923800D01*
X156794200Y-122555000D02*
X156794200Y-122097800D01*
X157505400Y-123266200D02*
X156794200Y-122555000D01*
X157505400Y-126492000D02*
X157505400Y-123266200D01*
X157073600Y-126923800D02*
X157505400Y-126492000D01*
X159918400Y-103835200D02*
X159918400Y-105359200D01*
X161061400Y-106502200D02*
X159918400Y-105359200D01*
X161916266Y-109465266D02*
X161061400Y-108610400D01*
X161929138Y-109465266D02*
X161916266Y-109465266D01*
X161061400Y-108610400D02*
X161061400Y-106502200D01*
X161950400Y-109524800D02*
X161929138Y-109465266D01*
X162966400Y-110540800D02*
X161950400Y-109524800D01*
X164896800Y-116593536D02*
X162966400Y-114663136D01*
X162966400Y-114663136D02*
X162966400Y-110540800D01*
X164896800Y-117017800D02*
X164896800Y-116593536D01*
X157073600Y-126949200D02*
X157073600Y-126949200D01*
X157073600Y-126949200D02*
X157048200Y-131622800D01*
X156974580Y-131549180D02*
X157048200Y-131622800D01*
X156133800Y-121767600D02*
X156159200Y-133070600D01*
X156108400Y-121742200D02*
X156133800Y-121767600D01*
X162864800Y-118821200D02*
X162204400Y-118160800D01*
X162204400Y-118160800D02*
X162204400Y-116484400D01*
X162204400Y-116484400D02*
X161600001Y-115880001D01*
X159500000Y-109000000D02*
X159500000Y-107797600D01*
X161600001Y-115880001D02*
X161600001Y-111100001D01*
X161600001Y-111100001D02*
X159500000Y-109000000D01*
X163195000Y-118821200D02*
X162864800Y-118821200D01*
X159500000Y-107734800D02*
X158038800Y-106273600D01*
X159500000Y-107797600D02*
X159500000Y-107734800D01*
X155500000Y-131300000D02*
X155507726Y-126762474D01*
X155507726Y-126762474D02*
X155524200Y-126746000D01*
D23*
X155508926Y-126761274D02*
X155524200Y-126746000D01*
D24*
X160068205Y-107696000D02*
X160068205Y-107160005D01*
X160068205Y-107160005D02*
X158572200Y-105664000D01*
X163753800Y-118262400D02*
X163093400Y-118262400D01*
X162534600Y-117703600D02*
X162534600Y-116198190D01*
X163093400Y-118262400D02*
X162534600Y-117703600D01*
X162100000Y-115763590D02*
X162534600Y-116198190D01*
X162100000Y-110963590D02*
X162100000Y-115763590D01*
X160068205Y-108931795D02*
X162100000Y-110963590D01*
X160068205Y-107696000D02*
X160068205Y-108931795D01*
X148793200Y-121640600D02*
X149123398Y-121970798D01*
X149123398Y-121970798D02*
X149123398Y-127305546D01*
X149123398Y-127305546D02*
X147954998Y-128473946D01*
X147954998Y-128473946D02*
X147954998Y-130175002D01*
X147954998Y-130175002D02*
X147066000Y-131064000D01*
X149402800Y-120980200D02*
X149428200Y-121005600D01*
X149428200Y-121005600D02*
X149428200Y-127431800D01*
X149428200Y-127431800D02*
X148259800Y-128600200D01*
X148259800Y-128600200D02*
X148259800Y-130810000D01*
X148259800Y-130810000D02*
X147828000Y-131241800D01*
X160600000Y-108700000D02*
X160600000Y-106900000D01*
X160600000Y-106900000D02*
X159080200Y-105029000D01*
X163779200Y-117703600D02*
X162864800Y-116789200D01*
X162864800Y-116789200D02*
X162864800Y-115951000D01*
X162864800Y-115951000D02*
X162509200Y-115595400D01*
X162509200Y-115595400D02*
X162509200Y-110609200D01*
X162509200Y-110609200D02*
X160600000Y-108700000D01*
X164312600Y-117703600D02*
X163779200Y-117703600D01*
X151587200Y-131394200D02*
X154127200Y-131394200D01*
X154863800Y-130657600D02*
X154863800Y-129235200D01*
X154127200Y-131394200D02*
X154863800Y-130657600D01*
X146600000Y-119532400D02*
X146600000Y-119414200D01*
X147320000Y-123952000D02*
X147320000Y-122994998D01*
X147320000Y-122994998D02*
X146812000Y-122486998D01*
X146812000Y-122486998D02*
X146812000Y-122412000D01*
X146600000Y-122200000D02*
X146600000Y-119532400D01*
X146812000Y-122412000D02*
X146600000Y-122200000D01*
X146600000Y-119414200D02*
X148056600Y-117957600D01*
X148056600Y-117957600D02*
X148056600Y-117678200D01*
X148056600Y-117678200D02*
X147294600Y-116916200D01*
X147294600Y-116916200D02*
X147294600Y-115714600D01*
X147294600Y-115714600D02*
X146580000Y-115000000D01*
D23*
X146600000Y-115020000D02*
X146580000Y-115000000D01*
D24*
X151460200Y-130175000D02*
X153492200Y-130175000D01*
X154533600Y-127711200D02*
X154863800Y-127711200D01*
X153898600Y-128346200D02*
X154533600Y-127711200D01*
X153898600Y-129768600D02*
X153898600Y-128346200D01*
X153492200Y-130175000D02*
X153898600Y-129768600D01*
X150571200Y-131445000D02*
X150571200Y-131267200D01*
X150317200Y-131013200D02*
X150317200Y-130505200D01*
X150571200Y-131267200D02*
X150317200Y-131013200D01*
X150317200Y-130505200D02*
X150647400Y-130175000D01*
X150876000Y-132435600D02*
X150850600Y-132435600D01*
X150571200Y-132156200D02*
X150571200Y-131445000D01*
X150850600Y-132435600D02*
X150571200Y-132156200D01*
X150317200Y-130505200D02*
X150647400Y-130175000D01*
X150647400Y-130175000D02*
X151460200Y-130175000D01*
X149961600Y-124587000D02*
X150016906Y-124183630D01*
X149120000Y-117320000D02*
X149120000Y-115000000D01*
X150000000Y-118200000D02*
X149120000Y-117320000D01*
X150000000Y-121000000D02*
X150000000Y-118200000D01*
X150000000Y-121000000D02*
X149999999Y-121314578D01*
X150039581Y-121354160D02*
X149999999Y-121314578D01*
X150039581Y-124160955D02*
X150039581Y-121354160D01*
X150016906Y-124183630D02*
X150039581Y-124160955D01*
X160900000Y-118329600D02*
X160900000Y-117500000D01*
X162052000Y-119481600D02*
X160900000Y-118329600D01*
X162052000Y-119989600D02*
X162052000Y-119481600D01*
X161575000Y-118242600D02*
X161575000Y-117000000D01*
X162610800Y-119278400D02*
X161575000Y-118242600D01*
X162610800Y-119380000D02*
X162610800Y-119278400D01*
D23*
X161600000Y-117000000D02*
X161575000Y-117000000D01*
D24*
X157886400Y-126974600D02*
X157886400Y-122758200D01*
X157886400Y-122758200D02*
X157581600Y-122453400D01*
X157581600Y-122453400D02*
X157378400Y-122453400D01*
X157378400Y-122453400D02*
X157378400Y-121869200D01*
X157378400Y-121869200D02*
X157492700Y-121754900D01*
X157492700Y-121754900D02*
X157848300Y-121754900D01*
X157848300Y-121754900D02*
X158700000Y-120903200D01*
X158700000Y-116960000D02*
X158700000Y-120903200D01*
X156740000Y-115000000D02*
X158700000Y-116960000D01*
X148107400Y-116763800D02*
X147800000Y-116456400D01*
X147800000Y-116456400D02*
X147800000Y-113500000D01*
X143200000Y-119100000D02*
X143200000Y-116657000D01*
X151866600Y-106629200D02*
X151815800Y-106578400D01*
X151815800Y-106578400D02*
X151815800Y-100787200D01*
X151815800Y-100787200D02*
X152755600Y-99847400D01*
X142798800Y-110744000D02*
X144449800Y-109093000D01*
X142798800Y-116255800D02*
X142798800Y-110744000D01*
X143200000Y-116657000D02*
X142798800Y-116255800D01*
X145643600Y-117144800D02*
X145618200Y-117170200D01*
X145618200Y-117170200D02*
X145618200Y-128701800D01*
X145948400Y-127685800D02*
X146278600Y-128016000D01*
X145948400Y-117779800D02*
X145948400Y-127685800D01*
X146456400Y-117271800D02*
X145948400Y-117779800D01*
X152654000Y-121945400D02*
X154799400Y-119800000D01*
X154799400Y-119800000D02*
X154977200Y-119800000D01*
X155300000Y-119800000D02*
X154977200Y-119800000D01*
X154977200Y-119800000D02*
X154900000Y-119800000D01*
X157700000Y-121125000D02*
X156625000Y-121125000D01*
X156625000Y-121125000D02*
X155300000Y-119800000D01*
X151841200Y-122072400D02*
X151832599Y-122063799D01*
X151832599Y-122063799D02*
X151832599Y-117364798D01*
X151832599Y-117364798D02*
X152900000Y-116297397D01*
X152900000Y-116297397D02*
X152900000Y-113500000D01*
X150700000Y-122500000D02*
X150700000Y-122400000D01*
X150700000Y-122400000D02*
X150440791Y-122140791D01*
X150440791Y-122140791D02*
X150440791Y-121140791D01*
X150440791Y-121140791D02*
X150401210Y-121101210D01*
X150401210Y-121101210D02*
X150401210Y-117901210D01*
X150401210Y-117901210D02*
X150616497Y-117685923D01*
X150616497Y-117685923D02*
X150616497Y-117197251D01*
X146600000Y-123200000D02*
X146600000Y-122774800D01*
X145299999Y-115459001D02*
X145299999Y-113174999D01*
X145491200Y-115650202D02*
X145299999Y-115459001D01*
X145299999Y-113174999D02*
X145000000Y-112875000D01*
X146600000Y-122774800D02*
X146295198Y-122469998D01*
X146295198Y-122469998D02*
X146295198Y-119287946D01*
X146295198Y-119287946D02*
X147688672Y-117894472D01*
X147688672Y-117894472D02*
X147688672Y-117742072D01*
X147688672Y-117742072D02*
X146939000Y-116992400D01*
X146939000Y-116992400D02*
X146939000Y-116585998D01*
X146939000Y-116585998D02*
X146553002Y-116200000D01*
X146553002Y-116200000D02*
X146019600Y-116200000D01*
X146019600Y-116200000D02*
X145491200Y-115671600D01*
X145491200Y-115671600D02*
X145491200Y-115650202D01*
X151192698Y-116920674D02*
X150484999Y-116212975D01*
X150484999Y-116212975D02*
X150484999Y-116084999D01*
X151100000Y-117700802D02*
X151250001Y-117550801D01*
X150753620Y-118047182D02*
X151100000Y-117700802D01*
X151100000Y-117700802D02*
X151100000Y-117566526D01*
X151100000Y-117566526D02*
X151192698Y-117473828D01*
X151192698Y-117473828D02*
X151192698Y-116920674D01*
X150596600Y-123825000D02*
X151200000Y-123475736D01*
X151250001Y-117550801D02*
X151250001Y-117488749D01*
X151200000Y-123475736D02*
X151276201Y-123399535D01*
X151276201Y-123399535D02*
X151276201Y-122223423D01*
X150793201Y-120993201D02*
X150753620Y-120953620D01*
X151276201Y-122223423D02*
X150976577Y-121923799D01*
X150976577Y-121923799D02*
X150923799Y-121923799D01*
X150793201Y-121793201D02*
X150793201Y-120993201D01*
X150923799Y-121923799D02*
X150793201Y-121793201D01*
X150753620Y-120953620D02*
X150753620Y-118047182D01*
D23*
X151066507Y-117672243D02*
X151250001Y-117488749D01*
X151250001Y-117488749D02*
X151250001Y-116850001D01*
X150596600Y-123825000D02*
X150696600Y-123925000D01*
X150484999Y-116084999D02*
X151250001Y-116850001D01*
X149400000Y-113400000D02*
X150484999Y-114484999D01*
X150484999Y-114484999D02*
X150484999Y-116084999D01*
D24*
X152679400Y-124409200D02*
X150545802Y-126542798D01*
X150545802Y-126542798D02*
X150545802Y-127914398D01*
X150545802Y-127914398D02*
X149301202Y-129158998D01*
X149301202Y-129158998D02*
X149301202Y-132384800D01*
X149301202Y-132384800D02*
X149555200Y-132638798D01*
X149555200Y-132638798D02*
X149555200Y-134010400D01*
X148996400Y-129032000D02*
X148996400Y-133045200D01*
X150241000Y-127787400D02*
X148996400Y-129032000D01*
X150241000Y-126085600D02*
X150241000Y-127787400D01*
X151688800Y-124637800D02*
X150241000Y-126085600D01*
X149212300Y-128206500D02*
X148640800Y-128778000D01*
X148640800Y-131673600D02*
X148386800Y-131927600D01*
X148640800Y-128778000D02*
X148640800Y-131673600D01*
X150774400Y-124663200D02*
X149885400Y-125552200D01*
X149885400Y-125552200D02*
X149885400Y-127533400D01*
X149885400Y-127533400D02*
X149212300Y-128206500D01*
X149212300Y-128206500D02*
X149199600Y-128219200D01*
X150926800Y-130733800D02*
X154051000Y-130733800D01*
X154279600Y-129057400D02*
X154863800Y-128473200D01*
X154279600Y-130505200D02*
X154279600Y-129057400D01*
X154051000Y-130733800D02*
X154279600Y-130505200D01*
X150926800Y-130733800D02*
X150977600Y-130683000D01*
X152933400Y-128473200D02*
X152933400Y-129590800D01*
X152933400Y-129590800D02*
X152730200Y-129794000D01*
X152730200Y-129794000D02*
X151485600Y-129794000D01*
X150545800Y-129794000D02*
X151485600Y-129794000D01*
X149910800Y-130429000D02*
X150545800Y-129794000D01*
X149910800Y-131572000D02*
X149910800Y-130429000D01*
D23*
X162585400Y-98806000D02*
X162585400Y-92532200D01*
X162585400Y-92532200D02*
X163677600Y-91440000D01*
X160350200Y-101041200D02*
X162585400Y-98806000D01*
X159410400Y-101041200D02*
X160350200Y-101041200D01*
X159385000Y-101066600D02*
X159410400Y-101041200D01*
X156641800Y-101066600D02*
X159385000Y-101066600D01*
X132030165Y-97629709D02*
X132087046Y-97665450D01*
X131966756Y-96992478D02*
X131900000Y-97000000D01*
X131353684Y-97233243D02*
X131346163Y-97300000D01*
X132200000Y-93100000D02*
X132200000Y-96700000D01*
X131411613Y-97487046D02*
X131459116Y-97534549D01*
X131646163Y-97600000D02*
X131900000Y-97600000D01*
X132200000Y-96700000D02*
X132192478Y-96766756D01*
X132192478Y-96766756D02*
X132170290Y-96830165D01*
X132170290Y-96830165D02*
X132134549Y-96887046D01*
X131459116Y-97065450D02*
X131411613Y-97112953D01*
X132134549Y-96887046D02*
X132087046Y-96934549D01*
X132087046Y-96934549D02*
X132030165Y-96970290D01*
X131646163Y-97000000D02*
X131579406Y-97007521D01*
X132030165Y-96970290D02*
X131966756Y-96992478D01*
X132087046Y-97665450D02*
X132134549Y-97712953D01*
X131900000Y-97000000D02*
X131646163Y-97000000D01*
X131375872Y-97169834D02*
X131353684Y-97233243D01*
X131900000Y-97600000D02*
X131966756Y-97607521D01*
X131579406Y-97007521D02*
X131515997Y-97029709D01*
X131515997Y-97029709D02*
X131459116Y-97065450D01*
X131411613Y-97112953D02*
X131375872Y-97169834D01*
X131346163Y-97300000D02*
X131353684Y-97366756D01*
X131353684Y-97366756D02*
X131375872Y-97430165D01*
X131515997Y-97570290D02*
X131579406Y-97592478D01*
X132200000Y-109100000D02*
X130800000Y-110500000D01*
X131966756Y-97607521D02*
X132030165Y-97629709D01*
X131375872Y-97430165D02*
X131411613Y-97487046D01*
X131459116Y-97534549D02*
X131515997Y-97570290D01*
X131579406Y-97592478D02*
X131646163Y-97600000D01*
X132134549Y-97712953D02*
X132170290Y-97769834D01*
X132170290Y-97769834D02*
X132192478Y-97833243D01*
X132192478Y-97833243D02*
X132200000Y-97900000D01*
X132200000Y-97900000D02*
X132200000Y-109100000D01*
X130800000Y-110500000D02*
X130800000Y-119300000D01*
X163626800Y-96951800D02*
X166217600Y-94361000D01*
X166217600Y-94361000D02*
X166217600Y-91440000D01*
X163626800Y-98602800D02*
X163626800Y-96951800D01*
X156616400Y-102412800D02*
X159816800Y-102412800D01*
X159816800Y-102412800D02*
X163626800Y-98602800D01*
X132900000Y-110100006D02*
X132900000Y-93800000D01*
X131600003Y-111400003D02*
X132900000Y-110100006D01*
X131600003Y-119300000D02*
X131600003Y-111400003D01*
D24*
X143687800Y-126060200D02*
X143662400Y-126085600D01*
X143662400Y-126085600D02*
X143662400Y-130048000D01*
X142824200Y-126009400D02*
X142798800Y-126034800D01*
X142798800Y-126034800D02*
X142798800Y-129717800D01*
X142011400Y-126034800D02*
X141986000Y-126060200D01*
X141986000Y-126060200D02*
X142011400Y-129717800D01*
D23*
X139700000Y-119532400D02*
X139700000Y-100558600D01*
X139700000Y-100558600D02*
X141732000Y-98526600D01*
X141732000Y-98526600D02*
X145465800Y-98526600D01*
D25*
G36*
X172685486Y-87508852D02*
X172426198Y-88003503D01*
X172110765Y-88563952D01*
X171756579Y-89147577D01*
X171382526Y-89725820D01*
X170985825Y-90304533D01*
X170570759Y-90878374D01*
X169679214Y-92021164D01*
X168728661Y-93129959D01*
X167726525Y-94198228D01*
X166679130Y-95217834D01*
X166147688Y-95699959D01*
X165607486Y-96166588D01*
X165177538Y-96521192D01*
X164961846Y-96691556D01*
X166755001Y-94898402D01*
X166903675Y-94675894D01*
X166919748Y-94651839D01*
X166977600Y-94361000D01*
X166977600Y-92703301D01*
X167296747Y-92490054D01*
X167618654Y-92008285D01*
X167731693Y-91440000D01*
X167618654Y-90871715D01*
X167296747Y-90389946D01*
X166956047Y-90162298D01*
X167098958Y-90095183D01*
X167489245Y-89666924D01*
X167659076Y-89256890D01*
X167537755Y-89027000D01*
X166344600Y-89027000D01*
X166344600Y-89047000D01*
X166090600Y-89047000D01*
X166090600Y-89027000D01*
X166070600Y-89027000D01*
X166070600Y-88773000D01*
X166090600Y-88773000D01*
X166090600Y-87579181D01*
X166344600Y-87579181D01*
X166344600Y-88773000D01*
X167537755Y-88773000D01*
X167659076Y-88543110D01*
X167489245Y-88133076D01*
X167098958Y-87704817D01*
X166574492Y-87458514D01*
X166344600Y-87579181D01*
X166090600Y-87579181D01*
X165860708Y-87458514D01*
X165336242Y-87704817D01*
X165148792Y-87910504D01*
X165130762Y-87814683D01*
X164991690Y-87598559D01*
X164779490Y-87453569D01*
X164527600Y-87402560D01*
X162827600Y-87402560D01*
X162592283Y-87446838D01*
X162376159Y-87585910D01*
X162231169Y-87798110D01*
X162187248Y-88015000D01*
X162102805Y-88015000D01*
X162102800Y-88014999D01*
X161764125Y-88082367D01*
X161477010Y-88274210D01*
X161477008Y-88274213D01*
X160283210Y-89468010D01*
X160091367Y-89755125D01*
X160085317Y-89785541D01*
X160023999Y-90093800D01*
X160024000Y-90093805D01*
X160024000Y-92259685D01*
X158654391Y-93629293D01*
X158361633Y-93629038D01*
X158017857Y-93771083D01*
X157754608Y-94033873D01*
X157611962Y-94377401D01*
X157611638Y-94749367D01*
X157753683Y-95093143D01*
X158016473Y-95356392D01*
X158360001Y-95499038D01*
X158731967Y-95499362D01*
X158853369Y-95449200D01*
X158971059Y-95449200D01*
X158971064Y-95449201D01*
X159270058Y-95389726D01*
X159309739Y-95381833D01*
X159596854Y-95189990D01*
X161534787Y-93252056D01*
X161534790Y-93252054D01*
X161726633Y-92964939D01*
X161794000Y-92626264D01*
X161794000Y-90460380D01*
X162241910Y-90012469D01*
X162363510Y-90201441D01*
X162575710Y-90346431D01*
X162643141Y-90360086D01*
X162598453Y-90389946D01*
X162276546Y-90871715D01*
X162163507Y-91440000D01*
X162236390Y-91806408D01*
X162047999Y-91994799D01*
X161883252Y-92241361D01*
X161825400Y-92532200D01*
X161825400Y-98491198D01*
X160035398Y-100281200D01*
X159410400Y-100281200D01*
X159282707Y-100306600D01*
X157204263Y-100306600D01*
X157172127Y-100274408D01*
X156828599Y-100131762D01*
X156456633Y-100131438D01*
X156112857Y-100273483D01*
X155849608Y-100536273D01*
X155706962Y-100879801D01*
X155706638Y-101251767D01*
X155848683Y-101595543D01*
X155979932Y-101727021D01*
X155824208Y-101882473D01*
X155681562Y-102226001D01*
X155681238Y-102597967D01*
X155823283Y-102941743D01*
X156086073Y-103204992D01*
X156429601Y-103347638D01*
X156801567Y-103347962D01*
X157145343Y-103205917D01*
X157178518Y-103172800D01*
X159258512Y-103172800D01*
X159126208Y-103304873D01*
X158983562Y-103648401D01*
X158983238Y-104020367D01*
X159013638Y-104093941D01*
X158895033Y-104093838D01*
X158551257Y-104235883D01*
X158288008Y-104498673D01*
X158152132Y-104825897D01*
X158043257Y-104870883D01*
X157780008Y-105133673D01*
X157662124Y-105417568D01*
X157509857Y-105480483D01*
X157246608Y-105743273D01*
X157103962Y-106086801D01*
X157103638Y-106458767D01*
X157245683Y-106802543D01*
X157508473Y-107065792D01*
X157852001Y-107208438D01*
X157967951Y-107208539D01*
X158170254Y-107410842D01*
X157932408Y-107648273D01*
X157789762Y-107991801D01*
X157789661Y-108107751D01*
X157464812Y-108432600D01*
X154876798Y-108432600D01*
X154805765Y-108385137D01*
X154789114Y-108381825D01*
X154657527Y-108250008D01*
X154313999Y-108107362D01*
X153942033Y-108107038D01*
X153598257Y-108249083D01*
X153516197Y-108331000D01*
X152465989Y-108331000D01*
X151699043Y-107564055D01*
X152051767Y-107564362D01*
X152395543Y-107422317D01*
X152658792Y-107159527D01*
X152801438Y-106815999D01*
X152801762Y-106444033D01*
X152659717Y-106100257D01*
X152527000Y-105967308D01*
X152527000Y-101081788D01*
X152826326Y-100782462D01*
X152940767Y-100782562D01*
X153284543Y-100640517D01*
X153547792Y-100377727D01*
X153690438Y-100034199D01*
X153690762Y-99662233D01*
X153548717Y-99318457D01*
X153285927Y-99055208D01*
X152942399Y-98912562D01*
X152570433Y-98912238D01*
X152226657Y-99054283D01*
X151963408Y-99317073D01*
X151820762Y-99660601D01*
X151820661Y-99776551D01*
X151312906Y-100284306D01*
X151158737Y-100515035D01*
X151115283Y-100733491D01*
X151104600Y-100787200D01*
X151104600Y-106068734D01*
X151074408Y-106098873D01*
X150931762Y-106442401D01*
X150931438Y-106814367D01*
X150990198Y-106956577D01*
X150749000Y-106908600D01*
X144373600Y-106908600D01*
X144146590Y-106953755D01*
X144101435Y-106962737D01*
X143870706Y-107116906D01*
X140997106Y-109990506D01*
X140842937Y-110221235D01*
X140788800Y-110493400D01*
X140788800Y-113502560D01*
X140650000Y-113502560D01*
X140460000Y-113538311D01*
X140460000Y-101759767D01*
X148340638Y-101759767D01*
X148482683Y-102103543D01*
X148745473Y-102366792D01*
X148771800Y-102377724D01*
X148771800Y-105613195D01*
X148771799Y-105613200D01*
X148821308Y-105862094D01*
X148839167Y-105951875D01*
X148970802Y-106148882D01*
X149041483Y-106319943D01*
X149304273Y-106583192D01*
X149647801Y-106725838D01*
X150019767Y-106726162D01*
X150363543Y-106584117D01*
X150626792Y-106321327D01*
X150769438Y-105977799D01*
X150769762Y-105605833D01*
X150627717Y-105262057D01*
X150541800Y-105175990D01*
X150541800Y-101955600D01*
X150474433Y-101616925D01*
X150282590Y-101329810D01*
X150282587Y-101329808D01*
X150118545Y-101165765D01*
X150068917Y-101045657D01*
X149806127Y-100782408D01*
X149462599Y-100639762D01*
X149090633Y-100639438D01*
X148746857Y-100781483D01*
X148483608Y-101044273D01*
X148340962Y-101387801D01*
X148340638Y-101759767D01*
X140460000Y-101759767D01*
X140460000Y-100873402D01*
X142046802Y-99286600D01*
X144903337Y-99286600D01*
X144935473Y-99318792D01*
X145279001Y-99461438D01*
X145650967Y-99461762D01*
X145994743Y-99319717D01*
X146257992Y-99056927D01*
X146400638Y-98713399D01*
X146400962Y-98341433D01*
X146258917Y-97997657D01*
X145996127Y-97734408D01*
X145652599Y-97591762D01*
X145280633Y-97591438D01*
X144936857Y-97733483D01*
X144903682Y-97766600D01*
X141732000Y-97766600D01*
X141441161Y-97824452D01*
X141194599Y-97989199D01*
X139162599Y-100021199D01*
X138997852Y-100267761D01*
X138940000Y-100558600D01*
X138940000Y-118969937D01*
X138907808Y-119002073D01*
X138845091Y-119153111D01*
X138840944Y-119148964D01*
X138791317Y-119028857D01*
X138528527Y-118765608D01*
X138184999Y-118622962D01*
X137813033Y-118622638D01*
X137469257Y-118764683D01*
X137206008Y-119027473D01*
X137063362Y-119371001D01*
X137063038Y-119742967D01*
X137205083Y-120086743D01*
X137467873Y-120349992D01*
X137589186Y-120400366D01*
X138413808Y-121224987D01*
X138413810Y-121224990D01*
X138700925Y-121416833D01*
X138757116Y-121428010D01*
X139039600Y-121484201D01*
X139039605Y-121484200D01*
X140207995Y-121484200D01*
X140208000Y-121484201D01*
X140490484Y-121428010D01*
X140546675Y-121416833D01*
X140833790Y-121224990D01*
X141658235Y-120400545D01*
X141778343Y-120350917D01*
X142041592Y-120088127D01*
X142184238Y-119744599D01*
X142184502Y-119441419D01*
X142211200Y-119307200D01*
X142211200Y-116631923D01*
X142295906Y-116758694D01*
X142488800Y-116951588D01*
X142488800Y-118488822D01*
X142407808Y-118569673D01*
X142265162Y-118913201D01*
X142264838Y-119285167D01*
X142406883Y-119628943D01*
X142669673Y-119892192D01*
X143013201Y-120034838D01*
X143385167Y-120035162D01*
X143728943Y-119893117D01*
X143992192Y-119630327D01*
X144134838Y-119286799D01*
X144135162Y-118914833D01*
X143993117Y-118571057D01*
X143911200Y-118488997D01*
X143911200Y-116657000D01*
X143857063Y-116384836D01*
X143839694Y-116358841D01*
X143913000Y-116320155D01*
X143913000Y-115127000D01*
X143893000Y-115127000D01*
X143893000Y-114873000D01*
X143913000Y-114873000D01*
X143913000Y-113679845D01*
X143683110Y-113558524D01*
X143510000Y-113630224D01*
X143510000Y-111038588D01*
X144520526Y-110028062D01*
X144634967Y-110028162D01*
X144978743Y-109886117D01*
X145241992Y-109623327D01*
X145384638Y-109279799D01*
X145384962Y-108907833D01*
X145242917Y-108564057D01*
X145010266Y-108331000D01*
X150454412Y-108331000D01*
X151668505Y-109545094D01*
X151785590Y-109623327D01*
X151899236Y-109699263D01*
X152171400Y-109753400D01*
X153516022Y-109753400D01*
X153596873Y-109834392D01*
X153940401Y-109977038D01*
X154312367Y-109977362D01*
X154617181Y-109851416D01*
X154635200Y-109855000D01*
X154747012Y-109855000D01*
X154863800Y-109971789D01*
X154863800Y-113662767D01*
X154768285Y-113598946D01*
X154200000Y-113485907D01*
X153834950Y-113558520D01*
X153835162Y-113314833D01*
X153693117Y-112971057D01*
X153430327Y-112707808D01*
X153086799Y-112565162D01*
X152714833Y-112564838D01*
X152371057Y-112706883D01*
X152107808Y-112969673D01*
X151965162Y-113313201D01*
X151964959Y-113546567D01*
X151660000Y-113485907D01*
X151091715Y-113598946D01*
X150841162Y-113766360D01*
X150335122Y-113260320D01*
X150335162Y-113214833D01*
X150193117Y-112871057D01*
X149930327Y-112607808D01*
X149586799Y-112465162D01*
X149214833Y-112464838D01*
X148871057Y-112606883D01*
X148607808Y-112869673D01*
X148573761Y-112951667D01*
X148330327Y-112707808D01*
X147986799Y-112565162D01*
X147614833Y-112564838D01*
X147271057Y-112706883D01*
X147007808Y-112969673D01*
X146865162Y-113313201D01*
X146864962Y-113542590D01*
X146580000Y-113485907D01*
X146011715Y-113598946D01*
X146011199Y-113599291D01*
X146011199Y-113174999D01*
X145957062Y-112902835D01*
X145935005Y-112869825D01*
X145935162Y-112689833D01*
X145793117Y-112346057D01*
X145530327Y-112082808D01*
X145186799Y-111940162D01*
X144814833Y-111939838D01*
X144471057Y-112081883D01*
X144207808Y-112344673D01*
X144065162Y-112688201D01*
X144064838Y-113060167D01*
X144206883Y-113403943D01*
X144373511Y-113570862D01*
X144167000Y-113679845D01*
X144167000Y-114873000D01*
X144187000Y-114873000D01*
X144187000Y-115127000D01*
X144167000Y-115127000D01*
X144167000Y-116320155D01*
X144396890Y-116441476D01*
X144806924Y-116271645D01*
X144960004Y-116132138D01*
X144988306Y-116174494D01*
X145150631Y-116336819D01*
X145114657Y-116351683D01*
X144851408Y-116614473D01*
X144708762Y-116958001D01*
X144708438Y-117329967D01*
X144850483Y-117673743D01*
X144907000Y-117730359D01*
X144907000Y-128090622D01*
X144826008Y-128171473D01*
X144683362Y-128515001D01*
X144683038Y-128886967D01*
X144825083Y-129230743D01*
X145087873Y-129493992D01*
X145431401Y-129636638D01*
X145803367Y-129636962D01*
X146147143Y-129494917D01*
X146410392Y-129232127D01*
X146540168Y-128919594D01*
X146807543Y-128809117D01*
X147070792Y-128546327D01*
X147213438Y-128202799D01*
X147213762Y-127830833D01*
X147071717Y-127487057D01*
X146808927Y-127223808D01*
X146659600Y-127161802D01*
X146659600Y-124613892D01*
X146789673Y-124744192D01*
X147133201Y-124886838D01*
X147505167Y-124887162D01*
X147848943Y-124745117D01*
X148112192Y-124482327D01*
X148254838Y-124138799D01*
X148255162Y-123766833D01*
X148113117Y-123423057D01*
X148031200Y-123340997D01*
X148031200Y-122994998D01*
X147977063Y-122722834D01*
X147919759Y-122637073D01*
X147822894Y-122492103D01*
X147465917Y-122135127D01*
X147314894Y-121909105D01*
X147311200Y-121905411D01*
X147311200Y-119708788D01*
X148559494Y-118460495D01*
X148686399Y-118270567D01*
X148713663Y-118229764D01*
X148765147Y-117970935D01*
X149288800Y-118494588D01*
X149288800Y-120045100D01*
X149217633Y-120045038D01*
X148873857Y-120187083D01*
X148610608Y-120449873D01*
X148483043Y-120757083D01*
X148264257Y-120847483D01*
X148001008Y-121110273D01*
X147858362Y-121453801D01*
X147858038Y-121825767D01*
X148000083Y-122169543D01*
X148262873Y-122432792D01*
X148412198Y-122494797D01*
X148412198Y-127010958D01*
X147452104Y-127971052D01*
X147297935Y-128201781D01*
X147278326Y-128300362D01*
X147243798Y-128473946D01*
X147243798Y-129880414D01*
X146995274Y-130128938D01*
X146880833Y-130128838D01*
X146537057Y-130270883D01*
X146273808Y-130533673D01*
X146131162Y-130877201D01*
X146130838Y-131249167D01*
X146272883Y-131592943D01*
X146535673Y-131856192D01*
X146879201Y-131998838D01*
X147251167Y-131999162D01*
X147259476Y-131995729D01*
X147297673Y-132033992D01*
X147451651Y-132097930D01*
X147451638Y-132112767D01*
X147593683Y-132456543D01*
X147856473Y-132719792D01*
X148080492Y-132812813D01*
X148061562Y-132858401D01*
X148061238Y-133230367D01*
X148203283Y-133574143D01*
X148466073Y-133837392D01*
X148620294Y-133901431D01*
X148620038Y-134195567D01*
X148762083Y-134539343D01*
X149024873Y-134802592D01*
X149368401Y-134945238D01*
X149740367Y-134945562D01*
X150084143Y-134803517D01*
X150196794Y-134691062D01*
X151274824Y-134691062D01*
X151278235Y-134948043D01*
X151381358Y-135183450D01*
X151567942Y-135360189D01*
X153264038Y-136420027D01*
X153487062Y-136507176D01*
X153744043Y-136503765D01*
X153979450Y-136400642D01*
X153987959Y-136391659D01*
X154098024Y-136465201D01*
X154118725Y-136479033D01*
X154457400Y-136546401D01*
X154457405Y-136546400D01*
X155894220Y-136546400D01*
X156408655Y-137060835D01*
X156458283Y-137180943D01*
X156721073Y-137444192D01*
X157064601Y-137586838D01*
X157436567Y-137587162D01*
X157780343Y-137445117D01*
X158043592Y-137182327D01*
X158186238Y-136838799D01*
X158186562Y-136466833D01*
X158044517Y-136123057D01*
X157781727Y-135859808D01*
X157660413Y-135809434D01*
X156886590Y-135035610D01*
X156755536Y-134948043D01*
X156599475Y-134843767D01*
X156538680Y-134831674D01*
X156260800Y-134776399D01*
X156260795Y-134776400D01*
X155054537Y-134776400D01*
X155216027Y-134517962D01*
X155303176Y-134294938D01*
X155299765Y-134037957D01*
X155196642Y-133802550D01*
X155010058Y-133625811D01*
X153313962Y-132565973D01*
X153090938Y-132478824D01*
X152833957Y-132482235D01*
X152598550Y-132585358D01*
X152421811Y-132771942D01*
X151361973Y-134468038D01*
X151274824Y-134691062D01*
X150196794Y-134691062D01*
X150347392Y-134540727D01*
X150490038Y-134197199D01*
X150490362Y-133825233D01*
X150348317Y-133481457D01*
X150266400Y-133399397D01*
X150266400Y-133148381D01*
X150345673Y-133227792D01*
X150689201Y-133370438D01*
X151061167Y-133370762D01*
X151404943Y-133228717D01*
X151668192Y-132965927D01*
X151810838Y-132622399D01*
X151811107Y-132313355D01*
X152116143Y-132187317D01*
X152198203Y-132105400D01*
X154127200Y-132105400D01*
X154399365Y-132051263D01*
X154630094Y-131897094D01*
X154704357Y-131822831D01*
X154706883Y-131828943D01*
X154969673Y-132092192D01*
X155313201Y-132234838D01*
X155446121Y-132234954D01*
X155446628Y-132460792D01*
X155367008Y-132540273D01*
X155224362Y-132883801D01*
X155224038Y-133255767D01*
X155366083Y-133599543D01*
X155628873Y-133862792D01*
X155972401Y-134005438D01*
X156344367Y-134005762D01*
X156688143Y-133863717D01*
X156951392Y-133600927D01*
X157094038Y-133257399D01*
X157094362Y-132885433D01*
X156958955Y-132557723D01*
X157233367Y-132557962D01*
X157577143Y-132415917D01*
X157840392Y-132153127D01*
X157983038Y-131809599D01*
X157983362Y-131437633D01*
X157841317Y-131093857D01*
X157762713Y-131015115D01*
X157779591Y-127909508D01*
X158071567Y-127909762D01*
X158415343Y-127767717D01*
X158678592Y-127504927D01*
X158821238Y-127161399D01*
X158821562Y-126789433D01*
X158679517Y-126445657D01*
X158597600Y-126363597D01*
X158597600Y-122758200D01*
X158560146Y-122569905D01*
X158651473Y-122661392D01*
X158995001Y-122804038D01*
X159366967Y-122804362D01*
X159710743Y-122662317D01*
X159973992Y-122399527D01*
X160116638Y-122055999D01*
X160116962Y-121684033D01*
X160020000Y-121449366D01*
X160020000Y-120168978D01*
X160100992Y-120088127D01*
X160243638Y-119744599D01*
X160243962Y-119372633D01*
X160101917Y-119028857D01*
X159839127Y-118765608D01*
X159495599Y-118622962D01*
X159411200Y-118622888D01*
X159411200Y-116960000D01*
X159357063Y-116687836D01*
X159308968Y-116615857D01*
X159202895Y-116457106D01*
X158150320Y-115404532D01*
X158225000Y-115029093D01*
X158225000Y-114970907D01*
X158111961Y-114402622D01*
X157790054Y-113920853D01*
X157308285Y-113598946D01*
X156740000Y-113485907D01*
X156286200Y-113576174D01*
X156286200Y-109855000D01*
X157759400Y-109855000D01*
X158031565Y-109800863D01*
X158262294Y-109646694D01*
X158795326Y-109113662D01*
X158811412Y-109113676D01*
X158842937Y-109272165D01*
X158997106Y-109502894D01*
X160888801Y-111394589D01*
X160888801Y-115880001D01*
X160942938Y-116152166D01*
X161006131Y-116246740D01*
X160782808Y-116469673D01*
X160743282Y-116564863D01*
X160714833Y-116564838D01*
X160371057Y-116706883D01*
X160107808Y-116969673D01*
X159965162Y-117313201D01*
X159964838Y-117685167D01*
X160106883Y-118028943D01*
X160188800Y-118111003D01*
X160188800Y-118329600D01*
X160242937Y-118601765D01*
X160397106Y-118832494D01*
X161190587Y-119625975D01*
X161117162Y-119802801D01*
X161116838Y-120174767D01*
X161258883Y-120518543D01*
X161521673Y-120781792D01*
X161865201Y-120924438D01*
X162237167Y-120924762D01*
X162580943Y-120782717D01*
X162844192Y-120519927D01*
X162956815Y-120248701D01*
X163139743Y-120173117D01*
X163402992Y-119910327D01*
X163484892Y-119713091D01*
X163723943Y-119614317D01*
X163987192Y-119351527D01*
X164074353Y-119141622D01*
X164282743Y-119055517D01*
X164545992Y-118792727D01*
X164633153Y-118582822D01*
X164841543Y-118496717D01*
X165104792Y-118233927D01*
X165247438Y-117890399D01*
X165247443Y-117884589D01*
X165425743Y-117810917D01*
X165688992Y-117548127D01*
X165831638Y-117204599D01*
X165831962Y-116832633D01*
X165689917Y-116488857D01*
X165561612Y-116360328D01*
X165555978Y-116332000D01*
X167624507Y-116332000D01*
X167737546Y-116900285D01*
X168059453Y-117382054D01*
X168388626Y-117602000D01*
X168059453Y-117821946D01*
X167737546Y-118303715D01*
X167624507Y-118872000D01*
X167737546Y-119440285D01*
X168059453Y-119922054D01*
X168541222Y-120243961D01*
X169109507Y-120357000D01*
X169167693Y-120357000D01*
X169735978Y-120243961D01*
X170217747Y-119922054D01*
X170408600Y-119636422D01*
X170599453Y-119922054D01*
X171081222Y-120243961D01*
X171649507Y-120357000D01*
X171707693Y-120357000D01*
X172275978Y-120243961D01*
X172757747Y-119922054D01*
X173079654Y-119440285D01*
X173192693Y-118872000D01*
X173079654Y-118303715D01*
X172757747Y-117821946D01*
X172428574Y-117602000D01*
X172757747Y-117382054D01*
X173079654Y-116900285D01*
X173192693Y-116332000D01*
X173079654Y-115763715D01*
X172757747Y-115281946D01*
X172417047Y-115054298D01*
X172559958Y-114987183D01*
X172950245Y-114558924D01*
X173120076Y-114148890D01*
X172998755Y-113919000D01*
X171805600Y-113919000D01*
X171805600Y-113939000D01*
X171551600Y-113939000D01*
X171551600Y-113919000D01*
X171531600Y-113919000D01*
X171531600Y-113665000D01*
X171551600Y-113665000D01*
X171551600Y-112471181D01*
X171805600Y-112471181D01*
X171805600Y-113665000D01*
X172998755Y-113665000D01*
X173120076Y-113435110D01*
X172950245Y-113025076D01*
X172559958Y-112596817D01*
X172035492Y-112350514D01*
X171805600Y-112471181D01*
X171551600Y-112471181D01*
X171321708Y-112350514D01*
X170797242Y-112596817D01*
X170609792Y-112802504D01*
X170591762Y-112706683D01*
X170452690Y-112490559D01*
X170240490Y-112345569D01*
X169988600Y-112294560D01*
X168288600Y-112294560D01*
X168053283Y-112338838D01*
X167837159Y-112477910D01*
X167692169Y-112690110D01*
X167641160Y-112942000D01*
X167641160Y-114642000D01*
X167685438Y-114877317D01*
X167824510Y-115093441D01*
X168036710Y-115238431D01*
X168104141Y-115252086D01*
X168059453Y-115281946D01*
X167737546Y-115763715D01*
X167624507Y-116332000D01*
X165555978Y-116332000D01*
X165553863Y-116321371D01*
X165399694Y-116090642D01*
X163677600Y-114368548D01*
X163677600Y-110540800D01*
X163659958Y-110452110D01*
X163623463Y-110268635D01*
X163469294Y-110037906D01*
X162511602Y-109080214D01*
X162456384Y-108987965D01*
X162441992Y-108977278D01*
X162432032Y-108962372D01*
X162393240Y-108936452D01*
X161772600Y-108315812D01*
X161772600Y-106502200D01*
X161718463Y-106230036D01*
X161718463Y-106230035D01*
X161564294Y-105999306D01*
X160629600Y-105064612D01*
X160629600Y-104446378D01*
X160710592Y-104365527D01*
X160853238Y-104021999D01*
X160853562Y-103650033D01*
X160711517Y-103306257D01*
X160448727Y-103043008D01*
X160304768Y-102983231D01*
X160354201Y-102950201D01*
X163478932Y-99825470D01*
X163478932Y-107420191D01*
X163494022Y-107496054D01*
X163494731Y-107573401D01*
X163829123Y-109177540D01*
X163831168Y-109182353D01*
X163831288Y-109187586D01*
X163888387Y-109316990D01*
X163943700Y-109447142D01*
X163947434Y-109450809D01*
X163949546Y-109455594D01*
X164856424Y-110747902D01*
X164857251Y-110748693D01*
X164857717Y-110749739D01*
X164963106Y-110849816D01*
X165068242Y-110950254D01*
X165069310Y-110950668D01*
X165070140Y-110951456D01*
X166405059Y-111794355D01*
X166409940Y-111796231D01*
X166413784Y-111799782D01*
X166546507Y-111848706D01*
X166678505Y-111899427D01*
X166683735Y-111899292D01*
X166688643Y-111901101D01*
X168307158Y-112157017D01*
X168382996Y-112154018D01*
X168458025Y-112165477D01*
X168519096Y-112162740D01*
X168578771Y-112160666D01*
X168638663Y-112158845D01*
X168687780Y-112157780D01*
X169127735Y-112163242D01*
X169571011Y-112195114D01*
X169712852Y-112211049D01*
X169870139Y-112232154D01*
X169911106Y-112229571D01*
X169951155Y-112238587D01*
X170627224Y-112255549D01*
X170718188Y-112239816D01*
X170810474Y-112237560D01*
X171470338Y-112089455D01*
X171551866Y-112053326D01*
X171638002Y-112030243D01*
X171660833Y-112018983D01*
X171661020Y-112018840D01*
X171661246Y-112018779D01*
X171684558Y-112007264D01*
X171684929Y-112006979D01*
X171685381Y-112006857D01*
X171843262Y-111928631D01*
X171844029Y-111928040D01*
X171844961Y-111927786D01*
X172007704Y-111846638D01*
X172009920Y-111844922D01*
X172012619Y-111844165D01*
X172380666Y-111657267D01*
X172382158Y-111656094D01*
X172383981Y-111655573D01*
X172758440Y-111463076D01*
X172759702Y-111462073D01*
X172761253Y-111461623D01*
X173159545Y-111254746D01*
X173160668Y-111253846D01*
X173162047Y-111253440D01*
X173582882Y-111032841D01*
X173584440Y-111031583D01*
X173586362Y-111031006D01*
X174479995Y-110556585D01*
X174481781Y-110555128D01*
X174483987Y-110554451D01*
X175445329Y-110036632D01*
X175446834Y-110035389D01*
X175448696Y-110034807D01*
X176478258Y-109473447D01*
X176479562Y-109472358D01*
X176481186Y-109471843D01*
X177576018Y-108868565D01*
X177577177Y-108867589D01*
X177578619Y-108867125D01*
X178735135Y-108223876D01*
X178736169Y-108222998D01*
X178737459Y-108222578D01*
X179952979Y-107540859D01*
X179953911Y-107540062D01*
X179955075Y-107539679D01*
X181227160Y-106820867D01*
X181228011Y-106820134D01*
X181229077Y-106819780D01*
X182555354Y-106065200D01*
X182556139Y-106064520D01*
X182557123Y-106064190D01*
X183935230Y-105275165D01*
X183935961Y-105274529D01*
X183936877Y-105274219D01*
X185364462Y-104452063D01*
X185365147Y-104451463D01*
X185366008Y-104451170D01*
X186840379Y-103597394D01*
X186841025Y-103596826D01*
X186841838Y-103596547D01*
X188358981Y-102713445D01*
X188359445Y-102713035D01*
X188360028Y-102712834D01*
X189133756Y-102260785D01*
X189134058Y-102260517D01*
X189134437Y-102260386D01*
X189920073Y-101800270D01*
X189920369Y-101800007D01*
X189920741Y-101799878D01*
X190718366Y-101331636D01*
X190718653Y-101331381D01*
X190719016Y-101331254D01*
X191519837Y-100860053D01*
X191519921Y-100859978D01*
X191520027Y-100859941D01*
X192122453Y-100505238D01*
X192717494Y-100154976D01*
X192717497Y-100154975D01*
X193288255Y-99819105D01*
X193288256Y-99819104D01*
X193835585Y-99497128D01*
X193835587Y-99497127D01*
X194875101Y-98885956D01*
X195841569Y-98318248D01*
X195841573Y-98318247D01*
X196734831Y-97794138D01*
X196734832Y-97794137D01*
X197555826Y-97313101D01*
X197555828Y-97313100D01*
X198309438Y-96872311D01*
X198995836Y-96471697D01*
X200179802Y-95783647D01*
X201124558Y-95239317D01*
X201512149Y-95018242D01*
X201849985Y-94827436D01*
X201999992Y-94743533D01*
X202136832Y-94667566D01*
X202259609Y-94600045D01*
X202379888Y-94534701D01*
X202390456Y-94525907D01*
X202403431Y-94521356D01*
X202683197Y-94356039D01*
X202705622Y-94335968D01*
X202733141Y-94323792D01*
X202994976Y-94139654D01*
X203016720Y-94116847D01*
X203044382Y-94101752D01*
X203275507Y-93908701D01*
X203295704Y-93883652D01*
X203322545Y-93865903D01*
X203517174Y-93673131D01*
X203536252Y-93644874D01*
X203562890Y-93623592D01*
X203717302Y-93440407D01*
X203735607Y-93407218D01*
X203762709Y-93380727D01*
X203874424Y-93217591D01*
X203887773Y-93186376D01*
X203909835Y-93160571D01*
X203948939Y-93090828D01*
X203955031Y-93072113D01*
X203967031Y-93056512D01*
X203994238Y-93001507D01*
X203999609Y-92981556D01*
X204011300Y-92964520D01*
X204027273Y-92927269D01*
X204034499Y-92893157D01*
X204051509Y-92862714D01*
X204062065Y-92830120D01*
X204062575Y-92825779D01*
X204064663Y-92821939D01*
X204199810Y-92387767D01*
X204361200Y-92005118D01*
X204562425Y-91647959D01*
X204833425Y-91300411D01*
X204981731Y-91153348D01*
X205163254Y-91007123D01*
X205371788Y-90876096D01*
X205621496Y-90762107D01*
X205738524Y-90723295D01*
X205873693Y-90689488D01*
X206011802Y-90666282D01*
X206161374Y-90653811D01*
X206228184Y-90652545D01*
X206302402Y-90653777D01*
X206368251Y-90657423D01*
X206444324Y-90665419D01*
X206485147Y-90671077D01*
X206521686Y-90676571D01*
X206527746Y-90677542D01*
X206530389Y-90678570D01*
X206530406Y-90678573D01*
X206532199Y-90678534D01*
X206533872Y-90679176D01*
X206551793Y-90682252D01*
X206552668Y-90682229D01*
X206559425Y-90683806D01*
X206560393Y-90683838D01*
X206561279Y-90684237D01*
X206579624Y-90688470D01*
X206582883Y-90688569D01*
X206585055Y-90689534D01*
X206590941Y-90690861D01*
X206609210Y-90695194D01*
X206631944Y-90700826D01*
X206685483Y-90715559D01*
X206730849Y-90729837D01*
X206848482Y-90774207D01*
X206964497Y-90828882D01*
X207080714Y-90896658D01*
X207177463Y-90965857D01*
X207391621Y-91171509D01*
X207549483Y-91383921D01*
X207652964Y-91581377D01*
X207720008Y-91765928D01*
X207764427Y-91935549D01*
X207792932Y-92090162D01*
X207811915Y-92237222D01*
X207824198Y-92379981D01*
X207838402Y-92699676D01*
X207841560Y-93012453D01*
X207806591Y-93667301D01*
X207690931Y-94287030D01*
X207476201Y-94898672D01*
X207166607Y-95478594D01*
X206770930Y-96003909D01*
X206291201Y-96491519D01*
X206036869Y-96712198D01*
X205755349Y-96935241D01*
X205452667Y-97156849D01*
X205130374Y-97377517D01*
X205057074Y-97427035D01*
X205057072Y-97427036D01*
X204976295Y-97481597D01*
X204976293Y-97481598D01*
X204877012Y-97548643D01*
X204877010Y-97548644D01*
X204760349Y-97627403D01*
X204487279Y-97811685D01*
X204487280Y-97811685D01*
X204163603Y-98030003D01*
X204163601Y-98030005D01*
X203791033Y-98281152D01*
X203373077Y-98562724D01*
X202914409Y-98871520D01*
X202418827Y-99204924D01*
X201330445Y-99936269D01*
X201330444Y-99936270D01*
X200140126Y-100734679D01*
X199516730Y-101152183D01*
X198877624Y-101579710D01*
X198877623Y-101579710D01*
X198226418Y-102014778D01*
X197572317Y-102451172D01*
X197572315Y-102451173D01*
X197234438Y-102676474D01*
X197234383Y-102676528D01*
X197234312Y-102676558D01*
X196893086Y-102904193D01*
X196893040Y-102904239D01*
X196892977Y-102904265D01*
X196540493Y-103139498D01*
X196540452Y-103139539D01*
X196540397Y-103139562D01*
X196177826Y-103381607D01*
X196177765Y-103381668D01*
X196177688Y-103381700D01*
X195432135Y-103879655D01*
X195432067Y-103879723D01*
X195431980Y-103879759D01*
X194663799Y-104393105D01*
X194663742Y-104393162D01*
X194663667Y-104393193D01*
X193877249Y-104918967D01*
X193877198Y-104919018D01*
X193877130Y-104919046D01*
X193078622Y-105453124D01*
X193078578Y-105453168D01*
X193078518Y-105453193D01*
X192274405Y-105991213D01*
X192274366Y-105991252D01*
X192274313Y-105991274D01*
X191470640Y-106529170D01*
X191470603Y-106529207D01*
X191470557Y-106529226D01*
X190673254Y-107063013D01*
X190673222Y-107063045D01*
X190673179Y-107063063D01*
X189888132Y-107588781D01*
X189888102Y-107588811D01*
X189888063Y-107588827D01*
X189121297Y-108102427D01*
X189121270Y-108102454D01*
X189121231Y-108102470D01*
X188379362Y-108599507D01*
X188379337Y-108599532D01*
X188379303Y-108599546D01*
X187668512Y-109075858D01*
X187668486Y-109075884D01*
X187668453Y-109075898D01*
X186992601Y-109528890D01*
X186992581Y-109528910D01*
X186992555Y-109528921D01*
X186669398Y-109745552D01*
X186669387Y-109745563D01*
X186669373Y-109745569D01*
X186360044Y-109952949D01*
X186360031Y-109952962D01*
X186360016Y-109952968D01*
X186065808Y-110150230D01*
X186065795Y-110150243D01*
X186065778Y-110150250D01*
X185777514Y-110343546D01*
X185207338Y-110722286D01*
X184631193Y-111104460D01*
X184042928Y-111494126D01*
X183446240Y-111888803D01*
X182255776Y-112674348D01*
X181097224Y-113436021D01*
X180540224Y-113800993D01*
X180002148Y-114152625D01*
X179488944Y-114486955D01*
X179005294Y-114800859D01*
X178554343Y-115092203D01*
X178138881Y-115359037D01*
X177945254Y-115482709D01*
X177765483Y-115597042D01*
X177598155Y-115702922D01*
X177434669Y-115805699D01*
X177434340Y-115806010D01*
X177433918Y-115806172D01*
X177111205Y-116009581D01*
X177110795Y-116009970D01*
X177110267Y-116010173D01*
X176795084Y-116209487D01*
X176794499Y-116210043D01*
X176793746Y-116210335D01*
X176503242Y-116394901D01*
X176502444Y-116395663D01*
X176501418Y-116396064D01*
X176234235Y-116566896D01*
X176232657Y-116568411D01*
X176230625Y-116569219D01*
X175750675Y-116879971D01*
X175747710Y-116882852D01*
X175743884Y-116884420D01*
X175335828Y-117154930D01*
X175331375Y-117159351D01*
X175325609Y-117161826D01*
X174990659Y-117391876D01*
X174984113Y-117398591D01*
X174975589Y-117402501D01*
X174709555Y-117595002D01*
X174702877Y-117602198D01*
X174694064Y-117606518D01*
X174585928Y-117689082D01*
X174581382Y-117694240D01*
X174575266Y-117697376D01*
X174486913Y-117767387D01*
X174481461Y-117773803D01*
X174474054Y-117777809D01*
X174406033Y-117834194D01*
X174398260Y-117843760D01*
X174387614Y-117849971D01*
X174326871Y-117903726D01*
X174264895Y-117985250D01*
X174193632Y-118058813D01*
X174176977Y-118100900D01*
X174149587Y-118136929D01*
X174123525Y-118235971D01*
X174085841Y-118331198D01*
X174056629Y-118491299D01*
X174024140Y-118631172D01*
X173987863Y-118762270D01*
X173949191Y-118884052D01*
X173853947Y-119143992D01*
X173746270Y-119396887D01*
X173625818Y-119646937D01*
X173491479Y-119895258D01*
X173342467Y-120141476D01*
X173181090Y-120378096D01*
X173015762Y-120592435D01*
X172833984Y-120796548D01*
X172622237Y-121005075D01*
X172377905Y-121220731D01*
X172099596Y-121445084D01*
X171776860Y-121687370D01*
X171398604Y-121957258D01*
X170955962Y-122261299D01*
X170439385Y-122606187D01*
X169839973Y-122998115D01*
X169148242Y-123443624D01*
X168355798Y-123948427D01*
X167919096Y-124224895D01*
X167454152Y-124518257D01*
X167454150Y-124518258D01*
X166960686Y-124828744D01*
X166435166Y-125158632D01*
X165878379Y-125507467D01*
X165290431Y-125875239D01*
X165290432Y-125875239D01*
X164984145Y-126066636D01*
X164984144Y-126066637D01*
X164668057Y-126264040D01*
X164668056Y-126264040D01*
X164341165Y-126468085D01*
X164010971Y-126674102D01*
X164010078Y-126674941D01*
X164008933Y-126675378D01*
X163248383Y-127153296D01*
X163248194Y-127153475D01*
X163247950Y-127153568D01*
X162487728Y-127632002D01*
X162417521Y-127698471D01*
X162339011Y-127754880D01*
X161287402Y-128880492D01*
X161264115Y-128918044D01*
X161231472Y-128947832D01*
X161187550Y-129041514D01*
X161133021Y-129129449D01*
X161125877Y-129173059D01*
X161107120Y-129213067D01*
X160757555Y-130628878D01*
X160755936Y-130664273D01*
X160743951Y-130697619D01*
X160749290Y-130809559D01*
X160744169Y-130921510D01*
X160756219Y-130954832D01*
X160757907Y-130990225D01*
X161110229Y-132405343D01*
X161129072Y-132445332D01*
X161136306Y-132488943D01*
X161191000Y-132576753D01*
X161235098Y-132670336D01*
X161267811Y-132700070D01*
X161291182Y-132737592D01*
X162345058Y-133861130D01*
X162423581Y-133917310D01*
X162493805Y-133983576D01*
X162710555Y-134119483D01*
X162710582Y-134119493D01*
X162710604Y-134119514D01*
X162930029Y-134257075D01*
X162930103Y-134257103D01*
X162930160Y-134257157D01*
X163817819Y-134813391D01*
X163817928Y-134813432D01*
X163818010Y-134813510D01*
X164744415Y-135393638D01*
X164744564Y-135393694D01*
X164744682Y-135393806D01*
X166740466Y-136642425D01*
X166740652Y-136642496D01*
X166740798Y-136642633D01*
X168864339Y-137969639D01*
X168864474Y-137969690D01*
X168864577Y-137969787D01*
X169967544Y-138658460D01*
X169967632Y-138658493D01*
X169967702Y-138658559D01*
X171099094Y-139364591D01*
X171099182Y-139364624D01*
X171099250Y-139364688D01*
X172257386Y-140087014D01*
X172257472Y-140087047D01*
X172257541Y-140087111D01*
X173423573Y-140813968D01*
X173423597Y-140813977D01*
X173423617Y-140813996D01*
X174321275Y-141373473D01*
X174321277Y-141373474D01*
X175214816Y-141930523D01*
X176094336Y-142478972D01*
X176094339Y-142478975D01*
X176959069Y-143018345D01*
X176959073Y-143018349D01*
X178646635Y-144071393D01*
X178646636Y-144071394D01*
X180270271Y-145085154D01*
X180270272Y-145085155D01*
X181819226Y-146052931D01*
X181819227Y-146052932D01*
X183284199Y-146968935D01*
X184656238Y-147827584D01*
X184656239Y-147827585D01*
X185926401Y-148623313D01*
X185926403Y-148623315D01*
X187085662Y-149350483D01*
X187085661Y-149350483D01*
X188125103Y-150003583D01*
X189035124Y-150576583D01*
X189806979Y-151064094D01*
X190138175Y-151273936D01*
X190432367Y-151460884D01*
X190686896Y-151623269D01*
X190902974Y-151761874D01*
X190995157Y-151821366D01*
X191078226Y-151875246D01*
X191151861Y-151923352D01*
X191216369Y-151965829D01*
X191243971Y-151984210D01*
X191271224Y-152002560D01*
X191297410Y-152020248D01*
X191321997Y-152037211D01*
X191346023Y-152054005D01*
X191376942Y-152076449D01*
X191394067Y-152089183D01*
X191416362Y-152106321D01*
X191425416Y-152113483D01*
X192470287Y-153617282D01*
X192934092Y-155301922D01*
X192822125Y-157045656D01*
X192657065Y-157433139D01*
X192583644Y-157255448D01*
X192124113Y-156795113D01*
X191523398Y-156545675D01*
X190872955Y-156545107D01*
X190271807Y-156793497D01*
X189811472Y-157253028D01*
X189562034Y-157853743D01*
X189561466Y-158504186D01*
X189809856Y-159105334D01*
X190269387Y-159565669D01*
X190870102Y-159815107D01*
X191089460Y-159815299D01*
X190899035Y-160021925D01*
X189355353Y-160840558D01*
X187628937Y-161109988D01*
X185805095Y-160771026D01*
X185787611Y-160763846D01*
X185762617Y-160753126D01*
X185744738Y-160744970D01*
X185700592Y-160724010D01*
X185663097Y-160705555D01*
X185587133Y-160666498D01*
X185511539Y-160625914D01*
X185426658Y-160579226D01*
X185333160Y-160526979D01*
X185230432Y-160468724D01*
X185119169Y-160404957D01*
X184565742Y-160082039D01*
X183856968Y-159661181D01*
X182996537Y-159144895D01*
X181993419Y-158538648D01*
X180857801Y-157848617D01*
X179599525Y-157080785D01*
X178227952Y-156240835D01*
X176753798Y-155335290D01*
X175185160Y-154368998D01*
X173533238Y-153348803D01*
X171807540Y-152280439D01*
X170018931Y-151170558D01*
X169105260Y-150602590D01*
X169105257Y-150602587D01*
X168176839Y-150024822D01*
X168176838Y-150024822D01*
X167235699Y-149438437D01*
X166290958Y-148849157D01*
X166290957Y-148849157D01*
X165465069Y-148333680D01*
X165465057Y-148333675D01*
X165465049Y-148333668D01*
X164642033Y-147820018D01*
X164642027Y-147820016D01*
X164642022Y-147820011D01*
X163829513Y-147312937D01*
X163829505Y-147312934D01*
X163829500Y-147312929D01*
X163028002Y-146812752D01*
X163027992Y-146812748D01*
X163027981Y-146812738D01*
X161456071Y-145831855D01*
X161456051Y-145831848D01*
X161456038Y-145831835D01*
X159931242Y-144880461D01*
X159931220Y-144880453D01*
X159931201Y-144880435D01*
X158461233Y-143963403D01*
X158461205Y-143963392D01*
X158461183Y-143963372D01*
X157052682Y-143084838D01*
X157052648Y-143084825D01*
X157052621Y-143084800D01*
X155711954Y-142248755D01*
X155711914Y-142248740D01*
X155711881Y-142248709D01*
X154992156Y-141800000D01*
X164140000Y-141800000D01*
X164197852Y-142090839D01*
X164362599Y-142337401D01*
X166531943Y-144506745D01*
X166531943Y-146908059D01*
X166589795Y-147198898D01*
X166656862Y-147299271D01*
X166656780Y-147393225D01*
X166798825Y-147737001D01*
X167061615Y-148000250D01*
X167405143Y-148142896D01*
X167777109Y-148143220D01*
X168120885Y-148001175D01*
X168384134Y-147738385D01*
X168526780Y-147394857D01*
X168527104Y-147022891D01*
X168385059Y-146679115D01*
X168122269Y-146415866D01*
X168051943Y-146386664D01*
X168051943Y-144191943D01*
X168031140Y-144087362D01*
X167994091Y-143901103D01*
X167829344Y-143654542D01*
X167348535Y-143173733D01*
X167492192Y-143030327D01*
X167634838Y-142686799D01*
X167635162Y-142314833D01*
X167493117Y-141971057D01*
X167230327Y-141707808D01*
X166886799Y-141565162D01*
X166839924Y-141565121D01*
X166537401Y-141262599D01*
X166290839Y-141097852D01*
X166000000Y-141040000D01*
X164900000Y-141040000D01*
X164609161Y-141097852D01*
X164362599Y-141262599D01*
X164197852Y-141509161D01*
X164140000Y-141800000D01*
X154992156Y-141800000D01*
X154445419Y-141459140D01*
X154445367Y-141459120D01*
X154445328Y-141459084D01*
X153259479Y-140720006D01*
X153259415Y-140719982D01*
X153259366Y-140719936D01*
X152160709Y-140035471D01*
X152160629Y-140035441D01*
X152160566Y-140035382D01*
X151155713Y-139409670D01*
X151155609Y-139409631D01*
X151155528Y-139409555D01*
X150251083Y-138846728D01*
X150250991Y-138846693D01*
X150250918Y-138846625D01*
X149886631Y-138620065D01*
X149886558Y-138620038D01*
X149886501Y-138619984D01*
X149543465Y-138406737D01*
X149543410Y-138406716D01*
X149543367Y-138406676D01*
X149449828Y-138348548D01*
X149449809Y-138348541D01*
X149449792Y-138348525D01*
X149358025Y-138291505D01*
X149260347Y-138254781D01*
X149167499Y-138207161D01*
X147581912Y-137755421D01*
X147520215Y-137750400D01*
X147461264Y-137731523D01*
X147375609Y-137738632D01*
X147289939Y-137731660D01*
X147231015Y-137750632D01*
X147169329Y-137755752D01*
X145584468Y-138210031D01*
X145491716Y-138257789D01*
X145394122Y-138294653D01*
X137322623Y-143327095D01*
X137322621Y-143327097D01*
X129251124Y-148359538D01*
X129251115Y-148359547D01*
X129251106Y-148359550D01*
X128291024Y-148958183D01*
X127335002Y-149553947D01*
X127335003Y-149553947D01*
X126393054Y-150140546D01*
X126393051Y-150140549D01*
X125466349Y-150717300D01*
X125466347Y-150717302D01*
X123655971Y-151842874D01*
X121911909Y-152925709D01*
X120246039Y-153958449D01*
X118666939Y-154935757D01*
X117185203Y-155851053D01*
X115811080Y-156698000D01*
X115811081Y-156698000D01*
X114553303Y-157471181D01*
X114553304Y-157471181D01*
X113421413Y-158164646D01*
X112426770Y-158771389D01*
X111577543Y-159286298D01*
X111210748Y-159507270D01*
X110883264Y-159703434D01*
X110596795Y-159873738D01*
X110350651Y-160018486D01*
X110243281Y-160080930D01*
X110146126Y-160136881D01*
X110058563Y-160186660D01*
X109979221Y-160230916D01*
X109943274Y-160250494D01*
X109906204Y-160270442D01*
X109870937Y-160289205D01*
X109837233Y-160306605D01*
X109798412Y-160325711D01*
X109750634Y-160348211D01*
X109729164Y-160357790D01*
X109696666Y-160371370D01*
X109645982Y-160390642D01*
X109634141Y-160394681D01*
X107858794Y-160692995D01*
X106192695Y-160418532D01*
X104701004Y-159627280D01*
X103514001Y-158361651D01*
X102805743Y-156777622D01*
X102652769Y-155096007D01*
X103043824Y-153453357D01*
X104000205Y-151939558D01*
X104025443Y-151913777D01*
X104049028Y-151890834D01*
X104067404Y-151873866D01*
X104109411Y-151836568D01*
X104144640Y-151806761D01*
X104177519Y-151779962D01*
X104209812Y-151754415D01*
X104242163Y-151729368D01*
X104274397Y-151704951D01*
X104345820Y-151651975D01*
X104421518Y-151597218D01*
X104504518Y-151538228D01*
X104594587Y-151475140D01*
X104801234Y-151332745D01*
X105039705Y-151171121D01*
X105312116Y-150988737D01*
X105617444Y-150786177D01*
X106328996Y-150319135D01*
X107169256Y-149773323D01*
X108135044Y-149150756D01*
X109222110Y-148454174D01*
X110425823Y-147686590D01*
X111740665Y-146851584D01*
X113162750Y-145951696D01*
X114687737Y-144989762D01*
X115039626Y-144768437D01*
X126921482Y-144768437D01*
X126940974Y-145027340D01*
X127427776Y-145341591D01*
X127997781Y-145445631D01*
X128435506Y-145372371D01*
X128566173Y-145147662D01*
X127933898Y-144135809D01*
X126921482Y-144768437D01*
X115039626Y-144768437D01*
X116311891Y-143968232D01*
X118026414Y-142892732D01*
X118915545Y-142336038D01*
X118915546Y-142336037D01*
X119409423Y-142027198D01*
X125148256Y-142027198D01*
X125353542Y-142569031D01*
X125384376Y-142618376D01*
X125781386Y-143040405D01*
X126309679Y-143278380D01*
X126650058Y-143288777D01*
X126650042Y-143288799D01*
X126493679Y-143846724D01*
X126562727Y-144422017D01*
X126786882Y-144553032D01*
X127669984Y-144001209D01*
X128149302Y-144001209D01*
X128781578Y-145013062D01*
X129040826Y-144994125D01*
X129298558Y-144632815D01*
X129454921Y-144074890D01*
X129433947Y-143900139D01*
X129581818Y-143995596D01*
X130151823Y-144099636D01*
X130589548Y-144026376D01*
X130720215Y-143801667D01*
X130087940Y-142789814D01*
X129161718Y-143368582D01*
X128149302Y-144001209D01*
X127669984Y-144001209D01*
X127799298Y-143920405D01*
X127788700Y-143903444D01*
X128004104Y-143768844D01*
X128014702Y-143785805D01*
X128940924Y-143207037D01*
X129824026Y-142655214D01*
X130303344Y-142655214D01*
X130935620Y-143667067D01*
X131194868Y-143648130D01*
X131452600Y-143286820D01*
X131608963Y-142728895D01*
X131587989Y-142554144D01*
X131735860Y-142649601D01*
X132305865Y-142753641D01*
X132743590Y-142680381D01*
X132874257Y-142455672D01*
X132241982Y-141443819D01*
X131315760Y-142022587D01*
X130303344Y-142655214D01*
X129824026Y-142655214D01*
X129953340Y-142574410D01*
X129942742Y-142557449D01*
X130158146Y-142422849D01*
X130168744Y-142439810D01*
X131094966Y-141861042D01*
X132107382Y-141228415D01*
X132096784Y-141211454D01*
X132312188Y-141076854D01*
X132322786Y-141093815D01*
X132339747Y-141083217D01*
X132474347Y-141298621D01*
X132457386Y-141309219D01*
X133089662Y-142321072D01*
X133348910Y-142302135D01*
X133606642Y-141940825D01*
X133763005Y-141382900D01*
X133744190Y-141226141D01*
X134117800Y-141394437D01*
X134696948Y-141412127D01*
X135238782Y-141206841D01*
X135660810Y-140809830D01*
X135898786Y-140281537D01*
X135910873Y-139885840D01*
X136271842Y-140048442D01*
X136850990Y-140066132D01*
X137392824Y-139860846D01*
X137814852Y-139463835D01*
X138052828Y-138935542D01*
X138064915Y-138539844D01*
X138425885Y-138702447D01*
X139005033Y-138720137D01*
X139546867Y-138514851D01*
X139968895Y-138117840D01*
X140206871Y-137589547D01*
X140218958Y-137193850D01*
X140579927Y-137356452D01*
X141159075Y-137374142D01*
X141700909Y-137168856D01*
X142122937Y-136771845D01*
X142360913Y-136243552D01*
X142373423Y-135833996D01*
X142506071Y-135919626D01*
X143076076Y-136023666D01*
X143513801Y-135950406D01*
X143644468Y-135725697D01*
X143012193Y-134713844D01*
X142995232Y-134724442D01*
X142904502Y-134579244D01*
X143227597Y-134579244D01*
X143859873Y-135591097D01*
X144119121Y-135572160D01*
X144376853Y-135210850D01*
X144533216Y-134652925D01*
X144464168Y-134077632D01*
X144240013Y-133946617D01*
X143227597Y-134579244D01*
X142904502Y-134579244D01*
X142860632Y-134509038D01*
X142877593Y-134498440D01*
X142866995Y-134481479D01*
X143082399Y-134346879D01*
X143092997Y-134363840D01*
X144105413Y-133731212D01*
X144085921Y-133472309D01*
X143599119Y-133158058D01*
X143325353Y-133108089D01*
X143397059Y-133042022D01*
X143506646Y-132809554D01*
X143517156Y-132552765D01*
X143426932Y-132312119D01*
X142526070Y-130870437D01*
X142363822Y-130694341D01*
X142238921Y-130635462D01*
X142405189Y-130566762D01*
X142612001Y-130652638D01*
X142945136Y-130652928D01*
X143132073Y-130840192D01*
X143475601Y-130982838D01*
X143847567Y-130983162D01*
X144191343Y-130841117D01*
X144454592Y-130578327D01*
X144597238Y-130234799D01*
X144597562Y-129862833D01*
X144455517Y-129519057D01*
X144373600Y-129436997D01*
X144373600Y-126696733D01*
X144479992Y-126590527D01*
X144622638Y-126246999D01*
X144622962Y-125875033D01*
X144480917Y-125531257D01*
X144218127Y-125268008D01*
X143874599Y-125125362D01*
X143502633Y-125125038D01*
X143317138Y-125201683D01*
X143010999Y-125074562D01*
X142639033Y-125074238D01*
X142387020Y-125178368D01*
X142198199Y-125099962D01*
X141826233Y-125099638D01*
X141482457Y-125241683D01*
X141219208Y-125504473D01*
X141076562Y-125848001D01*
X141076238Y-126219967D01*
X141218283Y-126563743D01*
X141278700Y-126624265D01*
X141295968Y-129110847D01*
X141219208Y-129187473D01*
X141076562Y-129531001D01*
X141076238Y-129902967D01*
X141218283Y-130246743D01*
X141481073Y-130509992D01*
X141749096Y-130621285D01*
X141633919Y-130664468D01*
X141035678Y-131038290D01*
X138861800Y-128864412D01*
X138861800Y-126620578D01*
X138942792Y-126539727D01*
X139085438Y-126196199D01*
X139085762Y-125824233D01*
X138943717Y-125480457D01*
X138680927Y-125217208D01*
X138337399Y-125074562D01*
X137965433Y-125074238D01*
X137621657Y-125216283D01*
X137358408Y-125479073D01*
X137215762Y-125822601D01*
X137215438Y-126194567D01*
X137357483Y-126538343D01*
X137439400Y-126620403D01*
X137439400Y-129159000D01*
X137493537Y-129431165D01*
X137647706Y-129661894D01*
X139919146Y-131933334D01*
X139906554Y-131960046D01*
X139896044Y-132216835D01*
X139920199Y-132281260D01*
X139871184Y-132259181D01*
X139292036Y-132241491D01*
X138750203Y-132446777D01*
X138328174Y-132843787D01*
X138090199Y-133372080D01*
X138078112Y-133767779D01*
X137717142Y-133605176D01*
X137137994Y-133587486D01*
X136596161Y-133792772D01*
X136174132Y-134189782D01*
X135936157Y-134718075D01*
X135924070Y-135113774D01*
X135563100Y-134951171D01*
X134983952Y-134933481D01*
X134442119Y-135138767D01*
X134020090Y-135535777D01*
X133782115Y-136064070D01*
X133770028Y-136459769D01*
X133409057Y-136297166D01*
X132829909Y-136279476D01*
X132288076Y-136484762D01*
X131866047Y-136881772D01*
X131628072Y-137410065D01*
X131615985Y-137805764D01*
X131255015Y-137643161D01*
X130675867Y-137625471D01*
X130134034Y-137830757D01*
X129712005Y-138227767D01*
X129474030Y-138756060D01*
X129461943Y-139151759D01*
X129100973Y-138989156D01*
X128521825Y-138971466D01*
X127979992Y-139176752D01*
X127557963Y-139573762D01*
X127319988Y-140102055D01*
X127307901Y-140497754D01*
X126946931Y-140335151D01*
X126367783Y-140317461D01*
X125825950Y-140522747D01*
X125403921Y-140919757D01*
X125165946Y-141448050D01*
X125148256Y-142027198D01*
X119409423Y-142027198D01*
X119829966Y-141764218D01*
X119829967Y-141764217D01*
X120769728Y-141177255D01*
X120769729Y-141177254D01*
X121716824Y-140586390D01*
X122852501Y-139879380D01*
X122852550Y-139879334D01*
X122852609Y-139879312D01*
X123981011Y-139176564D01*
X123981058Y-139176520D01*
X123981122Y-139176496D01*
X125083903Y-138489440D01*
X125083953Y-138489393D01*
X125084019Y-138489368D01*
X126159480Y-137819061D01*
X126159560Y-137818986D01*
X126159661Y-137818948D01*
X128231023Y-136527104D01*
X128231138Y-136526996D01*
X128231288Y-136526939D01*
X130178864Y-135311171D01*
X130178960Y-135311081D01*
X130179084Y-135311034D01*
X131031211Y-134778686D01*
X131031278Y-134778623D01*
X131031365Y-134778590D01*
X131850222Y-134266752D01*
X131850268Y-134266709D01*
X131850331Y-134266685D01*
X132065764Y-134131974D01*
X132065781Y-134131958D01*
X132065804Y-134131949D01*
X132278649Y-133998838D01*
X132349116Y-133932500D01*
X132427858Y-133876229D01*
X133484832Y-132750645D01*
X133508463Y-132712753D01*
X133541494Y-132682690D01*
X133585341Y-132589482D01*
X133639847Y-132502082D01*
X133647180Y-132458026D01*
X133666189Y-132417616D01*
X134018339Y-130999238D01*
X134020021Y-130963480D01*
X134032142Y-130929790D01*
X134026856Y-130818207D01*
X134032105Y-130706623D01*
X134019973Y-130672938D01*
X134018279Y-130637180D01*
X133665657Y-129218919D01*
X133646633Y-129178514D01*
X133639286Y-129134461D01*
X133584751Y-129047080D01*
X133540873Y-128953887D01*
X133522790Y-128937440D01*
X134450000Y-128937440D01*
X134685317Y-128893162D01*
X134901441Y-128754090D01*
X135046431Y-128541890D01*
X135097440Y-128290000D01*
X135097440Y-128070920D01*
X135237401Y-127977401D01*
X136137401Y-127077401D01*
X136302148Y-126830840D01*
X136360000Y-126540000D01*
X136360000Y-126262463D01*
X136392192Y-126230327D01*
X136534838Y-125886799D01*
X136535162Y-125514833D01*
X136393117Y-125171057D01*
X136130327Y-124907808D01*
X135786799Y-124765162D01*
X135414833Y-124764838D01*
X135112090Y-124889929D01*
X135001054Y-124331715D01*
X134679147Y-123849946D01*
X134197378Y-123528039D01*
X133629093Y-123415000D01*
X133570907Y-123415000D01*
X133002622Y-123528039D01*
X132520853Y-123849946D01*
X132198946Y-124331715D01*
X132085907Y-124900000D01*
X132198946Y-125468285D01*
X132520853Y-125950054D01*
X132562452Y-125977850D01*
X132514683Y-125986838D01*
X132298559Y-126125910D01*
X132153569Y-126338110D01*
X132102560Y-126590000D01*
X132102560Y-127528875D01*
X131941928Y-127428579D01*
X131941573Y-127428445D01*
X131941295Y-127428184D01*
X131609749Y-127221630D01*
X127564458Y-124628827D01*
X123562946Y-122064089D01*
X123552431Y-122054847D01*
X123487392Y-121996871D01*
X123441545Y-121955166D01*
X123392976Y-121910008D01*
X123349427Y-121868077D01*
X123309318Y-121828074D01*
X123222797Y-121738108D01*
X123139928Y-121647271D01*
X123060099Y-121554977D01*
X122985122Y-121463758D01*
X122832438Y-121264439D01*
X122689601Y-121060421D01*
X122553448Y-120848457D01*
X122427115Y-120634665D01*
X122184770Y-120170518D01*
X121973143Y-119687196D01*
X121828674Y-119285750D01*
X124515000Y-119285750D01*
X124515000Y-119976310D01*
X124611673Y-120209699D01*
X124790302Y-120388327D01*
X125023691Y-120485000D01*
X125714250Y-120485000D01*
X125873000Y-120326250D01*
X125873000Y-119127000D01*
X126127000Y-119127000D01*
X126127000Y-120326250D01*
X126285750Y-120485000D01*
X126976309Y-120485000D01*
X127209698Y-120388327D01*
X127388327Y-120209699D01*
X127485000Y-119976310D01*
X127485000Y-119285750D01*
X127326250Y-119127000D01*
X126127000Y-119127000D01*
X125873000Y-119127000D01*
X124673750Y-119127000D01*
X124515000Y-119285750D01*
X121828674Y-119285750D01*
X121791033Y-119181155D01*
X121636866Y-118636712D01*
X121612237Y-118588499D01*
X121600271Y-118535691D01*
X121546201Y-118459232D01*
X121503601Y-118375841D01*
X121462392Y-118340720D01*
X121431132Y-118296516D01*
X121397659Y-118264770D01*
X121391134Y-118260656D01*
X121386554Y-118254449D01*
X121349865Y-118221034D01*
X121345037Y-118218124D01*
X121341624Y-118213639D01*
X121295639Y-118172982D01*
X121291541Y-118170594D01*
X121288623Y-118166856D01*
X121233602Y-118119412D01*
X121227660Y-118116047D01*
X121223364Y-118110743D01*
X121090790Y-118000496D01*
X121084793Y-117997240D01*
X121080404Y-117992015D01*
X120916939Y-117860946D01*
X120912651Y-117858716D01*
X120909495Y-117855054D01*
X120713622Y-117702028D01*
X120710660Y-117700535D01*
X120708474Y-117698042D01*
X120481203Y-117523639D01*
X120479566Y-117522832D01*
X120478355Y-117521464D01*
X120353017Y-117426229D01*
X120352176Y-117425819D01*
X120351555Y-117425121D01*
X120216342Y-117322903D01*
X120215703Y-117322594D01*
X120215232Y-117322066D01*
X120069640Y-117212424D01*
X120069173Y-117212199D01*
X120068830Y-117211816D01*
X119920056Y-117100093D01*
X119916013Y-117098151D01*
X119912981Y-117094844D01*
X119791469Y-117005805D01*
X119790029Y-117005134D01*
X119788949Y-117003966D01*
X119664125Y-116913294D01*
X119662923Y-116912740D01*
X119662020Y-116911770D01*
X119526960Y-116814375D01*
X119525906Y-116813894D01*
X119525117Y-116813051D01*
X119380374Y-116709337D01*
X119378912Y-116708675D01*
X119377809Y-116707507D01*
X119065649Y-116485808D01*
X119063995Y-116485067D01*
X119062746Y-116483757D01*
X119028958Y-116460000D01*
X124485907Y-116460000D01*
X124598946Y-117028285D01*
X124920853Y-117510054D01*
X124964777Y-117539403D01*
X124790302Y-117611673D01*
X124611673Y-117790301D01*
X124515000Y-118023690D01*
X124515000Y-118714250D01*
X124673750Y-118873000D01*
X125873000Y-118873000D01*
X125873000Y-118853000D01*
X126127000Y-118853000D01*
X126127000Y-118873000D01*
X127326250Y-118873000D01*
X127485000Y-118714250D01*
X127485000Y-118023690D01*
X127388327Y-117790301D01*
X127209698Y-117611673D01*
X127035223Y-117539403D01*
X127079147Y-117510054D01*
X127401054Y-117028285D01*
X127514093Y-116460000D01*
X127401054Y-115891715D01*
X127079147Y-115409946D01*
X126597378Y-115088039D01*
X126029093Y-114975000D01*
X125970907Y-114975000D01*
X125402622Y-115088039D01*
X124920853Y-115409946D01*
X124598946Y-115891715D01*
X124485907Y-116460000D01*
X119028958Y-116460000D01*
X118721052Y-116243509D01*
X118719684Y-116242904D01*
X118718646Y-116241824D01*
X118347258Y-115982863D01*
X118346085Y-115982349D01*
X118345196Y-115981431D01*
X118121401Y-115826493D01*
X121028173Y-115826493D01*
X121154899Y-116053449D01*
X121591279Y-116134337D01*
X122163013Y-116040261D01*
X122655225Y-115734553D01*
X122679233Y-115476030D01*
X121678012Y-114825829D01*
X121028173Y-115826493D01*
X118121401Y-115826493D01*
X117945290Y-115704568D01*
X117944267Y-115704124D01*
X117943487Y-115703323D01*
X117516457Y-115409521D01*
X117515554Y-115409133D01*
X117514868Y-115408431D01*
X117061672Y-115098337D01*
X117060508Y-115097840D01*
X117059619Y-115096937D01*
X116078214Y-114430181D01*
X116076912Y-114429630D01*
X116075916Y-114428626D01*
X115000655Y-113703899D01*
X114999560Y-113703440D01*
X114998722Y-113702601D01*
X113836912Y-112924769D01*
X113835965Y-112924376D01*
X113835239Y-112923652D01*
X112593618Y-112097195D01*
X112592780Y-112096850D01*
X112592135Y-112096210D01*
X111277447Y-111225610D01*
X111276689Y-111225300D01*
X111276106Y-111224724D01*
X110746704Y-110875776D01*
X113439096Y-110875776D01*
X113538094Y-111112947D01*
X113721566Y-111292916D01*
X115147306Y-112218802D01*
X115368775Y-112309830D01*
X115625776Y-112310904D01*
X115862947Y-112211906D01*
X115911124Y-112162791D01*
X115911827Y-112216527D01*
X116140548Y-112748891D01*
X116555585Y-113153205D01*
X117093754Y-113367915D01*
X117673123Y-113360333D01*
X118036870Y-113204056D01*
X118042050Y-113599910D01*
X118270771Y-114132274D01*
X118685808Y-114536588D01*
X119223977Y-114751298D01*
X119803346Y-114743716D01*
X120179831Y-114581966D01*
X120158283Y-114738375D01*
X120304886Y-115298943D01*
X120556273Y-115664696D01*
X120815151Y-115688155D01*
X121464990Y-114687491D01*
X121448216Y-114676598D01*
X121489642Y-114612807D01*
X121816350Y-114612807D01*
X122817571Y-115263007D01*
X123043979Y-115135924D01*
X123123057Y-114561923D01*
X122976454Y-114001355D01*
X122725067Y-113635602D01*
X122466189Y-113612143D01*
X121816350Y-114612807D01*
X121489642Y-114612807D01*
X121586555Y-114463576D01*
X121603328Y-114474469D01*
X122253167Y-113473805D01*
X122126441Y-113246849D01*
X121690061Y-113165961D01*
X121118327Y-113260037D01*
X120984204Y-113343340D01*
X120978842Y-112933622D01*
X120750121Y-112401258D01*
X120335084Y-111996944D01*
X119796915Y-111782234D01*
X119217546Y-111789816D01*
X118853799Y-111946093D01*
X118848619Y-111550239D01*
X118619898Y-111017875D01*
X118204861Y-110613561D01*
X117666692Y-110398851D01*
X117087323Y-110406433D01*
X117041351Y-110426184D01*
X117059830Y-110381225D01*
X117060904Y-110124224D01*
X116961906Y-109887053D01*
X116778434Y-109707084D01*
X115352694Y-108781198D01*
X115131225Y-108690170D01*
X114874224Y-108689096D01*
X114637053Y-108788094D01*
X114457084Y-108971566D01*
X113531198Y-110397306D01*
X113440170Y-110618775D01*
X113439096Y-110875776D01*
X110746704Y-110875776D01*
X109895694Y-110314846D01*
X109894997Y-110314563D01*
X109894460Y-110314034D01*
X109151615Y-109826493D01*
X111028173Y-109826493D01*
X111154899Y-110053449D01*
X111591279Y-110134337D01*
X112163013Y-110040261D01*
X112655225Y-109734553D01*
X112679233Y-109476030D01*
X111678012Y-108825829D01*
X111028173Y-109826493D01*
X109151615Y-109826493D01*
X108455814Y-109369828D01*
X108455159Y-109369563D01*
X108454653Y-109369067D01*
X106965263Y-108395492D01*
X106964636Y-108395240D01*
X106964151Y-108394766D01*
X105430488Y-107396120D01*
X105429874Y-107395874D01*
X105429399Y-107395412D01*
X103853848Y-106373367D01*
X103853245Y-106373127D01*
X103852780Y-106372676D01*
X102241325Y-105331216D01*
X102240729Y-105330980D01*
X102240270Y-105330536D01*
X101534032Y-104875776D01*
X103439096Y-104875776D01*
X103538094Y-105112947D01*
X103721566Y-105292916D01*
X105147306Y-106218802D01*
X105368775Y-106309830D01*
X105625776Y-106310904D01*
X105862947Y-106211906D01*
X105911124Y-106162791D01*
X105911827Y-106216527D01*
X106140548Y-106748891D01*
X106555585Y-107153205D01*
X107093754Y-107367915D01*
X107673123Y-107360333D01*
X108036870Y-107204056D01*
X108042050Y-107599910D01*
X108270771Y-108132274D01*
X108685808Y-108536588D01*
X109223977Y-108751298D01*
X109803346Y-108743716D01*
X110179831Y-108581966D01*
X110158283Y-108738375D01*
X110304886Y-109298943D01*
X110556273Y-109664696D01*
X110815151Y-109688155D01*
X111464990Y-108687491D01*
X111448216Y-108676598D01*
X111489642Y-108612807D01*
X111816350Y-108612807D01*
X112817571Y-109263007D01*
X113043979Y-109135924D01*
X113123057Y-108561923D01*
X112976454Y-108001355D01*
X112725067Y-107635602D01*
X112466189Y-107612143D01*
X111816350Y-108612807D01*
X111489642Y-108612807D01*
X111586555Y-108463576D01*
X111603328Y-108474469D01*
X112253167Y-107473805D01*
X112126441Y-107246849D01*
X111690061Y-107165961D01*
X111118327Y-107260037D01*
X110984204Y-107343340D01*
X110978842Y-106933622D01*
X110750121Y-106401258D01*
X110335084Y-105996944D01*
X109796915Y-105782234D01*
X109217546Y-105789816D01*
X108853799Y-105946093D01*
X108848619Y-105550239D01*
X108619898Y-105017875D01*
X108204861Y-104613561D01*
X107666692Y-104398851D01*
X107087323Y-104406433D01*
X107041351Y-104426184D01*
X107059830Y-104381225D01*
X107060904Y-104124224D01*
X106961906Y-103887053D01*
X106778434Y-103707084D01*
X105352694Y-102781198D01*
X105131225Y-102690170D01*
X104874224Y-102689096D01*
X104637053Y-102788094D01*
X104457084Y-102971566D01*
X103531198Y-104397306D01*
X103440170Y-104618775D01*
X103439096Y-104875776D01*
X101534032Y-104875776D01*
X100617371Y-104285521D01*
X100615499Y-104284782D01*
X100614043Y-104283390D01*
X100322854Y-104098049D01*
X100034949Y-103914707D01*
X100034947Y-103914705D01*
X99756672Y-103737396D01*
X99756669Y-103737395D01*
X99488377Y-103566337D01*
X99488375Y-103566335D01*
X98973625Y-103237771D01*
X98488216Y-102927376D01*
X98032355Y-102635211D01*
X97605756Y-102361040D01*
X97205683Y-102103049D01*
X96833176Y-101861847D01*
X96161534Y-101423551D01*
X95583261Y-101040807D01*
X95089613Y-100707447D01*
X94671037Y-100416511D01*
X94318144Y-100161013D01*
X94019898Y-99932289D01*
X93766736Y-99721803D01*
X93542743Y-99511087D01*
X93387021Y-99342437D01*
X93234238Y-99147419D01*
X93221211Y-99128798D01*
X93196906Y-99092809D01*
X93130673Y-99027228D01*
X93074569Y-98952799D01*
X92695748Y-98614793D01*
X92656390Y-98591617D01*
X92624707Y-98558717D01*
X92531221Y-98517913D01*
X92443321Y-98466154D01*
X92398087Y-98459804D01*
X92356227Y-98441533D01*
X91860247Y-98333120D01*
X91765660Y-98331337D01*
X91672258Y-98316313D01*
X91606469Y-98318739D01*
X91549722Y-98320371D01*
X91281370Y-98321654D01*
X91022672Y-98310681D01*
X90742183Y-98281448D01*
X90460754Y-98228416D01*
X90175948Y-98144969D01*
X89894990Y-98025132D01*
X89622490Y-97862936D01*
X89373606Y-97665250D01*
X89160865Y-97441426D01*
X88982834Y-97199604D01*
X88852396Y-96976324D01*
X88741197Y-96741405D01*
X88722804Y-96697560D01*
X88699170Y-96638784D01*
X88660758Y-96579984D01*
X88635206Y-96514560D01*
X88428025Y-96190397D01*
X88328021Y-96086237D01*
X88228567Y-95981488D01*
X87914335Y-95759531D01*
X87851759Y-95731690D01*
X87796405Y-95691361D01*
X87744417Y-95667310D01*
X87723769Y-95657153D01*
X87450560Y-95488949D01*
X87197888Y-95258855D01*
X87055809Y-95074439D01*
X86934411Y-94852658D01*
X86850638Y-94608448D01*
X86808434Y-94355326D01*
X86808631Y-94109762D01*
X86844608Y-93879145D01*
X86908175Y-93671375D01*
X86984549Y-93502165D01*
X87198749Y-93178151D01*
X87432136Y-92941047D01*
X87687137Y-92749928D01*
X87957884Y-92598244D01*
X88245234Y-92479082D01*
X88551057Y-92390603D01*
X88877051Y-92332214D01*
X89227426Y-92304653D01*
X89355375Y-92302081D01*
X89492558Y-92302125D01*
X89635417Y-92306251D01*
X89788151Y-92317386D01*
X89952655Y-92339005D01*
X90129787Y-92376851D01*
X90321306Y-92437222D01*
X90513625Y-92520989D01*
X90697404Y-92628374D01*
X90863853Y-92751449D01*
X91003297Y-92878532D01*
X91121202Y-93006566D01*
X91221466Y-93130999D01*
X91308041Y-93250492D01*
X91386143Y-93366599D01*
X91465751Y-93491570D01*
X91550690Y-93580306D01*
X91629769Y-93674309D01*
X92020620Y-93987197D01*
X92114159Y-94035742D01*
X92201723Y-94094393D01*
X92243138Y-94102680D01*
X92280628Y-94122136D01*
X92385631Y-94131191D01*
X92488969Y-94151867D01*
X92989630Y-94152432D01*
X93086825Y-94133213D01*
X93185675Y-94126613D01*
X93273260Y-94103031D01*
X93319938Y-94097521D01*
X93716206Y-94097061D01*
X94119055Y-94146016D01*
X94643057Y-94297033D01*
X95131828Y-94553666D01*
X95542359Y-94921278D01*
X95867763Y-95360171D01*
X96033346Y-95672452D01*
X96175175Y-96030874D01*
X96198425Y-96066898D01*
X96210835Y-96107941D01*
X96357634Y-96383184D01*
X96431901Y-96473846D01*
X96498732Y-96570113D01*
X96723200Y-96786732D01*
X96774119Y-96819460D01*
X96816132Y-96863033D01*
X96870804Y-96901023D01*
X96873866Y-96902357D01*
X96876205Y-96904741D01*
X96929513Y-96941097D01*
X96932311Y-96942287D01*
X96934457Y-96944440D01*
X97084203Y-97044832D01*
X97087541Y-97046221D01*
X97090118Y-97048757D01*
X97247989Y-97152446D01*
X97250375Y-97153412D01*
X97252224Y-97155208D01*
X97434922Y-97273450D01*
X97436830Y-97274208D01*
X97438309Y-97275629D01*
X97643899Y-97407127D01*
X97646470Y-97408132D01*
X97648474Y-97410030D01*
X98110529Y-97700891D01*
X98113175Y-97701903D01*
X98115247Y-97703837D01*
X98641239Y-98029530D01*
X98643219Y-98030271D01*
X98644771Y-98031703D01*
X99232708Y-98391274D01*
X99234294Y-98391857D01*
X99235542Y-98392999D01*
X99880424Y-98783493D01*
X99881760Y-98783978D01*
X99882809Y-98784930D01*
X100579168Y-99203073D01*
X100580295Y-99203477D01*
X100581185Y-99204280D01*
X101324662Y-99647555D01*
X101326069Y-99648055D01*
X101327182Y-99649051D01*
X102938968Y-100601520D01*
X102940509Y-100602061D01*
X102941729Y-100603143D01*
X104691798Y-101627283D01*
X104693099Y-101627733D01*
X104694132Y-101628643D01*
X106548733Y-102705014D01*
X106549895Y-102705411D01*
X106550820Y-102706221D01*
X108476690Y-103815701D01*
X108477785Y-103816072D01*
X108478658Y-103816831D01*
X110442667Y-104940389D01*
X110443757Y-104940754D01*
X110444625Y-104941505D01*
X112413659Y-106060108D01*
X112414795Y-106060485D01*
X112415703Y-106061265D01*
X114356609Y-107155874D01*
X114357853Y-107156282D01*
X114358850Y-107157133D01*
X116238258Y-108208591D01*
X116239311Y-108208933D01*
X116240153Y-108209647D01*
X117146383Y-108713216D01*
X117147167Y-108713468D01*
X117147798Y-108714001D01*
X118026300Y-109199686D01*
X118027172Y-109199964D01*
X118027874Y-109200554D01*
X118874467Y-109665955D01*
X118875444Y-109666264D01*
X118876229Y-109666920D01*
X119686019Y-110109271D01*
X119687140Y-110109622D01*
X119688041Y-110110371D01*
X120456572Y-110527129D01*
X120457893Y-110527538D01*
X120458957Y-110528416D01*
X121184285Y-110918363D01*
X121185431Y-110918714D01*
X121186359Y-110919474D01*
X121531686Y-111103734D01*
X121532519Y-111103986D01*
X121533193Y-111104536D01*
X121862868Y-111279483D01*
X121863804Y-111279764D01*
X121864562Y-111280379D01*
X122177394Y-111445366D01*
X122178467Y-111445685D01*
X122179340Y-111446389D01*
X122486593Y-111607285D01*
X123181493Y-111973955D01*
X123181495Y-111973957D01*
X123877582Y-112341258D01*
X123928238Y-112356330D01*
X123973509Y-112383596D01*
X124759952Y-112666896D01*
X124863550Y-112682491D01*
X124964724Y-112709683D01*
X125798809Y-112764990D01*
X125851210Y-112758132D01*
X125903659Y-112764605D01*
X126027744Y-112755461D01*
X126027746Y-112755461D01*
X126140602Y-112747144D01*
X126525823Y-112730354D01*
X126922608Y-112736817D01*
X126987616Y-112724984D01*
X127053652Y-112727456D01*
X128669156Y-112468525D01*
X128673840Y-112466787D01*
X128678836Y-112466909D01*
X128810957Y-112415915D01*
X128943801Y-112366628D01*
X128947467Y-112363227D01*
X128952125Y-112361429D01*
X130040000Y-111672246D01*
X130040000Y-118737537D01*
X130007808Y-118769673D01*
X129865162Y-119113201D01*
X129864838Y-119485167D01*
X130006883Y-119828943D01*
X130269673Y-120092192D01*
X130613201Y-120234838D01*
X130985167Y-120235162D01*
X131200106Y-120146351D01*
X131413204Y-120234838D01*
X131785170Y-120235162D01*
X132128946Y-120093117D01*
X132392195Y-119830327D01*
X132534841Y-119486799D01*
X132535165Y-119114833D01*
X132393120Y-118771057D01*
X132360003Y-118737882D01*
X132360003Y-111714805D01*
X133437401Y-110637407D01*
X133602148Y-110390846D01*
X133660000Y-110100006D01*
X133660000Y-104756967D01*
X134370638Y-104756967D01*
X134512683Y-105100743D01*
X134775473Y-105363992D01*
X135119001Y-105506638D01*
X135490967Y-105506962D01*
X135834743Y-105364917D01*
X136097992Y-105102127D01*
X136148366Y-104980814D01*
X137848234Y-103280945D01*
X137968343Y-103231317D01*
X138231592Y-102968527D01*
X138374238Y-102624999D01*
X138374562Y-102253033D01*
X138232517Y-101909257D01*
X137969727Y-101646008D01*
X137626199Y-101503362D01*
X137254233Y-101503038D01*
X136910457Y-101645083D01*
X136647208Y-101907873D01*
X136596834Y-102029187D01*
X134896964Y-103729056D01*
X134776857Y-103778683D01*
X134513608Y-104041473D01*
X134370962Y-104385001D01*
X134370638Y-104756967D01*
X133660000Y-104756967D01*
X133660000Y-94362463D01*
X133692192Y-94330327D01*
X133834838Y-93986799D01*
X133835162Y-93614833D01*
X133693117Y-93271057D01*
X133430327Y-93007808D01*
X133120404Y-92879116D01*
X132993117Y-92571057D01*
X132730327Y-92307808D01*
X132386799Y-92165162D01*
X132014833Y-92164838D01*
X131671057Y-92306883D01*
X131407808Y-92569673D01*
X131265162Y-92913201D01*
X131264838Y-93285167D01*
X131406883Y-93628943D01*
X131440000Y-93662118D01*
X131440000Y-96269612D01*
X131412956Y-96278231D01*
X131395836Y-96280648D01*
X131388689Y-96280448D01*
X131383661Y-96282367D01*
X131328392Y-96290170D01*
X131264983Y-96312358D01*
X131216913Y-96340714D01*
X131211787Y-96342348D01*
X131206326Y-96346959D01*
X131191431Y-96355746D01*
X131175292Y-96361906D01*
X131168276Y-96363302D01*
X131163799Y-96366294D01*
X131111650Y-96386200D01*
X131054769Y-96421941D01*
X131014209Y-96460288D01*
X131009572Y-96463023D01*
X131005272Y-96468737D01*
X130992716Y-96480607D01*
X130978352Y-96490205D01*
X130971825Y-96493126D01*
X130968127Y-96497037D01*
X130921715Y-96528049D01*
X130874212Y-96575552D01*
X130843201Y-96621964D01*
X130839289Y-96625662D01*
X130836368Y-96632190D01*
X130826771Y-96646553D01*
X130814900Y-96659109D01*
X130809186Y-96663409D01*
X130806451Y-96668046D01*
X130768104Y-96708606D01*
X130732363Y-96765487D01*
X130712456Y-96817638D01*
X130709465Y-96822114D01*
X130708070Y-96829128D01*
X130701908Y-96845271D01*
X130693125Y-96860160D01*
X130688511Y-96865624D01*
X130686876Y-96870753D01*
X130658522Y-96918820D01*
X130636333Y-96982229D01*
X130628530Y-97037498D01*
X130626611Y-97042526D01*
X130626811Y-97049673D01*
X130624394Y-97066793D01*
X130619152Y-97083243D01*
X130615868Y-97089599D01*
X130615415Y-97094966D01*
X130598462Y-97148158D01*
X130590941Y-97214915D01*
X130595632Y-97270525D01*
X130594880Y-97275854D01*
X130596666Y-97282778D01*
X130598119Y-97299999D01*
X130596666Y-97317221D01*
X130594880Y-97324145D01*
X130595632Y-97329474D01*
X130590941Y-97385086D01*
X130598462Y-97451842D01*
X130615416Y-97505038D01*
X130615869Y-97510402D01*
X130619151Y-97516755D01*
X130624395Y-97533208D01*
X130626811Y-97550326D01*
X130626611Y-97557473D01*
X130628530Y-97562501D01*
X130636333Y-97617770D01*
X130658522Y-97681179D01*
X130686876Y-97729245D01*
X130688511Y-97734376D01*
X130693127Y-97739842D01*
X130701908Y-97754728D01*
X130708070Y-97770871D01*
X130709465Y-97777885D01*
X130712456Y-97782361D01*
X130732363Y-97834512D01*
X130768104Y-97891393D01*
X130806451Y-97931953D01*
X130809186Y-97936590D01*
X130814900Y-97940890D01*
X130826771Y-97953446D01*
X130836368Y-97967809D01*
X130839289Y-97974337D01*
X130843201Y-97978035D01*
X130874212Y-98024447D01*
X130921715Y-98071950D01*
X130968127Y-98102962D01*
X130971825Y-98106873D01*
X130978352Y-98109794D01*
X130992716Y-98119392D01*
X131005272Y-98131262D01*
X131009572Y-98136976D01*
X131014209Y-98139711D01*
X131054769Y-98178058D01*
X131111650Y-98213799D01*
X131163799Y-98233705D01*
X131168276Y-98236697D01*
X131175292Y-98238093D01*
X131191431Y-98244253D01*
X131206313Y-98253032D01*
X131211777Y-98257646D01*
X131216906Y-98259281D01*
X131264983Y-98287641D01*
X131328392Y-98309829D01*
X131383661Y-98317632D01*
X131388689Y-98319551D01*
X131395836Y-98319351D01*
X131412949Y-98321766D01*
X131440000Y-98330389D01*
X131440000Y-103270613D01*
X131131852Y-102157295D01*
X131106815Y-102107560D01*
X131094608Y-102053233D01*
X131041555Y-101977925D01*
X131000133Y-101895641D01*
X130957968Y-101859272D01*
X130925901Y-101813753D01*
X128993703Y-99974623D01*
X128909911Y-99921577D01*
X128833595Y-99858248D01*
X128497231Y-99676097D01*
X128172286Y-99495418D01*
X126569280Y-98535585D01*
X125023518Y-97497662D01*
X123549869Y-96393211D01*
X122165730Y-95231006D01*
X121522467Y-94639554D01*
X120910396Y-94039332D01*
X120337363Y-93436471D01*
X119792386Y-92815755D01*
X119259593Y-92168739D01*
X118744209Y-91510712D01*
X118515917Y-91203056D01*
X134114559Y-91572498D01*
X142569597Y-96584766D01*
X142630821Y-96602471D01*
X149920621Y-96805671D01*
X149970291Y-96797046D01*
X150001146Y-96779726D01*
X162462587Y-87281677D01*
X172685486Y-87508852D01*
X172685486Y-87508852D01*
G37*
X172685486Y-87508852D02*
X172426198Y-88003503D01*
X172110765Y-88563952D01*
X171756579Y-89147577D01*
X171382526Y-89725820D01*
X170985825Y-90304533D01*
X170570759Y-90878374D01*
X169679214Y-92021164D01*
X168728661Y-93129959D01*
X167726525Y-94198228D01*
X166679130Y-95217834D01*
X166147688Y-95699959D01*
X165607486Y-96166588D01*
X165177538Y-96521192D01*
X164961846Y-96691556D01*
X166755001Y-94898402D01*
X166903675Y-94675894D01*
X166919748Y-94651839D01*
X166977600Y-94361000D01*
X166977600Y-92703301D01*
X167296747Y-92490054D01*
X167618654Y-92008285D01*
X167731693Y-91440000D01*
X167618654Y-90871715D01*
X167296747Y-90389946D01*
X166956047Y-90162298D01*
X167098958Y-90095183D01*
X167489245Y-89666924D01*
X167659076Y-89256890D01*
X167537755Y-89027000D01*
X166344600Y-89027000D01*
X166344600Y-89047000D01*
X166090600Y-89047000D01*
X166090600Y-89027000D01*
X166070600Y-89027000D01*
X166070600Y-88773000D01*
X166090600Y-88773000D01*
X166090600Y-87579181D01*
X166344600Y-87579181D01*
X166344600Y-88773000D01*
X167537755Y-88773000D01*
X167659076Y-88543110D01*
X167489245Y-88133076D01*
X167098958Y-87704817D01*
X166574492Y-87458514D01*
X166344600Y-87579181D01*
X166090600Y-87579181D01*
X165860708Y-87458514D01*
X165336242Y-87704817D01*
X165148792Y-87910504D01*
X165130762Y-87814683D01*
X164991690Y-87598559D01*
X164779490Y-87453569D01*
X164527600Y-87402560D01*
X162827600Y-87402560D01*
X162592283Y-87446838D01*
X162376159Y-87585910D01*
X162231169Y-87798110D01*
X162187248Y-88015000D01*
X162102805Y-88015000D01*
X162102800Y-88014999D01*
X161764125Y-88082367D01*
X161477010Y-88274210D01*
X161477008Y-88274213D01*
X160283210Y-89468010D01*
X160091367Y-89755125D01*
X160085317Y-89785541D01*
X160023999Y-90093800D01*
X160024000Y-90093805D01*
X160024000Y-92259685D01*
X158654391Y-93629293D01*
X158361633Y-93629038D01*
X158017857Y-93771083D01*
X157754608Y-94033873D01*
X157611962Y-94377401D01*
X157611638Y-94749367D01*
X157753683Y-95093143D01*
X158016473Y-95356392D01*
X158360001Y-95499038D01*
X158731967Y-95499362D01*
X158853369Y-95449200D01*
X158971059Y-95449200D01*
X158971064Y-95449201D01*
X159270058Y-95389726D01*
X159309739Y-95381833D01*
X159596854Y-95189990D01*
X161534787Y-93252056D01*
X161534790Y-93252054D01*
X161726633Y-92964939D01*
X161794000Y-92626264D01*
X161794000Y-90460380D01*
X162241910Y-90012469D01*
X162363510Y-90201441D01*
X162575710Y-90346431D01*
X162643141Y-90360086D01*
X162598453Y-90389946D01*
X162276546Y-90871715D01*
X162163507Y-91440000D01*
X162236390Y-91806408D01*
X162047999Y-91994799D01*
X161883252Y-92241361D01*
X161825400Y-92532200D01*
X161825400Y-98491198D01*
X160035398Y-100281200D01*
X159410400Y-100281200D01*
X159282707Y-100306600D01*
X157204263Y-100306600D01*
X157172127Y-100274408D01*
X156828599Y-100131762D01*
X156456633Y-100131438D01*
X156112857Y-100273483D01*
X155849608Y-100536273D01*
X155706962Y-100879801D01*
X155706638Y-101251767D01*
X155848683Y-101595543D01*
X155979932Y-101727021D01*
X155824208Y-101882473D01*
X155681562Y-102226001D01*
X155681238Y-102597967D01*
X155823283Y-102941743D01*
X156086073Y-103204992D01*
X156429601Y-103347638D01*
X156801567Y-103347962D01*
X157145343Y-103205917D01*
X157178518Y-103172800D01*
X159258512Y-103172800D01*
X159126208Y-103304873D01*
X158983562Y-103648401D01*
X158983238Y-104020367D01*
X159013638Y-104093941D01*
X158895033Y-104093838D01*
X158551257Y-104235883D01*
X158288008Y-104498673D01*
X158152132Y-104825897D01*
X158043257Y-104870883D01*
X157780008Y-105133673D01*
X157662124Y-105417568D01*
X157509857Y-105480483D01*
X157246608Y-105743273D01*
X157103962Y-106086801D01*
X157103638Y-106458767D01*
X157245683Y-106802543D01*
X157508473Y-107065792D01*
X157852001Y-107208438D01*
X157967951Y-107208539D01*
X158170254Y-107410842D01*
X157932408Y-107648273D01*
X157789762Y-107991801D01*
X157789661Y-108107751D01*
X157464812Y-108432600D01*
X154876798Y-108432600D01*
X154805765Y-108385137D01*
X154789114Y-108381825D01*
X154657527Y-108250008D01*
X154313999Y-108107362D01*
X153942033Y-108107038D01*
X153598257Y-108249083D01*
X153516197Y-108331000D01*
X152465989Y-108331000D01*
X151699043Y-107564055D01*
X152051767Y-107564362D01*
X152395543Y-107422317D01*
X152658792Y-107159527D01*
X152801438Y-106815999D01*
X152801762Y-106444033D01*
X152659717Y-106100257D01*
X152527000Y-105967308D01*
X152527000Y-101081788D01*
X152826326Y-100782462D01*
X152940767Y-100782562D01*
X153284543Y-100640517D01*
X153547792Y-100377727D01*
X153690438Y-100034199D01*
X153690762Y-99662233D01*
X153548717Y-99318457D01*
X153285927Y-99055208D01*
X152942399Y-98912562D01*
X152570433Y-98912238D01*
X152226657Y-99054283D01*
X151963408Y-99317073D01*
X151820762Y-99660601D01*
X151820661Y-99776551D01*
X151312906Y-100284306D01*
X151158737Y-100515035D01*
X151115283Y-100733491D01*
X151104600Y-100787200D01*
X151104600Y-106068734D01*
X151074408Y-106098873D01*
X150931762Y-106442401D01*
X150931438Y-106814367D01*
X150990198Y-106956577D01*
X150749000Y-106908600D01*
X144373600Y-106908600D01*
X144146590Y-106953755D01*
X144101435Y-106962737D01*
X143870706Y-107116906D01*
X140997106Y-109990506D01*
X140842937Y-110221235D01*
X140788800Y-110493400D01*
X140788800Y-113502560D01*
X140650000Y-113502560D01*
X140460000Y-113538311D01*
X140460000Y-101759767D01*
X148340638Y-101759767D01*
X148482683Y-102103543D01*
X148745473Y-102366792D01*
X148771800Y-102377724D01*
X148771800Y-105613195D01*
X148771799Y-105613200D01*
X148821308Y-105862094D01*
X148839167Y-105951875D01*
X148970802Y-106148882D01*
X149041483Y-106319943D01*
X149304273Y-106583192D01*
X149647801Y-106725838D01*
X150019767Y-106726162D01*
X150363543Y-106584117D01*
X150626792Y-106321327D01*
X150769438Y-105977799D01*
X150769762Y-105605833D01*
X150627717Y-105262057D01*
X150541800Y-105175990D01*
X150541800Y-101955600D01*
X150474433Y-101616925D01*
X150282590Y-101329810D01*
X150282587Y-101329808D01*
X150118545Y-101165765D01*
X150068917Y-101045657D01*
X149806127Y-100782408D01*
X149462599Y-100639762D01*
X149090633Y-100639438D01*
X148746857Y-100781483D01*
X148483608Y-101044273D01*
X148340962Y-101387801D01*
X148340638Y-101759767D01*
X140460000Y-101759767D01*
X140460000Y-100873402D01*
X142046802Y-99286600D01*
X144903337Y-99286600D01*
X144935473Y-99318792D01*
X145279001Y-99461438D01*
X145650967Y-99461762D01*
X145994743Y-99319717D01*
X146257992Y-99056927D01*
X146400638Y-98713399D01*
X146400962Y-98341433D01*
X146258917Y-97997657D01*
X145996127Y-97734408D01*
X145652599Y-97591762D01*
X145280633Y-97591438D01*
X144936857Y-97733483D01*
X144903682Y-97766600D01*
X141732000Y-97766600D01*
X141441161Y-97824452D01*
X141194599Y-97989199D01*
X139162599Y-100021199D01*
X138997852Y-100267761D01*
X138940000Y-100558600D01*
X138940000Y-118969937D01*
X138907808Y-119002073D01*
X138845091Y-119153111D01*
X138840944Y-119148964D01*
X138791317Y-119028857D01*
X138528527Y-118765608D01*
X138184999Y-118622962D01*
X137813033Y-118622638D01*
X137469257Y-118764683D01*
X137206008Y-119027473D01*
X137063362Y-119371001D01*
X137063038Y-119742967D01*
X137205083Y-120086743D01*
X137467873Y-120349992D01*
X137589186Y-120400366D01*
X138413808Y-121224987D01*
X138413810Y-121224990D01*
X138700925Y-121416833D01*
X138757116Y-121428010D01*
X139039600Y-121484201D01*
X139039605Y-121484200D01*
X140207995Y-121484200D01*
X140208000Y-121484201D01*
X140490484Y-121428010D01*
X140546675Y-121416833D01*
X140833790Y-121224990D01*
X141658235Y-120400545D01*
X141778343Y-120350917D01*
X142041592Y-120088127D01*
X142184238Y-119744599D01*
X142184502Y-119441419D01*
X142211200Y-119307200D01*
X142211200Y-116631923D01*
X142295906Y-116758694D01*
X142488800Y-116951588D01*
X142488800Y-118488822D01*
X142407808Y-118569673D01*
X142265162Y-118913201D01*
X142264838Y-119285167D01*
X142406883Y-119628943D01*
X142669673Y-119892192D01*
X143013201Y-120034838D01*
X143385167Y-120035162D01*
X143728943Y-119893117D01*
X143992192Y-119630327D01*
X144134838Y-119286799D01*
X144135162Y-118914833D01*
X143993117Y-118571057D01*
X143911200Y-118488997D01*
X143911200Y-116657000D01*
X143857063Y-116384836D01*
X143839694Y-116358841D01*
X143913000Y-116320155D01*
X143913000Y-115127000D01*
X143893000Y-115127000D01*
X143893000Y-114873000D01*
X143913000Y-114873000D01*
X143913000Y-113679845D01*
X143683110Y-113558524D01*
X143510000Y-113630224D01*
X143510000Y-111038588D01*
X144520526Y-110028062D01*
X144634967Y-110028162D01*
X144978743Y-109886117D01*
X145241992Y-109623327D01*
X145384638Y-109279799D01*
X145384962Y-108907833D01*
X145242917Y-108564057D01*
X145010266Y-108331000D01*
X150454412Y-108331000D01*
X151668505Y-109545094D01*
X151785590Y-109623327D01*
X151899236Y-109699263D01*
X152171400Y-109753400D01*
X153516022Y-109753400D01*
X153596873Y-109834392D01*
X153940401Y-109977038D01*
X154312367Y-109977362D01*
X154617181Y-109851416D01*
X154635200Y-109855000D01*
X154747012Y-109855000D01*
X154863800Y-109971789D01*
X154863800Y-113662767D01*
X154768285Y-113598946D01*
X154200000Y-113485907D01*
X153834950Y-113558520D01*
X153835162Y-113314833D01*
X153693117Y-112971057D01*
X153430327Y-112707808D01*
X153086799Y-112565162D01*
X152714833Y-112564838D01*
X152371057Y-112706883D01*
X152107808Y-112969673D01*
X151965162Y-113313201D01*
X151964959Y-113546567D01*
X151660000Y-113485907D01*
X151091715Y-113598946D01*
X150841162Y-113766360D01*
X150335122Y-113260320D01*
X150335162Y-113214833D01*
X150193117Y-112871057D01*
X149930327Y-112607808D01*
X149586799Y-112465162D01*
X149214833Y-112464838D01*
X148871057Y-112606883D01*
X148607808Y-112869673D01*
X148573761Y-112951667D01*
X148330327Y-112707808D01*
X147986799Y-112565162D01*
X147614833Y-112564838D01*
X147271057Y-112706883D01*
X147007808Y-112969673D01*
X146865162Y-113313201D01*
X146864962Y-113542590D01*
X146580000Y-113485907D01*
X146011715Y-113598946D01*
X146011199Y-113599291D01*
X146011199Y-113174999D01*
X145957062Y-112902835D01*
X145935005Y-112869825D01*
X145935162Y-112689833D01*
X145793117Y-112346057D01*
X145530327Y-112082808D01*
X145186799Y-111940162D01*
X144814833Y-111939838D01*
X144471057Y-112081883D01*
X144207808Y-112344673D01*
X144065162Y-112688201D01*
X144064838Y-113060167D01*
X144206883Y-113403943D01*
X144373511Y-113570862D01*
X144167000Y-113679845D01*
X144167000Y-114873000D01*
X144187000Y-114873000D01*
X144187000Y-115127000D01*
X144167000Y-115127000D01*
X144167000Y-116320155D01*
X144396890Y-116441476D01*
X144806924Y-116271645D01*
X144960004Y-116132138D01*
X144988306Y-116174494D01*
X145150631Y-116336819D01*
X145114657Y-116351683D01*
X144851408Y-116614473D01*
X144708762Y-116958001D01*
X144708438Y-117329967D01*
X144850483Y-117673743D01*
X144907000Y-117730359D01*
X144907000Y-128090622D01*
X144826008Y-128171473D01*
X144683362Y-128515001D01*
X144683038Y-128886967D01*
X144825083Y-129230743D01*
X145087873Y-129493992D01*
X145431401Y-129636638D01*
X145803367Y-129636962D01*
X146147143Y-129494917D01*
X146410392Y-129232127D01*
X146540168Y-128919594D01*
X146807543Y-128809117D01*
X147070792Y-128546327D01*
X147213438Y-128202799D01*
X147213762Y-127830833D01*
X147071717Y-127487057D01*
X146808927Y-127223808D01*
X146659600Y-127161802D01*
X146659600Y-124613892D01*
X146789673Y-124744192D01*
X147133201Y-124886838D01*
X147505167Y-124887162D01*
X147848943Y-124745117D01*
X148112192Y-124482327D01*
X148254838Y-124138799D01*
X148255162Y-123766833D01*
X148113117Y-123423057D01*
X148031200Y-123340997D01*
X148031200Y-122994998D01*
X147977063Y-122722834D01*
X147919759Y-122637073D01*
X147822894Y-122492103D01*
X147465917Y-122135127D01*
X147314894Y-121909105D01*
X147311200Y-121905411D01*
X147311200Y-119708788D01*
X148559494Y-118460495D01*
X148686399Y-118270567D01*
X148713663Y-118229764D01*
X148765147Y-117970935D01*
X149288800Y-118494588D01*
X149288800Y-120045100D01*
X149217633Y-120045038D01*
X148873857Y-120187083D01*
X148610608Y-120449873D01*
X148483043Y-120757083D01*
X148264257Y-120847483D01*
X148001008Y-121110273D01*
X147858362Y-121453801D01*
X147858038Y-121825767D01*
X148000083Y-122169543D01*
X148262873Y-122432792D01*
X148412198Y-122494797D01*
X148412198Y-127010958D01*
X147452104Y-127971052D01*
X147297935Y-128201781D01*
X147278326Y-128300362D01*
X147243798Y-128473946D01*
X147243798Y-129880414D01*
X146995274Y-130128938D01*
X146880833Y-130128838D01*
X146537057Y-130270883D01*
X146273808Y-130533673D01*
X146131162Y-130877201D01*
X146130838Y-131249167D01*
X146272883Y-131592943D01*
X146535673Y-131856192D01*
X146879201Y-131998838D01*
X147251167Y-131999162D01*
X147259476Y-131995729D01*
X147297673Y-132033992D01*
X147451651Y-132097930D01*
X147451638Y-132112767D01*
X147593683Y-132456543D01*
X147856473Y-132719792D01*
X148080492Y-132812813D01*
X148061562Y-132858401D01*
X148061238Y-133230367D01*
X148203283Y-133574143D01*
X148466073Y-133837392D01*
X148620294Y-133901431D01*
X148620038Y-134195567D01*
X148762083Y-134539343D01*
X149024873Y-134802592D01*
X149368401Y-134945238D01*
X149740367Y-134945562D01*
X150084143Y-134803517D01*
X150196794Y-134691062D01*
X151274824Y-134691062D01*
X151278235Y-134948043D01*
X151381358Y-135183450D01*
X151567942Y-135360189D01*
X153264038Y-136420027D01*
X153487062Y-136507176D01*
X153744043Y-136503765D01*
X153979450Y-136400642D01*
X153987959Y-136391659D01*
X154098024Y-136465201D01*
X154118725Y-136479033D01*
X154457400Y-136546401D01*
X154457405Y-136546400D01*
X155894220Y-136546400D01*
X156408655Y-137060835D01*
X156458283Y-137180943D01*
X156721073Y-137444192D01*
X157064601Y-137586838D01*
X157436567Y-137587162D01*
X157780343Y-137445117D01*
X158043592Y-137182327D01*
X158186238Y-136838799D01*
X158186562Y-136466833D01*
X158044517Y-136123057D01*
X157781727Y-135859808D01*
X157660413Y-135809434D01*
X156886590Y-135035610D01*
X156755536Y-134948043D01*
X156599475Y-134843767D01*
X156538680Y-134831674D01*
X156260800Y-134776399D01*
X156260795Y-134776400D01*
X155054537Y-134776400D01*
X155216027Y-134517962D01*
X155303176Y-134294938D01*
X155299765Y-134037957D01*
X155196642Y-133802550D01*
X155010058Y-133625811D01*
X153313962Y-132565973D01*
X153090938Y-132478824D01*
X152833957Y-132482235D01*
X152598550Y-132585358D01*
X152421811Y-132771942D01*
X151361973Y-134468038D01*
X151274824Y-134691062D01*
X150196794Y-134691062D01*
X150347392Y-134540727D01*
X150490038Y-134197199D01*
X150490362Y-133825233D01*
X150348317Y-133481457D01*
X150266400Y-133399397D01*
X150266400Y-133148381D01*
X150345673Y-133227792D01*
X150689201Y-133370438D01*
X151061167Y-133370762D01*
X151404943Y-133228717D01*
X151668192Y-132965927D01*
X151810838Y-132622399D01*
X151811107Y-132313355D01*
X152116143Y-132187317D01*
X152198203Y-132105400D01*
X154127200Y-132105400D01*
X154399365Y-132051263D01*
X154630094Y-131897094D01*
X154704357Y-131822831D01*
X154706883Y-131828943D01*
X154969673Y-132092192D01*
X155313201Y-132234838D01*
X155446121Y-132234954D01*
X155446628Y-132460792D01*
X155367008Y-132540273D01*
X155224362Y-132883801D01*
X155224038Y-133255767D01*
X155366083Y-133599543D01*
X155628873Y-133862792D01*
X155972401Y-134005438D01*
X156344367Y-134005762D01*
X156688143Y-133863717D01*
X156951392Y-133600927D01*
X157094038Y-133257399D01*
X157094362Y-132885433D01*
X156958955Y-132557723D01*
X157233367Y-132557962D01*
X157577143Y-132415917D01*
X157840392Y-132153127D01*
X157983038Y-131809599D01*
X157983362Y-131437633D01*
X157841317Y-131093857D01*
X157762713Y-131015115D01*
X157779591Y-127909508D01*
X158071567Y-127909762D01*
X158415343Y-127767717D01*
X158678592Y-127504927D01*
X158821238Y-127161399D01*
X158821562Y-126789433D01*
X158679517Y-126445657D01*
X158597600Y-126363597D01*
X158597600Y-122758200D01*
X158560146Y-122569905D01*
X158651473Y-122661392D01*
X158995001Y-122804038D01*
X159366967Y-122804362D01*
X159710743Y-122662317D01*
X159973992Y-122399527D01*
X160116638Y-122055999D01*
X160116962Y-121684033D01*
X160020000Y-121449366D01*
X160020000Y-120168978D01*
X160100992Y-120088127D01*
X160243638Y-119744599D01*
X160243962Y-119372633D01*
X160101917Y-119028857D01*
X159839127Y-118765608D01*
X159495599Y-118622962D01*
X159411200Y-118622888D01*
X159411200Y-116960000D01*
X159357063Y-116687836D01*
X159308968Y-116615857D01*
X159202895Y-116457106D01*
X158150320Y-115404532D01*
X158225000Y-115029093D01*
X158225000Y-114970907D01*
X158111961Y-114402622D01*
X157790054Y-113920853D01*
X157308285Y-113598946D01*
X156740000Y-113485907D01*
X156286200Y-113576174D01*
X156286200Y-109855000D01*
X157759400Y-109855000D01*
X158031565Y-109800863D01*
X158262294Y-109646694D01*
X158795326Y-109113662D01*
X158811412Y-109113676D01*
X158842937Y-109272165D01*
X158997106Y-109502894D01*
X160888801Y-111394589D01*
X160888801Y-115880001D01*
X160942938Y-116152166D01*
X161006131Y-116246740D01*
X160782808Y-116469673D01*
X160743282Y-116564863D01*
X160714833Y-116564838D01*
X160371057Y-116706883D01*
X160107808Y-116969673D01*
X159965162Y-117313201D01*
X159964838Y-117685167D01*
X160106883Y-118028943D01*
X160188800Y-118111003D01*
X160188800Y-118329600D01*
X160242937Y-118601765D01*
X160397106Y-118832494D01*
X161190587Y-119625975D01*
X161117162Y-119802801D01*
X161116838Y-120174767D01*
X161258883Y-120518543D01*
X161521673Y-120781792D01*
X161865201Y-120924438D01*
X162237167Y-120924762D01*
X162580943Y-120782717D01*
X162844192Y-120519927D01*
X162956815Y-120248701D01*
X163139743Y-120173117D01*
X163402992Y-119910327D01*
X163484892Y-119713091D01*
X163723943Y-119614317D01*
X163987192Y-119351527D01*
X164074353Y-119141622D01*
X164282743Y-119055517D01*
X164545992Y-118792727D01*
X164633153Y-118582822D01*
X164841543Y-118496717D01*
X165104792Y-118233927D01*
X165247438Y-117890399D01*
X165247443Y-117884589D01*
X165425743Y-117810917D01*
X165688992Y-117548127D01*
X165831638Y-117204599D01*
X165831962Y-116832633D01*
X165689917Y-116488857D01*
X165561612Y-116360328D01*
X165555978Y-116332000D01*
X167624507Y-116332000D01*
X167737546Y-116900285D01*
X168059453Y-117382054D01*
X168388626Y-117602000D01*
X168059453Y-117821946D01*
X167737546Y-118303715D01*
X167624507Y-118872000D01*
X167737546Y-119440285D01*
X168059453Y-119922054D01*
X168541222Y-120243961D01*
X169109507Y-120357000D01*
X169167693Y-120357000D01*
X169735978Y-120243961D01*
X170217747Y-119922054D01*
X170408600Y-119636422D01*
X170599453Y-119922054D01*
X171081222Y-120243961D01*
X171649507Y-120357000D01*
X171707693Y-120357000D01*
X172275978Y-120243961D01*
X172757747Y-119922054D01*
X173079654Y-119440285D01*
X173192693Y-118872000D01*
X173079654Y-118303715D01*
X172757747Y-117821946D01*
X172428574Y-117602000D01*
X172757747Y-117382054D01*
X173079654Y-116900285D01*
X173192693Y-116332000D01*
X173079654Y-115763715D01*
X172757747Y-115281946D01*
X172417047Y-115054298D01*
X172559958Y-114987183D01*
X172950245Y-114558924D01*
X173120076Y-114148890D01*
X172998755Y-113919000D01*
X171805600Y-113919000D01*
X171805600Y-113939000D01*
X171551600Y-113939000D01*
X171551600Y-113919000D01*
X171531600Y-113919000D01*
X171531600Y-113665000D01*
X171551600Y-113665000D01*
X171551600Y-112471181D01*
X171805600Y-112471181D01*
X171805600Y-113665000D01*
X172998755Y-113665000D01*
X173120076Y-113435110D01*
X172950245Y-113025076D01*
X172559958Y-112596817D01*
X172035492Y-112350514D01*
X171805600Y-112471181D01*
X171551600Y-112471181D01*
X171321708Y-112350514D01*
X170797242Y-112596817D01*
X170609792Y-112802504D01*
X170591762Y-112706683D01*
X170452690Y-112490559D01*
X170240490Y-112345569D01*
X169988600Y-112294560D01*
X168288600Y-112294560D01*
X168053283Y-112338838D01*
X167837159Y-112477910D01*
X167692169Y-112690110D01*
X167641160Y-112942000D01*
X167641160Y-114642000D01*
X167685438Y-114877317D01*
X167824510Y-115093441D01*
X168036710Y-115238431D01*
X168104141Y-115252086D01*
X168059453Y-115281946D01*
X167737546Y-115763715D01*
X167624507Y-116332000D01*
X165555978Y-116332000D01*
X165553863Y-116321371D01*
X165399694Y-116090642D01*
X163677600Y-114368548D01*
X163677600Y-110540800D01*
X163659958Y-110452110D01*
X163623463Y-110268635D01*
X163469294Y-110037906D01*
X162511602Y-109080214D01*
X162456384Y-108987965D01*
X162441992Y-108977278D01*
X162432032Y-108962372D01*
X162393240Y-108936452D01*
X161772600Y-108315812D01*
X161772600Y-106502200D01*
X161718463Y-106230036D01*
X161718463Y-106230035D01*
X161564294Y-105999306D01*
X160629600Y-105064612D01*
X160629600Y-104446378D01*
X160710592Y-104365527D01*
X160853238Y-104021999D01*
X160853562Y-103650033D01*
X160711517Y-103306257D01*
X160448727Y-103043008D01*
X160304768Y-102983231D01*
X160354201Y-102950201D01*
X163478932Y-99825470D01*
X163478932Y-107420191D01*
X163494022Y-107496054D01*
X163494731Y-107573401D01*
X163829123Y-109177540D01*
X163831168Y-109182353D01*
X163831288Y-109187586D01*
X163888387Y-109316990D01*
X163943700Y-109447142D01*
X163947434Y-109450809D01*
X163949546Y-109455594D01*
X164856424Y-110747902D01*
X164857251Y-110748693D01*
X164857717Y-110749739D01*
X164963106Y-110849816D01*
X165068242Y-110950254D01*
X165069310Y-110950668D01*
X165070140Y-110951456D01*
X166405059Y-111794355D01*
X166409940Y-111796231D01*
X166413784Y-111799782D01*
X166546507Y-111848706D01*
X166678505Y-111899427D01*
X166683735Y-111899292D01*
X166688643Y-111901101D01*
X168307158Y-112157017D01*
X168382996Y-112154018D01*
X168458025Y-112165477D01*
X168519096Y-112162740D01*
X168578771Y-112160666D01*
X168638663Y-112158845D01*
X168687780Y-112157780D01*
X169127735Y-112163242D01*
X169571011Y-112195114D01*
X169712852Y-112211049D01*
X169870139Y-112232154D01*
X169911106Y-112229571D01*
X169951155Y-112238587D01*
X170627224Y-112255549D01*
X170718188Y-112239816D01*
X170810474Y-112237560D01*
X171470338Y-112089455D01*
X171551866Y-112053326D01*
X171638002Y-112030243D01*
X171660833Y-112018983D01*
X171661020Y-112018840D01*
X171661246Y-112018779D01*
X171684558Y-112007264D01*
X171684929Y-112006979D01*
X171685381Y-112006857D01*
X171843262Y-111928631D01*
X171844029Y-111928040D01*
X171844961Y-111927786D01*
X172007704Y-111846638D01*
X172009920Y-111844922D01*
X172012619Y-111844165D01*
X172380666Y-111657267D01*
X172382158Y-111656094D01*
X172383981Y-111655573D01*
X172758440Y-111463076D01*
X172759702Y-111462073D01*
X172761253Y-111461623D01*
X173159545Y-111254746D01*
X173160668Y-111253846D01*
X173162047Y-111253440D01*
X173582882Y-111032841D01*
X173584440Y-111031583D01*
X173586362Y-111031006D01*
X174479995Y-110556585D01*
X174481781Y-110555128D01*
X174483987Y-110554451D01*
X175445329Y-110036632D01*
X175446834Y-110035389D01*
X175448696Y-110034807D01*
X176478258Y-109473447D01*
X176479562Y-109472358D01*
X176481186Y-109471843D01*
X177576018Y-108868565D01*
X177577177Y-108867589D01*
X177578619Y-108867125D01*
X178735135Y-108223876D01*
X178736169Y-108222998D01*
X178737459Y-108222578D01*
X179952979Y-107540859D01*
X179953911Y-107540062D01*
X179955075Y-107539679D01*
X181227160Y-106820867D01*
X181228011Y-106820134D01*
X181229077Y-106819780D01*
X182555354Y-106065200D01*
X182556139Y-106064520D01*
X182557123Y-106064190D01*
X183935230Y-105275165D01*
X183935961Y-105274529D01*
X183936877Y-105274219D01*
X185364462Y-104452063D01*
X185365147Y-104451463D01*
X185366008Y-104451170D01*
X186840379Y-103597394D01*
X186841025Y-103596826D01*
X186841838Y-103596547D01*
X188358981Y-102713445D01*
X188359445Y-102713035D01*
X188360028Y-102712834D01*
X189133756Y-102260785D01*
X189134058Y-102260517D01*
X189134437Y-102260386D01*
X189920073Y-101800270D01*
X189920369Y-101800007D01*
X189920741Y-101799878D01*
X190718366Y-101331636D01*
X190718653Y-101331381D01*
X190719016Y-101331254D01*
X191519837Y-100860053D01*
X191519921Y-100859978D01*
X191520027Y-100859941D01*
X192122453Y-100505238D01*
X192717494Y-100154976D01*
X192717497Y-100154975D01*
X193288255Y-99819105D01*
X193288256Y-99819104D01*
X193835585Y-99497128D01*
X193835587Y-99497127D01*
X194875101Y-98885956D01*
X195841569Y-98318248D01*
X195841573Y-98318247D01*
X196734831Y-97794138D01*
X196734832Y-97794137D01*
X197555826Y-97313101D01*
X197555828Y-97313100D01*
X198309438Y-96872311D01*
X198995836Y-96471697D01*
X200179802Y-95783647D01*
X201124558Y-95239317D01*
X201512149Y-95018242D01*
X201849985Y-94827436D01*
X201999992Y-94743533D01*
X202136832Y-94667566D01*
X202259609Y-94600045D01*
X202379888Y-94534701D01*
X202390456Y-94525907D01*
X202403431Y-94521356D01*
X202683197Y-94356039D01*
X202705622Y-94335968D01*
X202733141Y-94323792D01*
X202994976Y-94139654D01*
X203016720Y-94116847D01*
X203044382Y-94101752D01*
X203275507Y-93908701D01*
X203295704Y-93883652D01*
X203322545Y-93865903D01*
X203517174Y-93673131D01*
X203536252Y-93644874D01*
X203562890Y-93623592D01*
X203717302Y-93440407D01*
X203735607Y-93407218D01*
X203762709Y-93380727D01*
X203874424Y-93217591D01*
X203887773Y-93186376D01*
X203909835Y-93160571D01*
X203948939Y-93090828D01*
X203955031Y-93072113D01*
X203967031Y-93056512D01*
X203994238Y-93001507D01*
X203999609Y-92981556D01*
X204011300Y-92964520D01*
X204027273Y-92927269D01*
X204034499Y-92893157D01*
X204051509Y-92862714D01*
X204062065Y-92830120D01*
X204062575Y-92825779D01*
X204064663Y-92821939D01*
X204199810Y-92387767D01*
X204361200Y-92005118D01*
X204562425Y-91647959D01*
X204833425Y-91300411D01*
X204981731Y-91153348D01*
X205163254Y-91007123D01*
X205371788Y-90876096D01*
X205621496Y-90762107D01*
X205738524Y-90723295D01*
X205873693Y-90689488D01*
X206011802Y-90666282D01*
X206161374Y-90653811D01*
X206228184Y-90652545D01*
X206302402Y-90653777D01*
X206368251Y-90657423D01*
X206444324Y-90665419D01*
X206485147Y-90671077D01*
X206521686Y-90676571D01*
X206527746Y-90677542D01*
X206530389Y-90678570D01*
X206530406Y-90678573D01*
X206532199Y-90678534D01*
X206533872Y-90679176D01*
X206551793Y-90682252D01*
X206552668Y-90682229D01*
X206559425Y-90683806D01*
X206560393Y-90683838D01*
X206561279Y-90684237D01*
X206579624Y-90688470D01*
X206582883Y-90688569D01*
X206585055Y-90689534D01*
X206590941Y-90690861D01*
X206609210Y-90695194D01*
X206631944Y-90700826D01*
X206685483Y-90715559D01*
X206730849Y-90729837D01*
X206848482Y-90774207D01*
X206964497Y-90828882D01*
X207080714Y-90896658D01*
X207177463Y-90965857D01*
X207391621Y-91171509D01*
X207549483Y-91383921D01*
X207652964Y-91581377D01*
X207720008Y-91765928D01*
X207764427Y-91935549D01*
X207792932Y-92090162D01*
X207811915Y-92237222D01*
X207824198Y-92379981D01*
X207838402Y-92699676D01*
X207841560Y-93012453D01*
X207806591Y-93667301D01*
X207690931Y-94287030D01*
X207476201Y-94898672D01*
X207166607Y-95478594D01*
X206770930Y-96003909D01*
X206291201Y-96491519D01*
X206036869Y-96712198D01*
X205755349Y-96935241D01*
X205452667Y-97156849D01*
X205130374Y-97377517D01*
X205057074Y-97427035D01*
X205057072Y-97427036D01*
X204976295Y-97481597D01*
X204976293Y-97481598D01*
X204877012Y-97548643D01*
X204877010Y-97548644D01*
X204760349Y-97627403D01*
X204487279Y-97811685D01*
X204487280Y-97811685D01*
X204163603Y-98030003D01*
X204163601Y-98030005D01*
X203791033Y-98281152D01*
X203373077Y-98562724D01*
X202914409Y-98871520D01*
X202418827Y-99204924D01*
X201330445Y-99936269D01*
X201330444Y-99936270D01*
X200140126Y-100734679D01*
X199516730Y-101152183D01*
X198877624Y-101579710D01*
X198877623Y-101579710D01*
X198226418Y-102014778D01*
X197572317Y-102451172D01*
X197572315Y-102451173D01*
X197234438Y-102676474D01*
X197234383Y-102676528D01*
X197234312Y-102676558D01*
X196893086Y-102904193D01*
X196893040Y-102904239D01*
X196892977Y-102904265D01*
X196540493Y-103139498D01*
X196540452Y-103139539D01*
X196540397Y-103139562D01*
X196177826Y-103381607D01*
X196177765Y-103381668D01*
X196177688Y-103381700D01*
X195432135Y-103879655D01*
X195432067Y-103879723D01*
X195431980Y-103879759D01*
X194663799Y-104393105D01*
X194663742Y-104393162D01*
X194663667Y-104393193D01*
X193877249Y-104918967D01*
X193877198Y-104919018D01*
X193877130Y-104919046D01*
X193078622Y-105453124D01*
X193078578Y-105453168D01*
X193078518Y-105453193D01*
X192274405Y-105991213D01*
X192274366Y-105991252D01*
X192274313Y-105991274D01*
X191470640Y-106529170D01*
X191470603Y-106529207D01*
X191470557Y-106529226D01*
X190673254Y-107063013D01*
X190673222Y-107063045D01*
X190673179Y-107063063D01*
X189888132Y-107588781D01*
X189888102Y-107588811D01*
X189888063Y-107588827D01*
X189121297Y-108102427D01*
X189121270Y-108102454D01*
X189121231Y-108102470D01*
X188379362Y-108599507D01*
X188379337Y-108599532D01*
X188379303Y-108599546D01*
X187668512Y-109075858D01*
X187668486Y-109075884D01*
X187668453Y-109075898D01*
X186992601Y-109528890D01*
X186992581Y-109528910D01*
X186992555Y-109528921D01*
X186669398Y-109745552D01*
X186669387Y-109745563D01*
X186669373Y-109745569D01*
X186360044Y-109952949D01*
X186360031Y-109952962D01*
X186360016Y-109952968D01*
X186065808Y-110150230D01*
X186065795Y-110150243D01*
X186065778Y-110150250D01*
X185777514Y-110343546D01*
X185207338Y-110722286D01*
X184631193Y-111104460D01*
X184042928Y-111494126D01*
X183446240Y-111888803D01*
X182255776Y-112674348D01*
X181097224Y-113436021D01*
X180540224Y-113800993D01*
X180002148Y-114152625D01*
X179488944Y-114486955D01*
X179005294Y-114800859D01*
X178554343Y-115092203D01*
X178138881Y-115359037D01*
X177945254Y-115482709D01*
X177765483Y-115597042D01*
X177598155Y-115702922D01*
X177434669Y-115805699D01*
X177434340Y-115806010D01*
X177433918Y-115806172D01*
X177111205Y-116009581D01*
X177110795Y-116009970D01*
X177110267Y-116010173D01*
X176795084Y-116209487D01*
X176794499Y-116210043D01*
X176793746Y-116210335D01*
X176503242Y-116394901D01*
X176502444Y-116395663D01*
X176501418Y-116396064D01*
X176234235Y-116566896D01*
X176232657Y-116568411D01*
X176230625Y-116569219D01*
X175750675Y-116879971D01*
X175747710Y-116882852D01*
X175743884Y-116884420D01*
X175335828Y-117154930D01*
X175331375Y-117159351D01*
X175325609Y-117161826D01*
X174990659Y-117391876D01*
X174984113Y-117398591D01*
X174975589Y-117402501D01*
X174709555Y-117595002D01*
X174702877Y-117602198D01*
X174694064Y-117606518D01*
X174585928Y-117689082D01*
X174581382Y-117694240D01*
X174575266Y-117697376D01*
X174486913Y-117767387D01*
X174481461Y-117773803D01*
X174474054Y-117777809D01*
X174406033Y-117834194D01*
X174398260Y-117843760D01*
X174387614Y-117849971D01*
X174326871Y-117903726D01*
X174264895Y-117985250D01*
X174193632Y-118058813D01*
X174176977Y-118100900D01*
X174149587Y-118136929D01*
X174123525Y-118235971D01*
X174085841Y-118331198D01*
X174056629Y-118491299D01*
X174024140Y-118631172D01*
X173987863Y-118762270D01*
X173949191Y-118884052D01*
X173853947Y-119143992D01*
X173746270Y-119396887D01*
X173625818Y-119646937D01*
X173491479Y-119895258D01*
X173342467Y-120141476D01*
X173181090Y-120378096D01*
X173015762Y-120592435D01*
X172833984Y-120796548D01*
X172622237Y-121005075D01*
X172377905Y-121220731D01*
X172099596Y-121445084D01*
X171776860Y-121687370D01*
X171398604Y-121957258D01*
X170955962Y-122261299D01*
X170439385Y-122606187D01*
X169839973Y-122998115D01*
X169148242Y-123443624D01*
X168355798Y-123948427D01*
X167919096Y-124224895D01*
X167454152Y-124518257D01*
X167454150Y-124518258D01*
X166960686Y-124828744D01*
X166435166Y-125158632D01*
X165878379Y-125507467D01*
X165290431Y-125875239D01*
X165290432Y-125875239D01*
X164984145Y-126066636D01*
X164984144Y-126066637D01*
X164668057Y-126264040D01*
X164668056Y-126264040D01*
X164341165Y-126468085D01*
X164010971Y-126674102D01*
X164010078Y-126674941D01*
X164008933Y-126675378D01*
X163248383Y-127153296D01*
X163248194Y-127153475D01*
X163247950Y-127153568D01*
X162487728Y-127632002D01*
X162417521Y-127698471D01*
X162339011Y-127754880D01*
X161287402Y-128880492D01*
X161264115Y-128918044D01*
X161231472Y-128947832D01*
X161187550Y-129041514D01*
X161133021Y-129129449D01*
X161125877Y-129173059D01*
X161107120Y-129213067D01*
X160757555Y-130628878D01*
X160755936Y-130664273D01*
X160743951Y-130697619D01*
X160749290Y-130809559D01*
X160744169Y-130921510D01*
X160756219Y-130954832D01*
X160757907Y-130990225D01*
X161110229Y-132405343D01*
X161129072Y-132445332D01*
X161136306Y-132488943D01*
X161191000Y-132576753D01*
X161235098Y-132670336D01*
X161267811Y-132700070D01*
X161291182Y-132737592D01*
X162345058Y-133861130D01*
X162423581Y-133917310D01*
X162493805Y-133983576D01*
X162710555Y-134119483D01*
X162710582Y-134119493D01*
X162710604Y-134119514D01*
X162930029Y-134257075D01*
X162930103Y-134257103D01*
X162930160Y-134257157D01*
X163817819Y-134813391D01*
X163817928Y-134813432D01*
X163818010Y-134813510D01*
X164744415Y-135393638D01*
X164744564Y-135393694D01*
X164744682Y-135393806D01*
X166740466Y-136642425D01*
X166740652Y-136642496D01*
X166740798Y-136642633D01*
X168864339Y-137969639D01*
X168864474Y-137969690D01*
X168864577Y-137969787D01*
X169967544Y-138658460D01*
X169967632Y-138658493D01*
X169967702Y-138658559D01*
X171099094Y-139364591D01*
X171099182Y-139364624D01*
X171099250Y-139364688D01*
X172257386Y-140087014D01*
X172257472Y-140087047D01*
X172257541Y-140087111D01*
X173423573Y-140813968D01*
X173423597Y-140813977D01*
X173423617Y-140813996D01*
X174321275Y-141373473D01*
X174321277Y-141373474D01*
X175214816Y-141930523D01*
X176094336Y-142478972D01*
X176094339Y-142478975D01*
X176959069Y-143018345D01*
X176959073Y-143018349D01*
X178646635Y-144071393D01*
X178646636Y-144071394D01*
X180270271Y-145085154D01*
X180270272Y-145085155D01*
X181819226Y-146052931D01*
X181819227Y-146052932D01*
X183284199Y-146968935D01*
X184656238Y-147827584D01*
X184656239Y-147827585D01*
X185926401Y-148623313D01*
X185926403Y-148623315D01*
X187085662Y-149350483D01*
X187085661Y-149350483D01*
X188125103Y-150003583D01*
X189035124Y-150576583D01*
X189806979Y-151064094D01*
X190138175Y-151273936D01*
X190432367Y-151460884D01*
X190686896Y-151623269D01*
X190902974Y-151761874D01*
X190995157Y-151821366D01*
X191078226Y-151875246D01*
X191151861Y-151923352D01*
X191216369Y-151965829D01*
X191243971Y-151984210D01*
X191271224Y-152002560D01*
X191297410Y-152020248D01*
X191321997Y-152037211D01*
X191346023Y-152054005D01*
X191376942Y-152076449D01*
X191394067Y-152089183D01*
X191416362Y-152106321D01*
X191425416Y-152113483D01*
X192470287Y-153617282D01*
X192934092Y-155301922D01*
X192822125Y-157045656D01*
X192657065Y-157433139D01*
X192583644Y-157255448D01*
X192124113Y-156795113D01*
X191523398Y-156545675D01*
X190872955Y-156545107D01*
X190271807Y-156793497D01*
X189811472Y-157253028D01*
X189562034Y-157853743D01*
X189561466Y-158504186D01*
X189809856Y-159105334D01*
X190269387Y-159565669D01*
X190870102Y-159815107D01*
X191089460Y-159815299D01*
X190899035Y-160021925D01*
X189355353Y-160840558D01*
X187628937Y-161109988D01*
X185805095Y-160771026D01*
X185787611Y-160763846D01*
X185762617Y-160753126D01*
X185744738Y-160744970D01*
X185700592Y-160724010D01*
X185663097Y-160705555D01*
X185587133Y-160666498D01*
X185511539Y-160625914D01*
X185426658Y-160579226D01*
X185333160Y-160526979D01*
X185230432Y-160468724D01*
X185119169Y-160404957D01*
X184565742Y-160082039D01*
X183856968Y-159661181D01*
X182996537Y-159144895D01*
X181993419Y-158538648D01*
X180857801Y-157848617D01*
X179599525Y-157080785D01*
X178227952Y-156240835D01*
X176753798Y-155335290D01*
X175185160Y-154368998D01*
X173533238Y-153348803D01*
X171807540Y-152280439D01*
X170018931Y-151170558D01*
X169105260Y-150602590D01*
X169105257Y-150602587D01*
X168176839Y-150024822D01*
X168176838Y-150024822D01*
X167235699Y-149438437D01*
X166290958Y-148849157D01*
X166290957Y-148849157D01*
X165465069Y-148333680D01*
X165465057Y-148333675D01*
X165465049Y-148333668D01*
X164642033Y-147820018D01*
X164642027Y-147820016D01*
X164642022Y-147820011D01*
X163829513Y-147312937D01*
X163829505Y-147312934D01*
X163829500Y-147312929D01*
X163028002Y-146812752D01*
X163027992Y-146812748D01*
X163027981Y-146812738D01*
X161456071Y-145831855D01*
X161456051Y-145831848D01*
X161456038Y-145831835D01*
X159931242Y-144880461D01*
X159931220Y-144880453D01*
X159931201Y-144880435D01*
X158461233Y-143963403D01*
X158461205Y-143963392D01*
X158461183Y-143963372D01*
X157052682Y-143084838D01*
X157052648Y-143084825D01*
X157052621Y-143084800D01*
X155711954Y-142248755D01*
X155711914Y-142248740D01*
X155711881Y-142248709D01*
X154992156Y-141800000D01*
X164140000Y-141800000D01*
X164197852Y-142090839D01*
X164362599Y-142337401D01*
X166531943Y-144506745D01*
X166531943Y-146908059D01*
X166589795Y-147198898D01*
X166656862Y-147299271D01*
X166656780Y-147393225D01*
X166798825Y-147737001D01*
X167061615Y-148000250D01*
X167405143Y-148142896D01*
X167777109Y-148143220D01*
X168120885Y-148001175D01*
X168384134Y-147738385D01*
X168526780Y-147394857D01*
X168527104Y-147022891D01*
X168385059Y-146679115D01*
X168122269Y-146415866D01*
X168051943Y-146386664D01*
X168051943Y-144191943D01*
X168031140Y-144087362D01*
X167994091Y-143901103D01*
X167829344Y-143654542D01*
X167348535Y-143173733D01*
X167492192Y-143030327D01*
X167634838Y-142686799D01*
X167635162Y-142314833D01*
X167493117Y-141971057D01*
X167230327Y-141707808D01*
X166886799Y-141565162D01*
X166839924Y-141565121D01*
X166537401Y-141262599D01*
X166290839Y-141097852D01*
X166000000Y-141040000D01*
X164900000Y-141040000D01*
X164609161Y-141097852D01*
X164362599Y-141262599D01*
X164197852Y-141509161D01*
X164140000Y-141800000D01*
X154992156Y-141800000D01*
X154445419Y-141459140D01*
X154445367Y-141459120D01*
X154445328Y-141459084D01*
X153259479Y-140720006D01*
X153259415Y-140719982D01*
X153259366Y-140719936D01*
X152160709Y-140035471D01*
X152160629Y-140035441D01*
X152160566Y-140035382D01*
X151155713Y-139409670D01*
X151155609Y-139409631D01*
X151155528Y-139409555D01*
X150251083Y-138846728D01*
X150250991Y-138846693D01*
X150250918Y-138846625D01*
X149886631Y-138620065D01*
X149886558Y-138620038D01*
X149886501Y-138619984D01*
X149543465Y-138406737D01*
X149543410Y-138406716D01*
X149543367Y-138406676D01*
X149449828Y-138348548D01*
X149449809Y-138348541D01*
X149449792Y-138348525D01*
X149358025Y-138291505D01*
X149260347Y-138254781D01*
X149167499Y-138207161D01*
X147581912Y-137755421D01*
X147520215Y-137750400D01*
X147461264Y-137731523D01*
X147375609Y-137738632D01*
X147289939Y-137731660D01*
X147231015Y-137750632D01*
X147169329Y-137755752D01*
X145584468Y-138210031D01*
X145491716Y-138257789D01*
X145394122Y-138294653D01*
X137322623Y-143327095D01*
X137322621Y-143327097D01*
X129251124Y-148359538D01*
X129251115Y-148359547D01*
X129251106Y-148359550D01*
X128291024Y-148958183D01*
X127335002Y-149553947D01*
X127335003Y-149553947D01*
X126393054Y-150140546D01*
X126393051Y-150140549D01*
X125466349Y-150717300D01*
X125466347Y-150717302D01*
X123655971Y-151842874D01*
X121911909Y-152925709D01*
X120246039Y-153958449D01*
X118666939Y-154935757D01*
X117185203Y-155851053D01*
X115811080Y-156698000D01*
X115811081Y-156698000D01*
X114553303Y-157471181D01*
X114553304Y-157471181D01*
X113421413Y-158164646D01*
X112426770Y-158771389D01*
X111577543Y-159286298D01*
X111210748Y-159507270D01*
X110883264Y-159703434D01*
X110596795Y-159873738D01*
X110350651Y-160018486D01*
X110243281Y-160080930D01*
X110146126Y-160136881D01*
X110058563Y-160186660D01*
X109979221Y-160230916D01*
X109943274Y-160250494D01*
X109906204Y-160270442D01*
X109870937Y-160289205D01*
X109837233Y-160306605D01*
X109798412Y-160325711D01*
X109750634Y-160348211D01*
X109729164Y-160357790D01*
X109696666Y-160371370D01*
X109645982Y-160390642D01*
X109634141Y-160394681D01*
X107858794Y-160692995D01*
X106192695Y-160418532D01*
X104701004Y-159627280D01*
X103514001Y-158361651D01*
X102805743Y-156777622D01*
X102652769Y-155096007D01*
X103043824Y-153453357D01*
X104000205Y-151939558D01*
X104025443Y-151913777D01*
X104049028Y-151890834D01*
X104067404Y-151873866D01*
X104109411Y-151836568D01*
X104144640Y-151806761D01*
X104177519Y-151779962D01*
X104209812Y-151754415D01*
X104242163Y-151729368D01*
X104274397Y-151704951D01*
X104345820Y-151651975D01*
X104421518Y-151597218D01*
X104504518Y-151538228D01*
X104594587Y-151475140D01*
X104801234Y-151332745D01*
X105039705Y-151171121D01*
X105312116Y-150988737D01*
X105617444Y-150786177D01*
X106328996Y-150319135D01*
X107169256Y-149773323D01*
X108135044Y-149150756D01*
X109222110Y-148454174D01*
X110425823Y-147686590D01*
X111740665Y-146851584D01*
X113162750Y-145951696D01*
X114687737Y-144989762D01*
X115039626Y-144768437D01*
X126921482Y-144768437D01*
X126940974Y-145027340D01*
X127427776Y-145341591D01*
X127997781Y-145445631D01*
X128435506Y-145372371D01*
X128566173Y-145147662D01*
X127933898Y-144135809D01*
X126921482Y-144768437D01*
X115039626Y-144768437D01*
X116311891Y-143968232D01*
X118026414Y-142892732D01*
X118915545Y-142336038D01*
X118915546Y-142336037D01*
X119409423Y-142027198D01*
X125148256Y-142027198D01*
X125353542Y-142569031D01*
X125384376Y-142618376D01*
X125781386Y-143040405D01*
X126309679Y-143278380D01*
X126650058Y-143288777D01*
X126650042Y-143288799D01*
X126493679Y-143846724D01*
X126562727Y-144422017D01*
X126786882Y-144553032D01*
X127669984Y-144001209D01*
X128149302Y-144001209D01*
X128781578Y-145013062D01*
X129040826Y-144994125D01*
X129298558Y-144632815D01*
X129454921Y-144074890D01*
X129433947Y-143900139D01*
X129581818Y-143995596D01*
X130151823Y-144099636D01*
X130589548Y-144026376D01*
X130720215Y-143801667D01*
X130087940Y-142789814D01*
X129161718Y-143368582D01*
X128149302Y-144001209D01*
X127669984Y-144001209D01*
X127799298Y-143920405D01*
X127788700Y-143903444D01*
X128004104Y-143768844D01*
X128014702Y-143785805D01*
X128940924Y-143207037D01*
X129824026Y-142655214D01*
X130303344Y-142655214D01*
X130935620Y-143667067D01*
X131194868Y-143648130D01*
X131452600Y-143286820D01*
X131608963Y-142728895D01*
X131587989Y-142554144D01*
X131735860Y-142649601D01*
X132305865Y-142753641D01*
X132743590Y-142680381D01*
X132874257Y-142455672D01*
X132241982Y-141443819D01*
X131315760Y-142022587D01*
X130303344Y-142655214D01*
X129824026Y-142655214D01*
X129953340Y-142574410D01*
X129942742Y-142557449D01*
X130158146Y-142422849D01*
X130168744Y-142439810D01*
X131094966Y-141861042D01*
X132107382Y-141228415D01*
X132096784Y-141211454D01*
X132312188Y-141076854D01*
X132322786Y-141093815D01*
X132339747Y-141083217D01*
X132474347Y-141298621D01*
X132457386Y-141309219D01*
X133089662Y-142321072D01*
X133348910Y-142302135D01*
X133606642Y-141940825D01*
X133763005Y-141382900D01*
X133744190Y-141226141D01*
X134117800Y-141394437D01*
X134696948Y-141412127D01*
X135238782Y-141206841D01*
X135660810Y-140809830D01*
X135898786Y-140281537D01*
X135910873Y-139885840D01*
X136271842Y-140048442D01*
X136850990Y-140066132D01*
X137392824Y-139860846D01*
X137814852Y-139463835D01*
X138052828Y-138935542D01*
X138064915Y-138539844D01*
X138425885Y-138702447D01*
X139005033Y-138720137D01*
X139546867Y-138514851D01*
X139968895Y-138117840D01*
X140206871Y-137589547D01*
X140218958Y-137193850D01*
X140579927Y-137356452D01*
X141159075Y-137374142D01*
X141700909Y-137168856D01*
X142122937Y-136771845D01*
X142360913Y-136243552D01*
X142373423Y-135833996D01*
X142506071Y-135919626D01*
X143076076Y-136023666D01*
X143513801Y-135950406D01*
X143644468Y-135725697D01*
X143012193Y-134713844D01*
X142995232Y-134724442D01*
X142904502Y-134579244D01*
X143227597Y-134579244D01*
X143859873Y-135591097D01*
X144119121Y-135572160D01*
X144376853Y-135210850D01*
X144533216Y-134652925D01*
X144464168Y-134077632D01*
X144240013Y-133946617D01*
X143227597Y-134579244D01*
X142904502Y-134579244D01*
X142860632Y-134509038D01*
X142877593Y-134498440D01*
X142866995Y-134481479D01*
X143082399Y-134346879D01*
X143092997Y-134363840D01*
X144105413Y-133731212D01*
X144085921Y-133472309D01*
X143599119Y-133158058D01*
X143325353Y-133108089D01*
X143397059Y-133042022D01*
X143506646Y-132809554D01*
X143517156Y-132552765D01*
X143426932Y-132312119D01*
X142526070Y-130870437D01*
X142363822Y-130694341D01*
X142238921Y-130635462D01*
X142405189Y-130566762D01*
X142612001Y-130652638D01*
X142945136Y-130652928D01*
X143132073Y-130840192D01*
X143475601Y-130982838D01*
X143847567Y-130983162D01*
X144191343Y-130841117D01*
X144454592Y-130578327D01*
X144597238Y-130234799D01*
X144597562Y-129862833D01*
X144455517Y-129519057D01*
X144373600Y-129436997D01*
X144373600Y-126696733D01*
X144479992Y-126590527D01*
X144622638Y-126246999D01*
X144622962Y-125875033D01*
X144480917Y-125531257D01*
X144218127Y-125268008D01*
X143874599Y-125125362D01*
X143502633Y-125125038D01*
X143317138Y-125201683D01*
X143010999Y-125074562D01*
X142639033Y-125074238D01*
X142387020Y-125178368D01*
X142198199Y-125099962D01*
X141826233Y-125099638D01*
X141482457Y-125241683D01*
X141219208Y-125504473D01*
X141076562Y-125848001D01*
X141076238Y-126219967D01*
X141218283Y-126563743D01*
X141278700Y-126624265D01*
X141295968Y-129110847D01*
X141219208Y-129187473D01*
X141076562Y-129531001D01*
X141076238Y-129902967D01*
X141218283Y-130246743D01*
X141481073Y-130509992D01*
X141749096Y-130621285D01*
X141633919Y-130664468D01*
X141035678Y-131038290D01*
X138861800Y-128864412D01*
X138861800Y-126620578D01*
X138942792Y-126539727D01*
X139085438Y-126196199D01*
X139085762Y-125824233D01*
X138943717Y-125480457D01*
X138680927Y-125217208D01*
X138337399Y-125074562D01*
X137965433Y-125074238D01*
X137621657Y-125216283D01*
X137358408Y-125479073D01*
X137215762Y-125822601D01*
X137215438Y-126194567D01*
X137357483Y-126538343D01*
X137439400Y-126620403D01*
X137439400Y-129159000D01*
X137493537Y-129431165D01*
X137647706Y-129661894D01*
X139919146Y-131933334D01*
X139906554Y-131960046D01*
X139896044Y-132216835D01*
X139920199Y-132281260D01*
X139871184Y-132259181D01*
X139292036Y-132241491D01*
X138750203Y-132446777D01*
X138328174Y-132843787D01*
X138090199Y-133372080D01*
X138078112Y-133767779D01*
X137717142Y-133605176D01*
X137137994Y-133587486D01*
X136596161Y-133792772D01*
X136174132Y-134189782D01*
X135936157Y-134718075D01*
X135924070Y-135113774D01*
X135563100Y-134951171D01*
X134983952Y-134933481D01*
X134442119Y-135138767D01*
X134020090Y-135535777D01*
X133782115Y-136064070D01*
X133770028Y-136459769D01*
X133409057Y-136297166D01*
X132829909Y-136279476D01*
X132288076Y-136484762D01*
X131866047Y-136881772D01*
X131628072Y-137410065D01*
X131615985Y-137805764D01*
X131255015Y-137643161D01*
X130675867Y-137625471D01*
X130134034Y-137830757D01*
X129712005Y-138227767D01*
X129474030Y-138756060D01*
X129461943Y-139151759D01*
X129100973Y-138989156D01*
X128521825Y-138971466D01*
X127979992Y-139176752D01*
X127557963Y-139573762D01*
X127319988Y-140102055D01*
X127307901Y-140497754D01*
X126946931Y-140335151D01*
X126367783Y-140317461D01*
X125825950Y-140522747D01*
X125403921Y-140919757D01*
X125165946Y-141448050D01*
X125148256Y-142027198D01*
X119409423Y-142027198D01*
X119829966Y-141764218D01*
X119829967Y-141764217D01*
X120769728Y-141177255D01*
X120769729Y-141177254D01*
X121716824Y-140586390D01*
X122852501Y-139879380D01*
X122852550Y-139879334D01*
X122852609Y-139879312D01*
X123981011Y-139176564D01*
X123981058Y-139176520D01*
X123981122Y-139176496D01*
X125083903Y-138489440D01*
X125083953Y-138489393D01*
X125084019Y-138489368D01*
X126159480Y-137819061D01*
X126159560Y-137818986D01*
X126159661Y-137818948D01*
X128231023Y-136527104D01*
X128231138Y-136526996D01*
X128231288Y-136526939D01*
X130178864Y-135311171D01*
X130178960Y-135311081D01*
X130179084Y-135311034D01*
X131031211Y-134778686D01*
X131031278Y-134778623D01*
X131031365Y-134778590D01*
X131850222Y-134266752D01*
X131850268Y-134266709D01*
X131850331Y-134266685D01*
X132065764Y-134131974D01*
X132065781Y-134131958D01*
X132065804Y-134131949D01*
X132278649Y-133998838D01*
X132349116Y-133932500D01*
X132427858Y-133876229D01*
X133484832Y-132750645D01*
X133508463Y-132712753D01*
X133541494Y-132682690D01*
X133585341Y-132589482D01*
X133639847Y-132502082D01*
X133647180Y-132458026D01*
X133666189Y-132417616D01*
X134018339Y-130999238D01*
X134020021Y-130963480D01*
X134032142Y-130929790D01*
X134026856Y-130818207D01*
X134032105Y-130706623D01*
X134019973Y-130672938D01*
X134018279Y-130637180D01*
X133665657Y-129218919D01*
X133646633Y-129178514D01*
X133639286Y-129134461D01*
X133584751Y-129047080D01*
X133540873Y-128953887D01*
X133522790Y-128937440D01*
X134450000Y-128937440D01*
X134685317Y-128893162D01*
X134901441Y-128754090D01*
X135046431Y-128541890D01*
X135097440Y-128290000D01*
X135097440Y-128070920D01*
X135237401Y-127977401D01*
X136137401Y-127077401D01*
X136302148Y-126830840D01*
X136360000Y-126540000D01*
X136360000Y-126262463D01*
X136392192Y-126230327D01*
X136534838Y-125886799D01*
X136535162Y-125514833D01*
X136393117Y-125171057D01*
X136130327Y-124907808D01*
X135786799Y-124765162D01*
X135414833Y-124764838D01*
X135112090Y-124889929D01*
X135001054Y-124331715D01*
X134679147Y-123849946D01*
X134197378Y-123528039D01*
X133629093Y-123415000D01*
X133570907Y-123415000D01*
X133002622Y-123528039D01*
X132520853Y-123849946D01*
X132198946Y-124331715D01*
X132085907Y-124900000D01*
X132198946Y-125468285D01*
X132520853Y-125950054D01*
X132562452Y-125977850D01*
X132514683Y-125986838D01*
X132298559Y-126125910D01*
X132153569Y-126338110D01*
X132102560Y-126590000D01*
X132102560Y-127528875D01*
X131941928Y-127428579D01*
X131941573Y-127428445D01*
X131941295Y-127428184D01*
X131609749Y-127221630D01*
X127564458Y-124628827D01*
X123562946Y-122064089D01*
X123552431Y-122054847D01*
X123487392Y-121996871D01*
X123441545Y-121955166D01*
X123392976Y-121910008D01*
X123349427Y-121868077D01*
X123309318Y-121828074D01*
X123222797Y-121738108D01*
X123139928Y-121647271D01*
X123060099Y-121554977D01*
X122985122Y-121463758D01*
X122832438Y-121264439D01*
X122689601Y-121060421D01*
X122553448Y-120848457D01*
X122427115Y-120634665D01*
X122184770Y-120170518D01*
X121973143Y-119687196D01*
X121828674Y-119285750D01*
X124515000Y-119285750D01*
X124515000Y-119976310D01*
X124611673Y-120209699D01*
X124790302Y-120388327D01*
X125023691Y-120485000D01*
X125714250Y-120485000D01*
X125873000Y-120326250D01*
X125873000Y-119127000D01*
X126127000Y-119127000D01*
X126127000Y-120326250D01*
X126285750Y-120485000D01*
X126976309Y-120485000D01*
X127209698Y-120388327D01*
X127388327Y-120209699D01*
X127485000Y-119976310D01*
X127485000Y-119285750D01*
X127326250Y-119127000D01*
X126127000Y-119127000D01*
X125873000Y-119127000D01*
X124673750Y-119127000D01*
X124515000Y-119285750D01*
X121828674Y-119285750D01*
X121791033Y-119181155D01*
X121636866Y-118636712D01*
X121612237Y-118588499D01*
X121600271Y-118535691D01*
X121546201Y-118459232D01*
X121503601Y-118375841D01*
X121462392Y-118340720D01*
X121431132Y-118296516D01*
X121397659Y-118264770D01*
X121391134Y-118260656D01*
X121386554Y-118254449D01*
X121349865Y-118221034D01*
X121345037Y-118218124D01*
X121341624Y-118213639D01*
X121295639Y-118172982D01*
X121291541Y-118170594D01*
X121288623Y-118166856D01*
X121233602Y-118119412D01*
X121227660Y-118116047D01*
X121223364Y-118110743D01*
X121090790Y-118000496D01*
X121084793Y-117997240D01*
X121080404Y-117992015D01*
X120916939Y-117860946D01*
X120912651Y-117858716D01*
X120909495Y-117855054D01*
X120713622Y-117702028D01*
X120710660Y-117700535D01*
X120708474Y-117698042D01*
X120481203Y-117523639D01*
X120479566Y-117522832D01*
X120478355Y-117521464D01*
X120353017Y-117426229D01*
X120352176Y-117425819D01*
X120351555Y-117425121D01*
X120216342Y-117322903D01*
X120215703Y-117322594D01*
X120215232Y-117322066D01*
X120069640Y-117212424D01*
X120069173Y-117212199D01*
X120068830Y-117211816D01*
X119920056Y-117100093D01*
X119916013Y-117098151D01*
X119912981Y-117094844D01*
X119791469Y-117005805D01*
X119790029Y-117005134D01*
X119788949Y-117003966D01*
X119664125Y-116913294D01*
X119662923Y-116912740D01*
X119662020Y-116911770D01*
X119526960Y-116814375D01*
X119525906Y-116813894D01*
X119525117Y-116813051D01*
X119380374Y-116709337D01*
X119378912Y-116708675D01*
X119377809Y-116707507D01*
X119065649Y-116485808D01*
X119063995Y-116485067D01*
X119062746Y-116483757D01*
X119028958Y-116460000D01*
X124485907Y-116460000D01*
X124598946Y-117028285D01*
X124920853Y-117510054D01*
X124964777Y-117539403D01*
X124790302Y-117611673D01*
X124611673Y-117790301D01*
X124515000Y-118023690D01*
X124515000Y-118714250D01*
X124673750Y-118873000D01*
X125873000Y-118873000D01*
X125873000Y-118853000D01*
X126127000Y-118853000D01*
X126127000Y-118873000D01*
X127326250Y-118873000D01*
X127485000Y-118714250D01*
X127485000Y-118023690D01*
X127388327Y-117790301D01*
X127209698Y-117611673D01*
X127035223Y-117539403D01*
X127079147Y-117510054D01*
X127401054Y-117028285D01*
X127514093Y-116460000D01*
X127401054Y-115891715D01*
X127079147Y-115409946D01*
X126597378Y-115088039D01*
X126029093Y-114975000D01*
X125970907Y-114975000D01*
X125402622Y-115088039D01*
X124920853Y-115409946D01*
X124598946Y-115891715D01*
X124485907Y-116460000D01*
X119028958Y-116460000D01*
X118721052Y-116243509D01*
X118719684Y-116242904D01*
X118718646Y-116241824D01*
X118347258Y-115982863D01*
X118346085Y-115982349D01*
X118345196Y-115981431D01*
X118121401Y-115826493D01*
X121028173Y-115826493D01*
X121154899Y-116053449D01*
X121591279Y-116134337D01*
X122163013Y-116040261D01*
X122655225Y-115734553D01*
X122679233Y-115476030D01*
X121678012Y-114825829D01*
X121028173Y-115826493D01*
X118121401Y-115826493D01*
X117945290Y-115704568D01*
X117944267Y-115704124D01*
X117943487Y-115703323D01*
X117516457Y-115409521D01*
X117515554Y-115409133D01*
X117514868Y-115408431D01*
X117061672Y-115098337D01*
X117060508Y-115097840D01*
X117059619Y-115096937D01*
X116078214Y-114430181D01*
X116076912Y-114429630D01*
X116075916Y-114428626D01*
X115000655Y-113703899D01*
X114999560Y-113703440D01*
X114998722Y-113702601D01*
X113836912Y-112924769D01*
X113835965Y-112924376D01*
X113835239Y-112923652D01*
X112593618Y-112097195D01*
X112592780Y-112096850D01*
X112592135Y-112096210D01*
X111277447Y-111225610D01*
X111276689Y-111225300D01*
X111276106Y-111224724D01*
X110746704Y-110875776D01*
X113439096Y-110875776D01*
X113538094Y-111112947D01*
X113721566Y-111292916D01*
X115147306Y-112218802D01*
X115368775Y-112309830D01*
X115625776Y-112310904D01*
X115862947Y-112211906D01*
X115911124Y-112162791D01*
X115911827Y-112216527D01*
X116140548Y-112748891D01*
X116555585Y-113153205D01*
X117093754Y-113367915D01*
X117673123Y-113360333D01*
X118036870Y-113204056D01*
X118042050Y-113599910D01*
X118270771Y-114132274D01*
X118685808Y-114536588D01*
X119223977Y-114751298D01*
X119803346Y-114743716D01*
X120179831Y-114581966D01*
X120158283Y-114738375D01*
X120304886Y-115298943D01*
X120556273Y-115664696D01*
X120815151Y-115688155D01*
X121464990Y-114687491D01*
X121448216Y-114676598D01*
X121489642Y-114612807D01*
X121816350Y-114612807D01*
X122817571Y-115263007D01*
X123043979Y-115135924D01*
X123123057Y-114561923D01*
X122976454Y-114001355D01*
X122725067Y-113635602D01*
X122466189Y-113612143D01*
X121816350Y-114612807D01*
X121489642Y-114612807D01*
X121586555Y-114463576D01*
X121603328Y-114474469D01*
X122253167Y-113473805D01*
X122126441Y-113246849D01*
X121690061Y-113165961D01*
X121118327Y-113260037D01*
X120984204Y-113343340D01*
X120978842Y-112933622D01*
X120750121Y-112401258D01*
X120335084Y-111996944D01*
X119796915Y-111782234D01*
X119217546Y-111789816D01*
X118853799Y-111946093D01*
X118848619Y-111550239D01*
X118619898Y-111017875D01*
X118204861Y-110613561D01*
X117666692Y-110398851D01*
X117087323Y-110406433D01*
X117041351Y-110426184D01*
X117059830Y-110381225D01*
X117060904Y-110124224D01*
X116961906Y-109887053D01*
X116778434Y-109707084D01*
X115352694Y-108781198D01*
X115131225Y-108690170D01*
X114874224Y-108689096D01*
X114637053Y-108788094D01*
X114457084Y-108971566D01*
X113531198Y-110397306D01*
X113440170Y-110618775D01*
X113439096Y-110875776D01*
X110746704Y-110875776D01*
X109895694Y-110314846D01*
X109894997Y-110314563D01*
X109894460Y-110314034D01*
X109151615Y-109826493D01*
X111028173Y-109826493D01*
X111154899Y-110053449D01*
X111591279Y-110134337D01*
X112163013Y-110040261D01*
X112655225Y-109734553D01*
X112679233Y-109476030D01*
X111678012Y-108825829D01*
X111028173Y-109826493D01*
X109151615Y-109826493D01*
X108455814Y-109369828D01*
X108455159Y-109369563D01*
X108454653Y-109369067D01*
X106965263Y-108395492D01*
X106964636Y-108395240D01*
X106964151Y-108394766D01*
X105430488Y-107396120D01*
X105429874Y-107395874D01*
X105429399Y-107395412D01*
X103853848Y-106373367D01*
X103853245Y-106373127D01*
X103852780Y-106372676D01*
X102241325Y-105331216D01*
X102240729Y-105330980D01*
X102240270Y-105330536D01*
X101534032Y-104875776D01*
X103439096Y-104875776D01*
X103538094Y-105112947D01*
X103721566Y-105292916D01*
X105147306Y-106218802D01*
X105368775Y-106309830D01*
X105625776Y-106310904D01*
X105862947Y-106211906D01*
X105911124Y-106162791D01*
X105911827Y-106216527D01*
X106140548Y-106748891D01*
X106555585Y-107153205D01*
X107093754Y-107367915D01*
X107673123Y-107360333D01*
X108036870Y-107204056D01*
X108042050Y-107599910D01*
X108270771Y-108132274D01*
X108685808Y-108536588D01*
X109223977Y-108751298D01*
X109803346Y-108743716D01*
X110179831Y-108581966D01*
X110158283Y-108738375D01*
X110304886Y-109298943D01*
X110556273Y-109664696D01*
X110815151Y-109688155D01*
X111464990Y-108687491D01*
X111448216Y-108676598D01*
X111489642Y-108612807D01*
X111816350Y-108612807D01*
X112817571Y-109263007D01*
X113043979Y-109135924D01*
X113123057Y-108561923D01*
X112976454Y-108001355D01*
X112725067Y-107635602D01*
X112466189Y-107612143D01*
X111816350Y-108612807D01*
X111489642Y-108612807D01*
X111586555Y-108463576D01*
X111603328Y-108474469D01*
X112253167Y-107473805D01*
X112126441Y-107246849D01*
X111690061Y-107165961D01*
X111118327Y-107260037D01*
X110984204Y-107343340D01*
X110978842Y-106933622D01*
X110750121Y-106401258D01*
X110335084Y-105996944D01*
X109796915Y-105782234D01*
X109217546Y-105789816D01*
X108853799Y-105946093D01*
X108848619Y-105550239D01*
X108619898Y-105017875D01*
X108204861Y-104613561D01*
X107666692Y-104398851D01*
X107087323Y-104406433D01*
X107041351Y-104426184D01*
X107059830Y-104381225D01*
X107060904Y-104124224D01*
X106961906Y-103887053D01*
X106778434Y-103707084D01*
X105352694Y-102781198D01*
X105131225Y-102690170D01*
X104874224Y-102689096D01*
X104637053Y-102788094D01*
X104457084Y-102971566D01*
X103531198Y-104397306D01*
X103440170Y-104618775D01*
X103439096Y-104875776D01*
X101534032Y-104875776D01*
X100617371Y-104285521D01*
X100615499Y-104284782D01*
X100614043Y-104283390D01*
X100322854Y-104098049D01*
X100034949Y-103914707D01*
X100034947Y-103914705D01*
X99756672Y-103737396D01*
X99756669Y-103737395D01*
X99488377Y-103566337D01*
X99488375Y-103566335D01*
X98973625Y-103237771D01*
X98488216Y-102927376D01*
X98032355Y-102635211D01*
X97605756Y-102361040D01*
X97205683Y-102103049D01*
X96833176Y-101861847D01*
X96161534Y-101423551D01*
X95583261Y-101040807D01*
X95089613Y-100707447D01*
X94671037Y-100416511D01*
X94318144Y-100161013D01*
X94019898Y-99932289D01*
X93766736Y-99721803D01*
X93542743Y-99511087D01*
X93387021Y-99342437D01*
X93234238Y-99147419D01*
X93221211Y-99128798D01*
X93196906Y-99092809D01*
X93130673Y-99027228D01*
X93074569Y-98952799D01*
X92695748Y-98614793D01*
X92656390Y-98591617D01*
X92624707Y-98558717D01*
X92531221Y-98517913D01*
X92443321Y-98466154D01*
X92398087Y-98459804D01*
X92356227Y-98441533D01*
X91860247Y-98333120D01*
X91765660Y-98331337D01*
X91672258Y-98316313D01*
X91606469Y-98318739D01*
X91549722Y-98320371D01*
X91281370Y-98321654D01*
X91022672Y-98310681D01*
X90742183Y-98281448D01*
X90460754Y-98228416D01*
X90175948Y-98144969D01*
X89894990Y-98025132D01*
X89622490Y-97862936D01*
X89373606Y-97665250D01*
X89160865Y-97441426D01*
X88982834Y-97199604D01*
X88852396Y-96976324D01*
X88741197Y-96741405D01*
X88722804Y-96697560D01*
X88699170Y-96638784D01*
X88660758Y-96579984D01*
X88635206Y-96514560D01*
X88428025Y-96190397D01*
X88328021Y-96086237D01*
X88228567Y-95981488D01*
X87914335Y-95759531D01*
X87851759Y-95731690D01*
X87796405Y-95691361D01*
X87744417Y-95667310D01*
X87723769Y-95657153D01*
X87450560Y-95488949D01*
X87197888Y-95258855D01*
X87055809Y-95074439D01*
X86934411Y-94852658D01*
X86850638Y-94608448D01*
X86808434Y-94355326D01*
X86808631Y-94109762D01*
X86844608Y-93879145D01*
X86908175Y-93671375D01*
X86984549Y-93502165D01*
X87198749Y-93178151D01*
X87432136Y-92941047D01*
X87687137Y-92749928D01*
X87957884Y-92598244D01*
X88245234Y-92479082D01*
X88551057Y-92390603D01*
X88877051Y-92332214D01*
X89227426Y-92304653D01*
X89355375Y-92302081D01*
X89492558Y-92302125D01*
X89635417Y-92306251D01*
X89788151Y-92317386D01*
X89952655Y-92339005D01*
X90129787Y-92376851D01*
X90321306Y-92437222D01*
X90513625Y-92520989D01*
X90697404Y-92628374D01*
X90863853Y-92751449D01*
X91003297Y-92878532D01*
X91121202Y-93006566D01*
X91221466Y-93130999D01*
X91308041Y-93250492D01*
X91386143Y-93366599D01*
X91465751Y-93491570D01*
X91550690Y-93580306D01*
X91629769Y-93674309D01*
X92020620Y-93987197D01*
X92114159Y-94035742D01*
X92201723Y-94094393D01*
X92243138Y-94102680D01*
X92280628Y-94122136D01*
X92385631Y-94131191D01*
X92488969Y-94151867D01*
X92989630Y-94152432D01*
X93086825Y-94133213D01*
X93185675Y-94126613D01*
X93273260Y-94103031D01*
X93319938Y-94097521D01*
X93716206Y-94097061D01*
X94119055Y-94146016D01*
X94643057Y-94297033D01*
X95131828Y-94553666D01*
X95542359Y-94921278D01*
X95867763Y-95360171D01*
X96033346Y-95672452D01*
X96175175Y-96030874D01*
X96198425Y-96066898D01*
X96210835Y-96107941D01*
X96357634Y-96383184D01*
X96431901Y-96473846D01*
X96498732Y-96570113D01*
X96723200Y-96786732D01*
X96774119Y-96819460D01*
X96816132Y-96863033D01*
X96870804Y-96901023D01*
X96873866Y-96902357D01*
X96876205Y-96904741D01*
X96929513Y-96941097D01*
X96932311Y-96942287D01*
X96934457Y-96944440D01*
X97084203Y-97044832D01*
X97087541Y-97046221D01*
X97090118Y-97048757D01*
X97247989Y-97152446D01*
X97250375Y-97153412D01*
X97252224Y-97155208D01*
X97434922Y-97273450D01*
X97436830Y-97274208D01*
X97438309Y-97275629D01*
X97643899Y-97407127D01*
X97646470Y-97408132D01*
X97648474Y-97410030D01*
X98110529Y-97700891D01*
X98113175Y-97701903D01*
X98115247Y-97703837D01*
X98641239Y-98029530D01*
X98643219Y-98030271D01*
X98644771Y-98031703D01*
X99232708Y-98391274D01*
X99234294Y-98391857D01*
X99235542Y-98392999D01*
X99880424Y-98783493D01*
X99881760Y-98783978D01*
X99882809Y-98784930D01*
X100579168Y-99203073D01*
X100580295Y-99203477D01*
X100581185Y-99204280D01*
X101324662Y-99647555D01*
X101326069Y-99648055D01*
X101327182Y-99649051D01*
X102938968Y-100601520D01*
X102940509Y-100602061D01*
X102941729Y-100603143D01*
X104691798Y-101627283D01*
X104693099Y-101627733D01*
X104694132Y-101628643D01*
X106548733Y-102705014D01*
X106549895Y-102705411D01*
X106550820Y-102706221D01*
X108476690Y-103815701D01*
X108477785Y-103816072D01*
X108478658Y-103816831D01*
X110442667Y-104940389D01*
X110443757Y-104940754D01*
X110444625Y-104941505D01*
X112413659Y-106060108D01*
X112414795Y-106060485D01*
X112415703Y-106061265D01*
X114356609Y-107155874D01*
X114357853Y-107156282D01*
X114358850Y-107157133D01*
X116238258Y-108208591D01*
X116239311Y-108208933D01*
X116240153Y-108209647D01*
X117146383Y-108713216D01*
X117147167Y-108713468D01*
X117147798Y-108714001D01*
X118026300Y-109199686D01*
X118027172Y-109199964D01*
X118027874Y-109200554D01*
X118874467Y-109665955D01*
X118875444Y-109666264D01*
X118876229Y-109666920D01*
X119686019Y-110109271D01*
X119687140Y-110109622D01*
X119688041Y-110110371D01*
X120456572Y-110527129D01*
X120457893Y-110527538D01*
X120458957Y-110528416D01*
X121184285Y-110918363D01*
X121185431Y-110918714D01*
X121186359Y-110919474D01*
X121531686Y-111103734D01*
X121532519Y-111103986D01*
X121533193Y-111104536D01*
X121862868Y-111279483D01*
X121863804Y-111279764D01*
X121864562Y-111280379D01*
X122177394Y-111445366D01*
X122178467Y-111445685D01*
X122179340Y-111446389D01*
X122486593Y-111607285D01*
X123181493Y-111973955D01*
X123181495Y-111973957D01*
X123877582Y-112341258D01*
X123928238Y-112356330D01*
X123973509Y-112383596D01*
X124759952Y-112666896D01*
X124863550Y-112682491D01*
X124964724Y-112709683D01*
X125798809Y-112764990D01*
X125851210Y-112758132D01*
X125903659Y-112764605D01*
X126027744Y-112755461D01*
X126027746Y-112755461D01*
X126140602Y-112747144D01*
X126525823Y-112730354D01*
X126922608Y-112736817D01*
X126987616Y-112724984D01*
X127053652Y-112727456D01*
X128669156Y-112468525D01*
X128673840Y-112466787D01*
X128678836Y-112466909D01*
X128810957Y-112415915D01*
X128943801Y-112366628D01*
X128947467Y-112363227D01*
X128952125Y-112361429D01*
X130040000Y-111672246D01*
X130040000Y-118737537D01*
X130007808Y-118769673D01*
X129865162Y-119113201D01*
X129864838Y-119485167D01*
X130006883Y-119828943D01*
X130269673Y-120092192D01*
X130613201Y-120234838D01*
X130985167Y-120235162D01*
X131200106Y-120146351D01*
X131413204Y-120234838D01*
X131785170Y-120235162D01*
X132128946Y-120093117D01*
X132392195Y-119830327D01*
X132534841Y-119486799D01*
X132535165Y-119114833D01*
X132393120Y-118771057D01*
X132360003Y-118737882D01*
X132360003Y-111714805D01*
X133437401Y-110637407D01*
X133602148Y-110390846D01*
X133660000Y-110100006D01*
X133660000Y-104756967D01*
X134370638Y-104756967D01*
X134512683Y-105100743D01*
X134775473Y-105363992D01*
X135119001Y-105506638D01*
X135490967Y-105506962D01*
X135834743Y-105364917D01*
X136097992Y-105102127D01*
X136148366Y-104980814D01*
X137848234Y-103280945D01*
X137968343Y-103231317D01*
X138231592Y-102968527D01*
X138374238Y-102624999D01*
X138374562Y-102253033D01*
X138232517Y-101909257D01*
X137969727Y-101646008D01*
X137626199Y-101503362D01*
X137254233Y-101503038D01*
X136910457Y-101645083D01*
X136647208Y-101907873D01*
X136596834Y-102029187D01*
X134896964Y-103729056D01*
X134776857Y-103778683D01*
X134513608Y-104041473D01*
X134370962Y-104385001D01*
X134370638Y-104756967D01*
X133660000Y-104756967D01*
X133660000Y-94362463D01*
X133692192Y-94330327D01*
X133834838Y-93986799D01*
X133835162Y-93614833D01*
X133693117Y-93271057D01*
X133430327Y-93007808D01*
X133120404Y-92879116D01*
X132993117Y-92571057D01*
X132730327Y-92307808D01*
X132386799Y-92165162D01*
X132014833Y-92164838D01*
X131671057Y-92306883D01*
X131407808Y-92569673D01*
X131265162Y-92913201D01*
X131264838Y-93285167D01*
X131406883Y-93628943D01*
X131440000Y-93662118D01*
X131440000Y-96269612D01*
X131412956Y-96278231D01*
X131395836Y-96280648D01*
X131388689Y-96280448D01*
X131383661Y-96282367D01*
X131328392Y-96290170D01*
X131264983Y-96312358D01*
X131216913Y-96340714D01*
X131211787Y-96342348D01*
X131206326Y-96346959D01*
X131191431Y-96355746D01*
X131175292Y-96361906D01*
X131168276Y-96363302D01*
X131163799Y-96366294D01*
X131111650Y-96386200D01*
X131054769Y-96421941D01*
X131014209Y-96460288D01*
X131009572Y-96463023D01*
X131005272Y-96468737D01*
X130992716Y-96480607D01*
X130978352Y-96490205D01*
X130971825Y-96493126D01*
X130968127Y-96497037D01*
X130921715Y-96528049D01*
X130874212Y-96575552D01*
X130843201Y-96621964D01*
X130839289Y-96625662D01*
X130836368Y-96632190D01*
X130826771Y-96646553D01*
X130814900Y-96659109D01*
X130809186Y-96663409D01*
X130806451Y-96668046D01*
X130768104Y-96708606D01*
X130732363Y-96765487D01*
X130712456Y-96817638D01*
X130709465Y-96822114D01*
X130708070Y-96829128D01*
X130701908Y-96845271D01*
X130693125Y-96860160D01*
X130688511Y-96865624D01*
X130686876Y-96870753D01*
X130658522Y-96918820D01*
X130636333Y-96982229D01*
X130628530Y-97037498D01*
X130626611Y-97042526D01*
X130626811Y-97049673D01*
X130624394Y-97066793D01*
X130619152Y-97083243D01*
X130615868Y-97089599D01*
X130615415Y-97094966D01*
X130598462Y-97148158D01*
X130590941Y-97214915D01*
X130595632Y-97270525D01*
X130594880Y-97275854D01*
X130596666Y-97282778D01*
X130598119Y-97299999D01*
X130596666Y-97317221D01*
X130594880Y-97324145D01*
X130595632Y-97329474D01*
X130590941Y-97385086D01*
X130598462Y-97451842D01*
X130615416Y-97505038D01*
X130615869Y-97510402D01*
X130619151Y-97516755D01*
X130624395Y-97533208D01*
X130626811Y-97550326D01*
X130626611Y-97557473D01*
X130628530Y-97562501D01*
X130636333Y-97617770D01*
X130658522Y-97681179D01*
X130686876Y-97729245D01*
X130688511Y-97734376D01*
X130693127Y-97739842D01*
X130701908Y-97754728D01*
X130708070Y-97770871D01*
X130709465Y-97777885D01*
X130712456Y-97782361D01*
X130732363Y-97834512D01*
X130768104Y-97891393D01*
X130806451Y-97931953D01*
X130809186Y-97936590D01*
X130814900Y-97940890D01*
X130826771Y-97953446D01*
X130836368Y-97967809D01*
X130839289Y-97974337D01*
X130843201Y-97978035D01*
X130874212Y-98024447D01*
X130921715Y-98071950D01*
X130968127Y-98102962D01*
X130971825Y-98106873D01*
X130978352Y-98109794D01*
X130992716Y-98119392D01*
X131005272Y-98131262D01*
X131009572Y-98136976D01*
X131014209Y-98139711D01*
X131054769Y-98178058D01*
X131111650Y-98213799D01*
X131163799Y-98233705D01*
X131168276Y-98236697D01*
X131175292Y-98238093D01*
X131191431Y-98244253D01*
X131206313Y-98253032D01*
X131211777Y-98257646D01*
X131216906Y-98259281D01*
X131264983Y-98287641D01*
X131328392Y-98309829D01*
X131383661Y-98317632D01*
X131388689Y-98319551D01*
X131395836Y-98319351D01*
X131412949Y-98321766D01*
X131440000Y-98330389D01*
X131440000Y-103270613D01*
X131131852Y-102157295D01*
X131106815Y-102107560D01*
X131094608Y-102053233D01*
X131041555Y-101977925D01*
X131000133Y-101895641D01*
X130957968Y-101859272D01*
X130925901Y-101813753D01*
X128993703Y-99974623D01*
X128909911Y-99921577D01*
X128833595Y-99858248D01*
X128497231Y-99676097D01*
X128172286Y-99495418D01*
X126569280Y-98535585D01*
X125023518Y-97497662D01*
X123549869Y-96393211D01*
X122165730Y-95231006D01*
X121522467Y-94639554D01*
X120910396Y-94039332D01*
X120337363Y-93436471D01*
X119792386Y-92815755D01*
X119259593Y-92168739D01*
X118744209Y-91510712D01*
X118515917Y-91203056D01*
X134114559Y-91572498D01*
X142569597Y-96584766D01*
X142630821Y-96602471D01*
X149920621Y-96805671D01*
X149970291Y-96797046D01*
X150001146Y-96779726D01*
X162462587Y-87281677D01*
X172685486Y-87508852D01*
M02*
