G04 #@! TF.FileFunction,Legend,Top*
%FSLAX46Y46*%
G04 Gerber Fmt 4.6, Leading zero omitted, Abs format (unit mm)*
G04 Created by KiCad (PCBNEW 4.0.7-e2-6376~58~ubuntu16.04.1) date Sun Jan 14 11:27:02 2018*
%MOMM*%
%LPD*%
G01*
G04 APERTURE LIST*
%ADD10C,0.100000*%
%ADD11C,0.150000*%
%ADD12C,0.120000*%
%ADD13C,0.846667*%
%ADD14C,0.231555*%
%ADD15C,0.350000*%
%ADD16R,1.200000X3.300000*%
%ADD17R,2.000000X3.000000*%
%ADD18C,2.100000*%
%ADD19C,2.400000*%
%ADD20R,1.650000X1.400000*%
%ADD21C,1.924000*%
%ADD22R,1.400000X1.650000*%
%ADD23R,2.400000X1.500000*%
%ADD24R,1.900000X1.900000*%
%ADD25R,2.100000X2.100000*%
%ADD26O,2.100000X2.100000*%
%ADD27R,1.750000X0.800000*%
%ADD28O,1.350000X1.650000*%
%ADD29O,1.950000X1.400000*%
%ADD30R,1.100000X1.700000*%
%ADD31R,1.700000X1.100000*%
%ADD32R,2.150000X0.950000*%
%ADD33R,0.800000X1.150000*%
%ADD34C,3.040000*%
G04 APERTURE END LIST*
D10*
D11*
X144873476Y-123000000D02*
X145191674Y-123318198D01*
X150000000Y-117873476D02*
X150371231Y-118244707D01*
X155126524Y-123000000D02*
X154755293Y-122628769D01*
X150000000Y-128126524D02*
X149628769Y-127755293D01*
X144873476Y-123000000D02*
X145244707Y-122628769D01*
X150000000Y-128126524D02*
X150371231Y-127755293D01*
X155126524Y-123000000D02*
X154755293Y-123371231D01*
X150000000Y-117873476D02*
X149628769Y-118244707D01*
X145191674Y-123318198D02*
X144219402Y-124290470D01*
D12*
X167300000Y-138500000D02*
X170300000Y-138500000D01*
X167300000Y-141700000D02*
X170300000Y-141700000D01*
X165920000Y-141110000D02*
X165520000Y-141110000D01*
X166690000Y-145690000D02*
X165520000Y-145690000D01*
X162110000Y-145690000D02*
X163280000Y-145690000D01*
X162880000Y-141110000D02*
X163280000Y-141110000D01*
X162110000Y-141880000D02*
X162110000Y-145690000D01*
X162110000Y-141880000D02*
X162880000Y-141110000D01*
X166690000Y-141880000D02*
X166690000Y-145690000D01*
X166690000Y-141880000D02*
X165920000Y-141110000D01*
X124795608Y-141383653D02*
X127551188Y-145793503D01*
X139924786Y-131929893D02*
X124795608Y-141383653D01*
X144885292Y-134961954D02*
X127551188Y-145793503D01*
X139924786Y-131929893D02*
X141302576Y-134134819D01*
X141302576Y-134134819D02*
X143507501Y-132757028D01*
X143507501Y-132757028D02*
X144885292Y-134961954D01*
X141001807Y-131256896D02*
X142129711Y-130552103D01*
X142129711Y-130552103D02*
X142834504Y-131680007D01*
D13*
X149488613Y-90473207D02*
X149963331Y-90473207D01*
X149963331Y-90473207D02*
X150438045Y-90473207D01*
X150438045Y-90473207D02*
X150912763Y-90473207D01*
X150912763Y-90473207D02*
X151387480Y-90473207D01*
X151387480Y-90473207D02*
X151862195Y-90473207D01*
X151862195Y-90473207D02*
X152336913Y-90473207D01*
X152336913Y-90473207D02*
X152811630Y-90473207D01*
X152811630Y-90473207D02*
X152796305Y-90403202D01*
X152796305Y-90403202D02*
X152780981Y-90333199D01*
X152780981Y-90333199D02*
X152765656Y-90263194D01*
X152765656Y-90263194D02*
X152750331Y-90193189D01*
X152750331Y-90193189D02*
X152735007Y-90123184D01*
X152735007Y-90123184D02*
X152719682Y-90053178D01*
X152719682Y-90053178D02*
X152704357Y-89983176D01*
X152704357Y-89983176D02*
X152689089Y-89913171D01*
X152689089Y-89913171D02*
X152657413Y-89776479D01*
X152657413Y-89776479D02*
X152615847Y-89607177D01*
X152615847Y-89607177D02*
X152566080Y-89412034D01*
X152566080Y-89412034D02*
X152509748Y-89197816D01*
X152509748Y-89197816D02*
X152448495Y-88971294D01*
X152448495Y-88971294D02*
X152383959Y-88739234D01*
X152383959Y-88739234D02*
X152317784Y-88508404D01*
X152317784Y-88508404D02*
X152251608Y-88285573D01*
X152251608Y-88285573D02*
X152178323Y-88036489D01*
X152178323Y-88036489D02*
X152091910Y-87730185D01*
X152091910Y-87730185D02*
X151995655Y-87378352D01*
X151995655Y-87378352D02*
X151892836Y-86992679D01*
X151892836Y-86992679D02*
X151786734Y-86584856D01*
X151786734Y-86584856D02*
X151680636Y-86166572D01*
X151680636Y-86166572D02*
X151577817Y-85749521D01*
X151577817Y-85749521D02*
X151481559Y-85345390D01*
X151481559Y-85345390D02*
X151382705Y-84959750D01*
X151382705Y-84959750D02*
X151284672Y-84583545D01*
X151284672Y-84583545D02*
X151189919Y-84226209D01*
X151189919Y-84226209D02*
X151100912Y-83897175D01*
X151100912Y-83897175D02*
X151020106Y-83605879D01*
X151020106Y-83605879D02*
X150949965Y-83361752D01*
X150949965Y-83361752D02*
X150892948Y-83174232D01*
X150892948Y-83174232D02*
X150851521Y-83052749D01*
X150851521Y-83052749D02*
X150814160Y-82930445D01*
X150814160Y-82930445D02*
X150795449Y-82822501D01*
X150795449Y-82822501D02*
X150797706Y-82723577D01*
X150797706Y-82723577D02*
X150823106Y-82628346D01*
X150823106Y-82628346D02*
X150873935Y-82531476D01*
X150873935Y-82531476D02*
X150952452Y-82427633D01*
X150952452Y-82427633D02*
X151060910Y-82311481D01*
X151060910Y-82311481D02*
X151201555Y-82177694D01*
X151201555Y-82177694D02*
X151827789Y-81467978D01*
X151827789Y-81467978D02*
X152227817Y-80677251D01*
X152227817Y-80677251D02*
X152408399Y-79844275D01*
X152408399Y-79844275D02*
X152376302Y-79007811D01*
X152376302Y-79007811D02*
X152138296Y-78206624D01*
X152138296Y-78206624D02*
X151701145Y-77479476D01*
X151701145Y-77479476D02*
X151071617Y-76865126D01*
X151071617Y-76865126D02*
X150256483Y-76402338D01*
X150256483Y-76402338D02*
X149723933Y-76233752D01*
X149723933Y-76233752D02*
X149182354Y-76159511D01*
X149182354Y-76159511D02*
X148640778Y-76177150D01*
X148640778Y-76177150D02*
X148108227Y-76284208D01*
X148108227Y-76284208D02*
X147593722Y-76478225D01*
X147593722Y-76478225D02*
X147106288Y-76756738D01*
X147106288Y-76756738D02*
X146654952Y-77117286D01*
X146654952Y-77117286D02*
X146248736Y-77557408D01*
X146248736Y-77557408D02*
X146095500Y-77754809D01*
X146095500Y-77754809D02*
X145974461Y-77935595D01*
X145974461Y-77935595D02*
X145881726Y-78112692D01*
X145881726Y-78112692D02*
X145813397Y-78299018D01*
X145813397Y-78299018D02*
X145765577Y-78507493D01*
X145765577Y-78507493D02*
X145734369Y-78751036D01*
X145734369Y-78751036D02*
X145715883Y-79042575D01*
X145715883Y-79042575D02*
X145706203Y-79395022D01*
X145706203Y-79395022D02*
X145704792Y-79729732D01*
X145704792Y-79729732D02*
X145714924Y-80018499D01*
X145714924Y-80018499D02*
X145738179Y-80271170D01*
X145738179Y-80271170D02*
X145776189Y-80497591D01*
X145776189Y-80497591D02*
X145830604Y-80707604D01*
X145830604Y-80707604D02*
X145903070Y-80911055D01*
X145903070Y-80911055D02*
X145995224Y-81117786D01*
X145995224Y-81117786D02*
X146108717Y-81337642D01*
X146108717Y-81337642D02*
X146205804Y-81490333D01*
X146205804Y-81490333D02*
X146311084Y-81643639D01*
X146311084Y-81643639D02*
X146421286Y-81793251D01*
X146421286Y-81793251D02*
X146533128Y-81934867D01*
X146533128Y-81934867D02*
X146643330Y-82064176D01*
X146643330Y-82064176D02*
X146748611Y-82176873D01*
X146748611Y-82176873D02*
X146845687Y-82268651D01*
X146845687Y-82268651D02*
X146931279Y-82335205D01*
X146931279Y-82335205D02*
X147048009Y-82415771D01*
X147048009Y-82415771D02*
X147136644Y-82490800D01*
X147136644Y-82490800D02*
X147198614Y-82566240D01*
X147198614Y-82566240D02*
X147235359Y-82648037D01*
X147235359Y-82648037D02*
X147248313Y-82742138D01*
X147248313Y-82742138D02*
X147238915Y-82854494D01*
X147238915Y-82854494D02*
X147208596Y-82991050D01*
X147208596Y-82991050D02*
X147158792Y-83157756D01*
X147158792Y-83157756D02*
X147119792Y-83301593D01*
X147119792Y-83301593D02*
X147069921Y-83491371D01*
X147069921Y-83491371D02*
X147011436Y-83718884D01*
X147011436Y-83718884D02*
X146946592Y-83975929D01*
X146946592Y-83975929D02*
X146877648Y-84254308D01*
X146877648Y-84254308D02*
X146806856Y-84545809D01*
X146806856Y-84545809D02*
X146736475Y-84842233D01*
X146736475Y-84842233D02*
X146668761Y-85135377D01*
X146668761Y-85135377D02*
X146531932Y-85692063D01*
X146531932Y-85692063D02*
X146364952Y-86350062D01*
X146364952Y-86350062D02*
X146178697Y-87067947D01*
X146178697Y-87067947D02*
X145984031Y-87804293D01*
X145984031Y-87804293D02*
X145791826Y-88517666D01*
X145791826Y-88517666D02*
X145612954Y-89166642D01*
X145612954Y-89166642D02*
X145458282Y-89709793D01*
X145458282Y-89709793D02*
X145338679Y-90105686D01*
X145338679Y-90105686D02*
X145312122Y-90226996D01*
X145312122Y-90226996D02*
X145339498Y-90318160D01*
X145339498Y-90318160D02*
X145463269Y-90383480D01*
X145463269Y-90383480D02*
X145725888Y-90427267D01*
X145725888Y-90427267D02*
X146169807Y-90453824D01*
X146169807Y-90453824D02*
X146837480Y-90467455D01*
X146837480Y-90467455D02*
X147771361Y-90472479D01*
X147771361Y-90472479D02*
X149013904Y-90473325D01*
X149013904Y-90473325D02*
X149488613Y-90473207D01*
X149623047Y-112357954D02*
X149669026Y-112297945D01*
X149669026Y-112297945D02*
X149708549Y-112233937D01*
X149708549Y-112233937D02*
X149741391Y-112166455D01*
X149741391Y-112166455D02*
X149767327Y-112096032D01*
X149767327Y-112096032D02*
X149786123Y-112023193D01*
X149786123Y-112023193D02*
X149797581Y-111948469D01*
X149797581Y-111948469D02*
X149801448Y-111872388D01*
X149801448Y-111872388D02*
X149801445Y-110903846D01*
X149801445Y-110903846D02*
X149801445Y-109935305D01*
X149801445Y-109935305D02*
X149801445Y-108966763D01*
X149801445Y-108966763D02*
X149801445Y-107998219D01*
X149801445Y-107998219D02*
X149801445Y-107029678D01*
X149801445Y-107029678D02*
X149801445Y-106061136D01*
X149801445Y-106061136D02*
X149801445Y-105092595D01*
X149801445Y-105092595D02*
X149801445Y-104124053D01*
X149801445Y-104124053D02*
X149298288Y-104124053D01*
X149298288Y-104124053D02*
X148795131Y-104124053D01*
X148795131Y-104124053D02*
X148291977Y-104124053D01*
X148291977Y-104124053D02*
X147788820Y-104124053D01*
X147788820Y-104124053D02*
X147285663Y-104124053D01*
X147285663Y-104124053D02*
X146782505Y-104124053D01*
X146782505Y-104124053D02*
X146279351Y-104124053D01*
X146279351Y-104124053D02*
X145776194Y-104124053D01*
X145776194Y-104124053D02*
X145776194Y-105103892D01*
X145776194Y-105103892D02*
X145776194Y-106083731D01*
X145776194Y-106083731D02*
X145776194Y-107063567D01*
X145776194Y-107063567D02*
X145776194Y-108043406D01*
X145776194Y-108043406D02*
X145776194Y-109023245D01*
X145776194Y-109023245D02*
X145776194Y-110003081D01*
X145776194Y-110003081D02*
X145776194Y-110982919D01*
X145776194Y-110982919D02*
X145776194Y-111962758D01*
X145776194Y-111962758D02*
X145781189Y-112049333D01*
X145781189Y-112049333D02*
X145795978Y-112133912D01*
X145795978Y-112133912D02*
X145820136Y-112215745D01*
X145820136Y-112215745D02*
X145853331Y-112294073D01*
X145853331Y-112294073D02*
X145895176Y-112368139D01*
X145895176Y-112368139D02*
X145945302Y-112437191D01*
X145945302Y-112437191D02*
X146003332Y-112500471D01*
X146003332Y-112500471D02*
X146068907Y-112557226D01*
X146068907Y-112557226D02*
X146089198Y-112572832D01*
X146089198Y-112572832D02*
X146109490Y-112588439D01*
X146109490Y-112588439D02*
X146129782Y-112604046D01*
X146129782Y-112604046D02*
X146150074Y-112619653D01*
X146150074Y-112619653D02*
X146170365Y-112635260D01*
X146170365Y-112635260D02*
X146190657Y-112650867D01*
X146190657Y-112650867D02*
X146210949Y-112666474D01*
X146210949Y-112666474D02*
X146231241Y-112682081D01*
X146231241Y-112682081D02*
X146369290Y-112778268D01*
X146369290Y-112778268D02*
X146512066Y-112857640D01*
X146512066Y-112857640D02*
X146665919Y-112921422D01*
X146665919Y-112921422D02*
X146837203Y-112970850D01*
X146837203Y-112970850D02*
X147032278Y-113007150D01*
X147032278Y-113007150D02*
X147257502Y-113031562D01*
X147257502Y-113031562D02*
X147519232Y-113045306D01*
X147519232Y-113045306D02*
X147823826Y-113049624D01*
X147823826Y-113049624D02*
X148151289Y-113045899D01*
X148151289Y-113045899D02*
X148418864Y-113032945D01*
X148418864Y-113032945D02*
X148637219Y-113008081D01*
X148637219Y-113008081D02*
X148817014Y-112968669D01*
X148817014Y-112968669D02*
X148968918Y-112912030D01*
X148968918Y-112912030D02*
X149103594Y-112835500D01*
X149103594Y-112835500D02*
X149231706Y-112736406D01*
X149231706Y-112736406D02*
X149467384Y-112512767D01*
X149467384Y-112512767D02*
X149623052Y-112357974D01*
X149623052Y-112357974D02*
X149623047Y-112357954D01*
X152669678Y-112733631D02*
X152812454Y-112813004D01*
X152812454Y-112813004D02*
X152966305Y-112876786D01*
X152966305Y-112876786D02*
X153137591Y-112926214D01*
X153137591Y-112926214D02*
X153332666Y-112962514D01*
X153332666Y-112962514D02*
X153557891Y-112986926D01*
X153557891Y-112986926D02*
X153819621Y-113000670D01*
X153819621Y-113000670D02*
X154124215Y-113004988D01*
X154124215Y-113004988D02*
X154451677Y-113001263D01*
X154451677Y-113001263D02*
X154719252Y-112988309D01*
X154719252Y-112988309D02*
X154937604Y-112963445D01*
X154937604Y-112963445D02*
X155117400Y-112924033D01*
X155117400Y-112924033D02*
X155269303Y-112867393D01*
X155269303Y-112867393D02*
X155403979Y-112790863D01*
X155403979Y-112790863D02*
X155532094Y-112691769D01*
X155532094Y-112691769D02*
X155664310Y-112567456D01*
X155664310Y-112567456D02*
X155808728Y-112421403D01*
X155808728Y-112421403D02*
X155917254Y-112268577D01*
X155917254Y-112268577D02*
X155995018Y-112064477D01*
X155995018Y-112064477D02*
X156047144Y-111764599D01*
X156047144Y-111764599D02*
X156078764Y-111324439D01*
X156078764Y-111324439D02*
X156094992Y-110699492D01*
X156094992Y-110699492D02*
X156100975Y-109845256D01*
X156100975Y-109845256D02*
X156101822Y-108717223D01*
X156101822Y-108717223D02*
X156101828Y-108290632D01*
X156101828Y-108290632D02*
X156101828Y-107864045D01*
X156101828Y-107864045D02*
X156101828Y-107437455D01*
X156101828Y-107437455D02*
X156101828Y-107010865D01*
X156101828Y-107010865D02*
X156101828Y-106584277D01*
X156101828Y-106584277D02*
X156101828Y-106157687D01*
X156101828Y-106157687D02*
X156101828Y-105731100D01*
X156101828Y-105731100D02*
X156101828Y-105304510D01*
X156101828Y-105304510D02*
X155598670Y-105304510D01*
X155598670Y-105304510D02*
X155095516Y-105304510D01*
X155095516Y-105304510D02*
X154592359Y-105304510D01*
X154592359Y-105304510D02*
X154089202Y-105304510D01*
X154089202Y-105304510D02*
X153586048Y-105304510D01*
X153586048Y-105304510D02*
X153082891Y-105304510D01*
X153082891Y-105304510D02*
X152579737Y-105304510D01*
X152579737Y-105304510D02*
X152076579Y-105304510D01*
X152076579Y-105304510D02*
X152076579Y-106131215D01*
X152076579Y-106131215D02*
X152076579Y-106957917D01*
X152076579Y-106957917D02*
X152076579Y-107784622D01*
X152076579Y-107784622D02*
X152076579Y-108611324D01*
X152076579Y-108611324D02*
X152076579Y-109438029D01*
X152076579Y-109438029D02*
X152076579Y-110264734D01*
X152076579Y-110264734D02*
X152076579Y-111091437D01*
X152076579Y-111091437D02*
X152076579Y-111918142D01*
X152076579Y-111918142D02*
X152081575Y-112004716D01*
X152081575Y-112004716D02*
X152096363Y-112089295D01*
X152096363Y-112089295D02*
X152120521Y-112171129D01*
X152120521Y-112171129D02*
X152153714Y-112249454D01*
X152153714Y-112249454D02*
X152195559Y-112323523D01*
X152195559Y-112323523D02*
X152245684Y-112392574D01*
X152245684Y-112392574D02*
X152303715Y-112455854D01*
X152303715Y-112455854D02*
X152450445Y-112575037D01*
X152450445Y-112575037D02*
X152669669Y-112733651D01*
X152669669Y-112733651D02*
X152669678Y-112733631D01*
X125645066Y-114024409D02*
X125295847Y-114013656D01*
X125295847Y-114013656D02*
X124949061Y-113978658D01*
X124949061Y-113978658D02*
X124605960Y-113919673D01*
X124605960Y-113919673D02*
X124267793Y-113836957D01*
X124267793Y-113836957D02*
X123935815Y-113730770D01*
X123935815Y-113730770D02*
X123611276Y-113601377D01*
X123611276Y-113601377D02*
X123295425Y-113449034D01*
X123295425Y-113449034D02*
X123121587Y-113357540D01*
X123121587Y-113357540D02*
X122947747Y-113266046D01*
X122947747Y-113266046D02*
X122773909Y-113174553D01*
X122773909Y-113174553D02*
X122600071Y-113083059D01*
X122600071Y-113083059D02*
X122426234Y-112991566D01*
X122426234Y-112991566D02*
X122252396Y-112900072D01*
X122252396Y-112900072D02*
X122078556Y-112808578D01*
X122078556Y-112808578D02*
X121904718Y-112717085D01*
X121904718Y-112717085D02*
X120590227Y-112021690D01*
X120590227Y-112021690D02*
X119083797Y-111208164D01*
X119083797Y-111208164D02*
X117418267Y-110295372D01*
X117418267Y-110295372D02*
X115626479Y-109302185D01*
X115626479Y-109302185D02*
X113741271Y-108247472D01*
X113741271Y-108247472D02*
X111795484Y-107150099D01*
X111795484Y-107150099D02*
X109821959Y-106028936D01*
X109821959Y-106028936D02*
X107853536Y-104902851D01*
X107853536Y-104902851D02*
X105923054Y-103790712D01*
X105923054Y-103790712D02*
X104063355Y-102711387D01*
X104063355Y-102711387D02*
X102307277Y-101683745D01*
X102307277Y-101683745D02*
X100687662Y-100726656D01*
X100687662Y-100726656D02*
X99237350Y-99858985D01*
X99237350Y-99858985D02*
X97989180Y-99099603D01*
X97989180Y-99099603D02*
X96230629Y-97981173D01*
X96230629Y-97981173D02*
X95970643Y-97799837D01*
X95970643Y-97799837D02*
X95752085Y-97633063D01*
X95752085Y-97633063D02*
X95570442Y-97475724D01*
X95570442Y-97475724D02*
X95421205Y-97322695D01*
X95421205Y-97322695D02*
X95299859Y-97168842D01*
X95299859Y-97168842D02*
X95201894Y-97009042D01*
X95201894Y-97009042D02*
X95122797Y-96838167D01*
X95122797Y-96838167D02*
X95058056Y-96651091D01*
X95058056Y-96651091D02*
X94933156Y-96291088D01*
X94933156Y-96291088D02*
X94790618Y-95995892D01*
X94790618Y-95995892D02*
X94624290Y-95761405D01*
X94624290Y-95761405D02*
X94428018Y-95583523D01*
X94428018Y-95583523D02*
X94195650Y-95458143D01*
X94195650Y-95458143D02*
X93921034Y-95381167D01*
X93921034Y-95381167D02*
X93598016Y-95348488D01*
X93598016Y-95348488D02*
X93220444Y-95356024D01*
X93220444Y-95356024D02*
X92554548Y-95402469D01*
X92554548Y-95402469D02*
X92054160Y-95425752D01*
X92054160Y-95425752D02*
X91681339Y-95409242D01*
X91681339Y-95409242D02*
X91398143Y-95336333D01*
X91398143Y-95336333D02*
X91166629Y-95190410D01*
X91166629Y-95190410D02*
X90948857Y-94954865D01*
X90948857Y-94954865D02*
X90706885Y-94613079D01*
X90706885Y-94613079D02*
X90402769Y-94148443D01*
X90402769Y-94148443D02*
X90280637Y-93961363D01*
X90280637Y-93961363D02*
X90170606Y-93816741D01*
X90170606Y-93816741D02*
X90063446Y-93709443D01*
X90063446Y-93709443D02*
X89949928Y-93634347D01*
X89949928Y-93634347D02*
X89820823Y-93586321D01*
X89820823Y-93586321D02*
X89666902Y-93560244D01*
X89666902Y-93560244D02*
X89478936Y-93550987D01*
X89478936Y-93550987D02*
X89247697Y-93553527D01*
X89247697Y-93553527D02*
X88835293Y-93605831D01*
X88835293Y-93605831D02*
X88498158Y-93723007D01*
X88498158Y-93723007D02*
X88247572Y-93884483D01*
X88247572Y-93884483D02*
X88094813Y-94069748D01*
X88094813Y-94069748D02*
X88051163Y-94258295D01*
X88051163Y-94258295D02*
X88127902Y-94429615D01*
X88127902Y-94429615D02*
X88336308Y-94563197D01*
X88336308Y-94563197D02*
X88687664Y-94638533D01*
X88687664Y-94638533D02*
X88902940Y-94670356D01*
X88902940Y-94670356D02*
X89080891Y-94719203D01*
X89080891Y-94719203D02*
X89228487Y-94793891D01*
X89228487Y-94793891D02*
X89352704Y-94903238D01*
X89352704Y-94903238D02*
X89460513Y-95056064D01*
X89460513Y-95056064D02*
X89558889Y-95261189D01*
X89558889Y-95261189D02*
X89654803Y-95527431D01*
X89654803Y-95527431D02*
X89755229Y-95863609D01*
X89755229Y-95863609D02*
X89881804Y-96231268D01*
X89881804Y-96231268D02*
X90032785Y-96524274D01*
X90032785Y-96524274D02*
X90219452Y-96748370D01*
X90219452Y-96748370D02*
X90453085Y-96909299D01*
X90453085Y-96909299D02*
X90744963Y-97012801D01*
X90744963Y-97012801D02*
X91106368Y-97064623D01*
X91106368Y-97064623D02*
X91548578Y-97070493D01*
X91548578Y-97070493D02*
X92082874Y-97036180D01*
X92082874Y-97036180D02*
X92572836Y-96998207D01*
X92572836Y-96998207D02*
X92963944Y-96994877D01*
X92963944Y-96994877D02*
X93272195Y-97034631D01*
X93272195Y-97034631D02*
X93513587Y-97125862D01*
X93513587Y-97125862D02*
X93704116Y-97276978D01*
X93704116Y-97276978D02*
X93859779Y-97496392D01*
X93859779Y-97496392D02*
X93996575Y-97792510D01*
X93996575Y-97792510D02*
X94130499Y-98173747D01*
X94130499Y-98173747D02*
X94227747Y-98386055D01*
X94227747Y-98386055D02*
X94429385Y-98631788D01*
X94429385Y-98631788D02*
X94797147Y-98954225D01*
X94797147Y-98954225D02*
X95392765Y-99396642D01*
X95392765Y-99396642D02*
X96277971Y-100002308D01*
X96277971Y-100002308D02*
X97514498Y-100814501D01*
X97514498Y-100814501D02*
X99164077Y-101876497D01*
X99164077Y-101876497D02*
X101288442Y-103231565D01*
X101288442Y-103231565D02*
X102922490Y-104283744D01*
X102922490Y-104283744D02*
X104532055Y-105324003D01*
X104532055Y-105324003D02*
X106110293Y-106347805D01*
X106110293Y-106347805D02*
X107650359Y-107350609D01*
X107650359Y-107350609D02*
X109145407Y-108327879D01*
X109145407Y-108327879D02*
X110588593Y-109275077D01*
X110588593Y-109275077D02*
X111973072Y-110187667D01*
X111973072Y-110187667D02*
X113291999Y-111061112D01*
X113291999Y-111061112D02*
X114538527Y-111890870D01*
X114538527Y-111890870D02*
X115705814Y-112672406D01*
X115705814Y-112672406D02*
X117775285Y-114072663D01*
X117775285Y-114072663D02*
X119445645Y-115225583D01*
X119445645Y-115225583D02*
X120662142Y-116094859D01*
X120662142Y-116094859D02*
X121271536Y-116555050D01*
X121271536Y-116555050D02*
X121747210Y-116924795D01*
X121747210Y-116924795D02*
X122108031Y-117223578D01*
X122108031Y-117223578D02*
X122372874Y-117470884D01*
X122372874Y-117470884D02*
X122560600Y-117686194D01*
X122560600Y-117686194D02*
X122690081Y-117888996D01*
X122690081Y-117888996D02*
X122780183Y-118098769D01*
X122780183Y-118098769D02*
X122849776Y-118335000D01*
X122849776Y-118335000D02*
X122963193Y-118746616D01*
X122963193Y-118746616D02*
X123104089Y-119150439D01*
X123104089Y-119150439D02*
X123268777Y-119540318D01*
X123268777Y-119540318D02*
X123453562Y-119910097D01*
X123453562Y-119910097D02*
X123654758Y-120253623D01*
X123654758Y-120253623D02*
X123868666Y-120564745D01*
X123868666Y-120564745D02*
X124091599Y-120837312D01*
X124091599Y-120837312D02*
X124319866Y-121065167D01*
X124319866Y-121065167D02*
X124579443Y-121255286D01*
X124579443Y-121255286D02*
X125113432Y-121614812D01*
X125113432Y-121614812D02*
X125889428Y-122122823D01*
X125889428Y-122122823D02*
X126875024Y-122758399D01*
X126875024Y-122758399D02*
X128037822Y-123500624D01*
X128037822Y-123500624D02*
X129345411Y-124328573D01*
X129345411Y-124328573D02*
X130765392Y-125221333D01*
X130765392Y-125221333D02*
X132265358Y-126157983D01*
X132265358Y-126157983D02*
X133751789Y-127087490D01*
X133751789Y-127087490D02*
X135132801Y-127959774D01*
X135132801Y-127959774D02*
X136378454Y-128755356D01*
X136378454Y-128755356D02*
X137458806Y-129454751D01*
X137458806Y-129454751D02*
X138343909Y-130038474D01*
X138343909Y-130038474D02*
X139003823Y-130487040D01*
X139003823Y-130487040D02*
X139408603Y-130780972D01*
X139408603Y-130780972D02*
X139528308Y-130900778D01*
X139528308Y-130900778D02*
X139155281Y-131148595D01*
X139155281Y-131148595D02*
X138135603Y-131797161D01*
X138135603Y-131797161D02*
X136539622Y-132802583D01*
X136539622Y-132802583D02*
X134437679Y-134120976D01*
X134437679Y-134120976D02*
X133218959Y-134883819D01*
X133218959Y-134883819D02*
X131900126Y-135708448D01*
X131900126Y-135708448D02*
X130489976Y-136589372D01*
X130489976Y-136589372D02*
X128997304Y-137521108D01*
X128997304Y-137521108D02*
X127430902Y-138498170D01*
X127430902Y-138498170D02*
X125799563Y-139515070D01*
X125799563Y-139515070D02*
X124112079Y-140566323D01*
X124112079Y-140566323D02*
X122377246Y-141646443D01*
X122377246Y-141646443D02*
X120491205Y-142823761D01*
X120491205Y-142823761D02*
X118688689Y-143951628D01*
X118688689Y-143951628D02*
X116974463Y-145026941D01*
X116974463Y-145026941D02*
X115353296Y-146046595D01*
X115353296Y-146046595D02*
X113829959Y-147007493D01*
X113829959Y-147007493D02*
X112409218Y-147906530D01*
X112409218Y-147906530D02*
X111095842Y-148740599D01*
X111095842Y-148740599D02*
X109894600Y-149506617D01*
X109894600Y-149506617D02*
X107847589Y-150822026D01*
X107847589Y-150822026D02*
X106306332Y-151827979D01*
X106306332Y-151827979D02*
X105308975Y-152499612D01*
X105308975Y-152499612D02*
X104893666Y-152812145D01*
X104893666Y-152812145D02*
X104662118Y-153112232D01*
X104662118Y-153112232D02*
X104465436Y-153411274D01*
X104465436Y-153411274D02*
X104302389Y-153713196D01*
X104302389Y-153713196D02*
X104171745Y-154021890D01*
X104171745Y-154021890D02*
X104072276Y-154341253D01*
X104072276Y-154341253D02*
X104002750Y-154675178D01*
X104002750Y-154675178D02*
X103961937Y-155027561D01*
X103961937Y-155027561D02*
X103948605Y-155402296D01*
X103948605Y-155402296D02*
X103962894Y-155793766D01*
X103962894Y-155793766D02*
X104007126Y-156158397D01*
X104007126Y-156158397D02*
X104083351Y-156502087D01*
X104083351Y-156502087D02*
X104193622Y-156830820D01*
X104193622Y-156830820D02*
X104339989Y-157150521D01*
X104339989Y-157150521D02*
X104524503Y-157467146D01*
X104524503Y-157467146D02*
X104749214Y-157786650D01*
X104749214Y-157786650D02*
X105016173Y-158114959D01*
X105016173Y-158114959D02*
X105432097Y-158520541D01*
X105432097Y-158520541D02*
X105898883Y-158855736D01*
X105898883Y-158855736D02*
X106406688Y-159117554D01*
X106406688Y-159117554D02*
X106945667Y-159302861D01*
X106945667Y-159302861D02*
X107505975Y-159408581D01*
X107505975Y-159408581D02*
X108077768Y-159431723D01*
X108077768Y-159431723D02*
X108651203Y-159369070D01*
X108651203Y-159369070D02*
X109216433Y-159217573D01*
X109216433Y-159217573D02*
X109720854Y-158939415D01*
X109720854Y-158939415D02*
X110931812Y-158216672D01*
X110931812Y-158216672D02*
X112769939Y-157098536D01*
X112769939Y-157098536D02*
X115155864Y-155634198D01*
X115155864Y-155634198D02*
X116529446Y-154787573D01*
X116529446Y-154787573D02*
X118010214Y-153872877D01*
X118010214Y-153872877D02*
X119588246Y-152896233D01*
X119588246Y-152896233D02*
X121253622Y-151863793D01*
X121253622Y-151863793D02*
X122996420Y-150781743D01*
X122996420Y-150781743D02*
X124806718Y-149656195D01*
X124806718Y-149656195D02*
X126674595Y-148493326D01*
X126674595Y-148493326D02*
X128590130Y-147299292D01*
X128590130Y-147299292D02*
X130937462Y-145835764D01*
X130937462Y-145835764D02*
X133284795Y-144372235D01*
X133284795Y-144372235D02*
X135632127Y-142908707D01*
X135632127Y-142908707D02*
X137979460Y-141445179D01*
X137979460Y-141445179D02*
X140326795Y-139981651D01*
X140326795Y-139981651D02*
X142674128Y-138518122D01*
X142674128Y-138518122D02*
X145021460Y-137054594D01*
X145021460Y-137054594D02*
X147368793Y-135591066D01*
X147368793Y-135591066D02*
X147438798Y-135634819D01*
X147438798Y-135634819D02*
X147508800Y-135678572D01*
X147508800Y-135678572D02*
X147578806Y-135722325D01*
X147578806Y-135722325D02*
X147648811Y-135766078D01*
X147648811Y-135766078D02*
X147718816Y-135809831D01*
X147718816Y-135809831D02*
X147788818Y-135853583D01*
X147788818Y-135853583D02*
X147858824Y-135897336D01*
X147858824Y-135897336D02*
X147928829Y-135941089D01*
X147928829Y-135941089D02*
X148420364Y-136240589D01*
X148420364Y-136240589D02*
X149606744Y-136975295D01*
X149606744Y-136975295D02*
X151410040Y-138096389D01*
X151410040Y-138096389D02*
X153752312Y-139555063D01*
X153752312Y-139555063D02*
X155101213Y-140395738D01*
X155101213Y-140395738D02*
X156555631Y-141302504D01*
X156555631Y-141302504D02*
X158105827Y-142269262D01*
X158105827Y-142269262D02*
X159742058Y-143289905D01*
X159742058Y-143289905D02*
X161454584Y-144358334D01*
X161454584Y-144358334D02*
X163233661Y-145468446D01*
X163233661Y-145468446D02*
X165069549Y-146614144D01*
X165069549Y-146614144D02*
X166952506Y-147789323D01*
X166952506Y-147789323D02*
X168837270Y-148964308D01*
X168837270Y-148964308D02*
X170678424Y-150109444D01*
X170678424Y-150109444D02*
X172466000Y-151218686D01*
X172466000Y-151218686D02*
X174190024Y-152285998D01*
X174190024Y-152285998D02*
X175840522Y-153305321D01*
X175840522Y-153305321D02*
X177407521Y-154270584D01*
X177407521Y-154270584D02*
X178881053Y-155175780D01*
X178881053Y-155175780D02*
X180251139Y-156014831D01*
X180251139Y-156014831D02*
X182641098Y-157470279D01*
X182641098Y-157470279D02*
X184497612Y-158588584D01*
X184497612Y-158588584D02*
X185740909Y-159321290D01*
X185740909Y-159321290D02*
X186291200Y-159620050D01*
X186291200Y-159620050D02*
X186665900Y-159747276D01*
X186665900Y-159747276D02*
X186998353Y-159840466D01*
X186998353Y-159840466D02*
X187302094Y-159900015D01*
X187302094Y-159900015D02*
X187590655Y-159926261D01*
X187590655Y-159926261D02*
X187877579Y-159919770D01*
X187877579Y-159919770D02*
X188176396Y-159880880D01*
X188176396Y-159880880D02*
X188500644Y-159809986D01*
X188500644Y-159809986D02*
X188863861Y-159707539D01*
X188863861Y-159707539D02*
X189482619Y-159469033D01*
X189482619Y-159469033D02*
X190046824Y-159141514D01*
X190046824Y-159141514D02*
X190547861Y-158736046D01*
X190547861Y-158736046D02*
X190977116Y-158263718D01*
X190977116Y-158263718D02*
X191325976Y-157735596D01*
X191325976Y-157735596D02*
X191585827Y-157162798D01*
X191585827Y-157162798D02*
X191748054Y-156556330D01*
X191748054Y-156556330D02*
X191804044Y-155927314D01*
X191804044Y-155927314D02*
X191776668Y-155579390D01*
X191776668Y-155579390D02*
X191699859Y-155191447D01*
X191699859Y-155191447D02*
X191581625Y-154782620D01*
X191581625Y-154782620D02*
X191429961Y-154371930D01*
X191429961Y-154371930D02*
X191252864Y-153978456D01*
X191252864Y-153978456D02*
X191058334Y-153621276D01*
X191058334Y-153621276D02*
X190854372Y-153319496D01*
X190854372Y-153319496D02*
X190648973Y-153092137D01*
X190648973Y-153092137D02*
X190226416Y-152811806D01*
X190226416Y-152811806D02*
X189138954Y-152119458D01*
X189138954Y-152119458D02*
X187460014Y-151060815D01*
X187460014Y-151060815D02*
X185263013Y-149681623D01*
X185263013Y-149681623D02*
X183993184Y-148886102D01*
X183993184Y-148886102D02*
X182621374Y-148027597D01*
X182621374Y-148027597D02*
X181156760Y-147111821D01*
X181156760Y-147111821D02*
X179608522Y-146144489D01*
X179608522Y-146144489D02*
X177985834Y-145131320D01*
X177985834Y-145131320D02*
X176297877Y-144078030D01*
X176297877Y-144078030D02*
X174553827Y-142990335D01*
X174553827Y-142990335D02*
X172762863Y-141873954D01*
X172762863Y-141873954D02*
X170973510Y-140758384D01*
X170973510Y-140758384D02*
X169234174Y-139673092D01*
X169234174Y-139673092D02*
X167553851Y-138623739D01*
X167553851Y-138623739D02*
X165941541Y-137615996D01*
X165941541Y-137615996D02*
X164406246Y-136655526D01*
X164406246Y-136655526D02*
X162956959Y-135747996D01*
X162956959Y-135747996D02*
X161602678Y-134899068D01*
X161602678Y-134899068D02*
X160352406Y-134114412D01*
X160352406Y-134114412D02*
X158199878Y-132760575D01*
X158199878Y-132760575D02*
X156571354Y-131731804D01*
X156571354Y-131731804D02*
X155538824Y-131073430D01*
X155538824Y-131073430D02*
X155174275Y-130830773D01*
X155174275Y-130830773D02*
X155335237Y-130712914D01*
X155335237Y-130712914D02*
X155808964Y-130399808D01*
X155808964Y-130399808D02*
X156562024Y-129912786D01*
X156562024Y-129912786D02*
X157560986Y-129273174D01*
X157560986Y-129273174D02*
X158772425Y-128502307D01*
X158772425Y-128502307D02*
X160162905Y-127621511D01*
X160162905Y-127621511D02*
X161699001Y-126652115D01*
X161699001Y-126652115D02*
X163347281Y-125615450D01*
X163347281Y-125615450D02*
X164628816Y-124815292D01*
X164628816Y-124815292D02*
X165774942Y-124097812D01*
X165774942Y-124097812D02*
X167693565Y-122888836D01*
X167693565Y-122888836D02*
X169168374Y-121944428D01*
X169168374Y-121944428D02*
X170264584Y-121220488D01*
X170264584Y-121220488D02*
X171047418Y-120672932D01*
X171047418Y-120672932D02*
X171582091Y-120257656D01*
X171582091Y-120257656D02*
X171933821Y-119930569D01*
X171933821Y-119930569D02*
X172167829Y-119647579D01*
X172167829Y-119647579D02*
X172290474Y-119468058D01*
X172290474Y-119468058D02*
X172407373Y-119274589D01*
X172407373Y-119274589D02*
X172516071Y-119072915D01*
X172516071Y-119072915D02*
X172614104Y-118868781D01*
X172614104Y-118868781D02*
X172699011Y-118667929D01*
X172699011Y-118667929D02*
X172768333Y-118476103D01*
X172768333Y-118476103D02*
X172819604Y-118299040D01*
X172819604Y-118299040D02*
X172850369Y-118142488D01*
X172850369Y-118142488D02*
X172912579Y-117819298D01*
X172912579Y-117819298D02*
X173029755Y-117525849D01*
X173029755Y-117525849D02*
X173235529Y-117232807D01*
X173235529Y-117232807D02*
X173563539Y-116910850D01*
X173563539Y-116910850D02*
X174047417Y-116530646D01*
X174047417Y-116530646D02*
X174720797Y-116062869D01*
X174720797Y-116062869D02*
X175617318Y-115478189D01*
X175617318Y-115478189D02*
X176770614Y-114747278D01*
X176770614Y-114747278D02*
X177463035Y-114308110D01*
X177463035Y-114308110D02*
X178323014Y-113754091D01*
X178323014Y-113754091D02*
X179316303Y-113108191D01*
X179316303Y-113108191D02*
X180408650Y-112393381D01*
X180408650Y-112393381D02*
X181565806Y-111632632D01*
X181565806Y-111632632D02*
X182753521Y-110848909D01*
X182753521Y-110848909D02*
X183937542Y-110065189D01*
X183937542Y-110065189D02*
X185083624Y-109304439D01*
X185083624Y-109304439D02*
X186300394Y-108488656D01*
X186300394Y-108488656D02*
X187687184Y-107559253D01*
X187687184Y-107559253D02*
X189195800Y-106548635D01*
X189195800Y-106548635D02*
X190778039Y-105489204D01*
X190778039Y-105489204D02*
X192385712Y-104413368D01*
X192385712Y-104413368D02*
X193970622Y-103353524D01*
X193970622Y-103353524D02*
X195484566Y-102342085D01*
X195484566Y-102342085D02*
X196879356Y-101411452D01*
X196879356Y-101411452D02*
X198187631Y-100538005D01*
X198187631Y-100538005D02*
X199453655Y-99690602D01*
X199453655Y-99690602D02*
X200646667Y-98890372D01*
X200646667Y-98890372D02*
X201735904Y-98158437D01*
X201735904Y-98158437D02*
X202690602Y-97515921D01*
X202690602Y-97515921D02*
X203479998Y-96983952D01*
X203479998Y-96983952D02*
X204073325Y-96583648D01*
X204073325Y-96583648D02*
X204439821Y-96336136D01*
X204439821Y-96336136D02*
X204994591Y-95944209D01*
X204994591Y-95944209D02*
X205455432Y-95563356D01*
X205455432Y-95563356D02*
X205828493Y-95184963D01*
X205828493Y-95184963D02*
X206119927Y-94800419D01*
X206119927Y-94800419D02*
X206335889Y-94401105D01*
X206335889Y-94401105D02*
X206482529Y-93978415D01*
X206482529Y-93978415D02*
X206566002Y-93523727D01*
X206566002Y-93523727D02*
X206592446Y-93028433D01*
X206592446Y-93028433D02*
X206589624Y-92741272D01*
X206589624Y-92741272D02*
X206580564Y-92506409D01*
X206580564Y-92506409D02*
X206563716Y-92318717D01*
X206563716Y-92318717D02*
X206537638Y-92173068D01*
X206537638Y-92173068D02*
X206500893Y-92064336D01*
X206500893Y-92064336D02*
X206452046Y-91987394D01*
X206452046Y-91987394D02*
X206389666Y-91937113D01*
X206389666Y-91937113D02*
X206312371Y-91908366D01*
X206312371Y-91908366D02*
X206156080Y-91907237D01*
X206156080Y-91907237D02*
X206003426Y-91954408D01*
X206003426Y-91954408D02*
X205856512Y-92047519D01*
X205856512Y-92047519D02*
X205717391Y-92184109D01*
X205717391Y-92184109D02*
X205588116Y-92361717D01*
X205588116Y-92361717D02*
X205470737Y-92577882D01*
X205470737Y-92577882D02*
X205367302Y-92830146D01*
X205367302Y-92830146D02*
X205279864Y-93115992D01*
X205279864Y-93115992D02*
X205158348Y-93459674D01*
X205158348Y-93459674D02*
X204980432Y-93805046D01*
X204980432Y-93805046D02*
X204750424Y-94147136D01*
X204750424Y-94147136D02*
X204472627Y-94481022D01*
X204472627Y-94481022D02*
X204151354Y-94801785D01*
X204151354Y-94801785D02*
X203790905Y-95104499D01*
X203790905Y-95104499D02*
X203395591Y-95384243D01*
X203395591Y-95384243D02*
X202969720Y-95636096D01*
X202969720Y-95636096D02*
X202459045Y-95918301D01*
X202459045Y-95918301D02*
X201742457Y-96325200D01*
X201742457Y-96325200D02*
X200802733Y-96866641D01*
X200802733Y-96866641D02*
X199622641Y-97552463D01*
X199622641Y-97552463D02*
X198184953Y-98392518D01*
X198184953Y-98392518D02*
X196472445Y-99396642D01*
X196472445Y-99396642D02*
X194467886Y-100574682D01*
X194467886Y-100574682D02*
X192154050Y-101936481D01*
X192154050Y-101936481D02*
X190551676Y-102878230D01*
X190551676Y-102878230D02*
X188988268Y-103792755D01*
X188988268Y-103792755D02*
X187466290Y-104678671D01*
X187466290Y-104678671D02*
X185988200Y-105534591D01*
X185988200Y-105534591D02*
X184556462Y-106359135D01*
X184556462Y-106359135D02*
X183173536Y-107150912D01*
X183173536Y-107150912D02*
X181841881Y-107908543D01*
X181841881Y-107908543D02*
X180563960Y-108630642D01*
X180563960Y-108630642D02*
X178179165Y-109962709D01*
X178179165Y-109962709D02*
X176038837Y-111136033D01*
X176038837Y-111136033D02*
X174162666Y-112139542D01*
X174162666Y-112139542D02*
X172570343Y-112962161D01*
X172570343Y-112962161D02*
X172054025Y-113217499D01*
X172054025Y-113217499D02*
X171645791Y-113410079D01*
X171645791Y-113410079D02*
X171324106Y-113546056D01*
X171324106Y-113546056D02*
X171067436Y-113631578D01*
X171067436Y-113631578D02*
X170854242Y-113672802D01*
X170854242Y-113672802D02*
X170662994Y-113675878D01*
X170662994Y-113675878D02*
X170472159Y-113646959D01*
X170472159Y-113646959D02*
X170260196Y-113592199D01*
X170260196Y-113592199D02*
X169938375Y-113511769D01*
X169938375Y-113511769D02*
X169585586Y-113454105D01*
X169585586Y-113454105D02*
X169215158Y-113419002D01*
X169215158Y-113419002D02*
X168840423Y-113406246D01*
X168840423Y-113406246D02*
X168474711Y-113415644D01*
X168474711Y-113415644D02*
X168131357Y-113446988D01*
X168131357Y-113446988D02*
X167823687Y-113500074D01*
X167823687Y-113500074D02*
X167565033Y-113574696D01*
X167565033Y-113574696D02*
X167272470Y-113735388D01*
X167272470Y-113735388D02*
X166619154Y-114121880D01*
X166619154Y-114121880D02*
X165646305Y-114708953D01*
X165646305Y-114708953D02*
X164395149Y-115471379D01*
X164395149Y-115471379D02*
X162906907Y-116383930D01*
X162906907Y-116383930D02*
X161222802Y-117421382D01*
X161222802Y-117421382D02*
X159384060Y-118558506D01*
X159384060Y-118558506D02*
X157431903Y-119770081D01*
X157431903Y-119770081D02*
X155490310Y-120975059D01*
X155490310Y-120975059D02*
X153669717Y-122105382D01*
X153669717Y-122105382D02*
X152010739Y-123135623D01*
X152010739Y-123135623D02*
X150553978Y-124040345D01*
X150553978Y-124040345D02*
X149340047Y-124794124D01*
X149340047Y-124794124D02*
X148409549Y-125371523D01*
X148409549Y-125371523D02*
X147803096Y-125747113D01*
X147803096Y-125747113D02*
X147561294Y-125895463D01*
X147561294Y-125895463D02*
X147342292Y-125812060D01*
X147342292Y-125812060D02*
X146790426Y-125517003D01*
X146790426Y-125517003D02*
X145925590Y-125021776D01*
X145925590Y-125021776D02*
X144767683Y-124337864D01*
X144767683Y-124337864D02*
X143336594Y-123476756D01*
X143336594Y-123476756D02*
X141652215Y-122449936D01*
X141652215Y-122449936D02*
X139734445Y-121268887D01*
X139734445Y-121268887D02*
X137603176Y-119945095D01*
X137603176Y-119945095D02*
X136560060Y-119294087D01*
X136560060Y-119294087D02*
X135516947Y-118643077D01*
X135516947Y-118643077D02*
X134473831Y-117992069D01*
X134473831Y-117992069D02*
X133430718Y-117341059D01*
X133430718Y-117341059D02*
X132387605Y-116690051D01*
X132387605Y-116690051D02*
X131344489Y-116039043D01*
X131344489Y-116039043D02*
X130301373Y-115388033D01*
X130301373Y-115388033D02*
X129258260Y-114737025D01*
X129258260Y-114737025D02*
X128913630Y-114540489D01*
X128913630Y-114540489D02*
X128556218Y-114372623D01*
X128556218Y-114372623D02*
X128187813Y-114233868D01*
X128187813Y-114233868D02*
X127810206Y-114124665D01*
X127810206Y-114124665D02*
X127425190Y-114045462D01*
X127425190Y-114045462D02*
X127034555Y-113996694D01*
X127034555Y-113996694D02*
X126640087Y-113978801D01*
X126640087Y-113978801D02*
X126243585Y-113992235D01*
X126243585Y-113992235D02*
X126212568Y-113994493D01*
X126212568Y-113994493D02*
X126181552Y-113996751D01*
X126181552Y-113996751D02*
X126150536Y-113999009D01*
X126150536Y-113999009D02*
X126119520Y-114001266D01*
X126119520Y-114001266D02*
X126088503Y-114003524D01*
X126088503Y-114003524D02*
X126057487Y-114005782D01*
X126057487Y-114005782D02*
X126026471Y-114008040D01*
X126026471Y-114008040D02*
X125995455Y-114010580D01*
X125995455Y-114010580D02*
X125645053Y-114024550D01*
X125645053Y-114024550D02*
X125645066Y-114024409D01*
X143326045Y-109418133D02*
X143326045Y-109111862D01*
X143326045Y-109111862D02*
X143326045Y-108805592D01*
X143326045Y-108805592D02*
X143326045Y-108499324D01*
X143326045Y-108499324D02*
X143326045Y-108193057D01*
X143326045Y-108193057D02*
X143326045Y-107886786D01*
X143326045Y-107886786D02*
X143326045Y-107580516D01*
X143326045Y-107580516D02*
X143326045Y-107274249D01*
X143326045Y-107274249D02*
X142822888Y-107274249D01*
X142822888Y-107274249D02*
X142319731Y-107274249D01*
X142319731Y-107274249D02*
X141816577Y-107274249D01*
X141816577Y-107274249D02*
X141313420Y-107274249D01*
X141313420Y-107274249D02*
X140810263Y-107274249D01*
X140810263Y-107274249D02*
X140307106Y-107274249D01*
X140307106Y-107274249D02*
X139803951Y-107274249D01*
X139803951Y-107274249D02*
X139300794Y-107274249D01*
X139300794Y-107274249D02*
X139300794Y-107589268D01*
X139300794Y-107589268D02*
X139300794Y-107904287D01*
X139300794Y-107904287D02*
X139300794Y-108219306D01*
X139300794Y-108219306D02*
X139300794Y-108534326D01*
X139300794Y-108534326D02*
X139300794Y-108849345D01*
X139300794Y-108849345D02*
X139300794Y-109164364D01*
X139300794Y-109164364D02*
X139300794Y-109479383D01*
X139300794Y-109479383D02*
X139300794Y-109794403D01*
X139300794Y-109794403D02*
X139301641Y-110627686D01*
X139301641Y-110627686D02*
X139307850Y-111259571D01*
X139307850Y-111259571D02*
X139324727Y-111723281D01*
X139324727Y-111723281D02*
X139357611Y-112052042D01*
X139357611Y-112052042D02*
X139411823Y-112279079D01*
X139411823Y-112279079D02*
X139492697Y-112437614D01*
X139492697Y-112437614D02*
X139605566Y-112560872D01*
X139605566Y-112560872D02*
X139755790Y-112682081D01*
X139755790Y-112682081D02*
X139893882Y-112778268D01*
X139893882Y-112778268D02*
X140036661Y-112857640D01*
X140036661Y-112857640D02*
X140190511Y-112921422D01*
X140190511Y-112921422D02*
X140361798Y-112970850D01*
X140361798Y-112970850D02*
X140556872Y-113007150D01*
X140556872Y-113007150D02*
X140782097Y-113031562D01*
X140782097Y-113031562D02*
X141043827Y-113045306D01*
X141043827Y-113045306D02*
X141348421Y-113049624D01*
X141348421Y-113049624D02*
X141675883Y-113045899D01*
X141675883Y-113045899D02*
X141943458Y-113032945D01*
X141943458Y-113032945D02*
X142161814Y-113008081D01*
X142161814Y-113008081D02*
X142341609Y-112968669D01*
X142341609Y-112968669D02*
X142493512Y-112912030D01*
X142493512Y-112912030D02*
X142628189Y-112835500D01*
X142628189Y-112835500D02*
X142756301Y-112736406D01*
X142756301Y-112736406D02*
X142888516Y-112612092D01*
X142888516Y-112612092D02*
X143027909Y-112470073D01*
X143027909Y-112470073D02*
X143134078Y-112325792D01*
X143134078Y-112325792D02*
X143211534Y-112149107D01*
X143211534Y-112149107D02*
X143264789Y-111909867D01*
X143264789Y-111909867D02*
X143298356Y-111577929D01*
X143298356Y-111577929D02*
X143316757Y-111123139D01*
X143316757Y-111123139D02*
X143324490Y-110515353D01*
X143324490Y-110515353D02*
X143326184Y-109724420D01*
X143326184Y-109724420D02*
X143326045Y-109418133D01*
X139240348Y-101225433D02*
X139240348Y-101302000D01*
X139240348Y-101302000D02*
X139240348Y-101378570D01*
X139240348Y-101378570D02*
X139240348Y-101455137D01*
X139240348Y-101455137D02*
X139240348Y-101531704D01*
X139240348Y-101531704D02*
X139240348Y-101608273D01*
X139240348Y-101608273D02*
X139240348Y-101684840D01*
X139240348Y-101684840D02*
X139284981Y-101694464D01*
X139284981Y-101694464D02*
X139332637Y-101809599D01*
X139332637Y-101809599D02*
X139343842Y-101952102D01*
X139343842Y-101952102D02*
X139366532Y-102059741D01*
X139366532Y-102059741D02*
X139403997Y-102137231D01*
X139403997Y-102137231D02*
X139459508Y-102189290D01*
X139459508Y-102189290D02*
X139536348Y-102220636D01*
X139536348Y-102220636D02*
X139637799Y-102235989D01*
X139637799Y-102235989D02*
X139767144Y-102240053D01*
X139767144Y-102240053D02*
X139911563Y-102243299D01*
X139911563Y-102243299D02*
X140020091Y-102266018D01*
X140020091Y-102266018D02*
X140097855Y-102327714D01*
X140097855Y-102327714D02*
X140149981Y-102447865D01*
X140149981Y-102447865D02*
X140181601Y-102645948D01*
X140181601Y-102645948D02*
X140197829Y-102941449D01*
X140197829Y-102941449D02*
X140203812Y-103353852D01*
X140203812Y-103353852D02*
X140204659Y-103902650D01*
X140204659Y-103902650D02*
X140203812Y-104451445D01*
X140203812Y-104451445D02*
X140197829Y-104863848D01*
X140197829Y-104863848D02*
X140181601Y-105159349D01*
X140181601Y-105159349D02*
X140149981Y-105357432D01*
X140149981Y-105357432D02*
X140097855Y-105477582D01*
X140097855Y-105477582D02*
X140020091Y-105539279D01*
X140020091Y-105539279D02*
X139911563Y-105561998D01*
X139911563Y-105561998D02*
X139767136Y-105565243D01*
X139767136Y-105565243D02*
X139637785Y-105569307D01*
X139637785Y-105569307D02*
X139536334Y-105584660D01*
X139536334Y-105584660D02*
X139459494Y-105616007D01*
X139459494Y-105616007D02*
X139403983Y-105668065D01*
X139403983Y-105668065D02*
X139366518Y-105745555D01*
X139366518Y-105745555D02*
X139343828Y-105853195D01*
X139343828Y-105853195D02*
X139332623Y-105995697D01*
X139332623Y-105995697D02*
X139329604Y-106155466D01*
X139329604Y-106155466D02*
X139329604Y-106209715D01*
X139329604Y-106209715D02*
X139329604Y-106286282D01*
X139329604Y-106286282D02*
X139329604Y-106362849D01*
X139329604Y-106362849D02*
X139329604Y-106439415D01*
X139329604Y-106439415D02*
X139329604Y-106515985D01*
X139329604Y-106515985D02*
X139329604Y-106592552D01*
X139329604Y-106592552D02*
X139329604Y-106669119D01*
X139329604Y-106669119D02*
X139329604Y-106768001D01*
X139329604Y-106768001D02*
X139832761Y-106790325D01*
X139832761Y-106790325D02*
X140335915Y-106790325D01*
X140335915Y-106790325D02*
X140839072Y-106790325D01*
X140839072Y-106790325D02*
X141342229Y-106790325D01*
X141342229Y-106790325D02*
X141845386Y-106790325D01*
X141845386Y-106790325D02*
X142348540Y-106790325D01*
X142348540Y-106790325D02*
X142851697Y-106790325D01*
X142851697Y-106790325D02*
X143332539Y-106723373D01*
X143332539Y-106723373D02*
X143310215Y-106579855D01*
X143310215Y-106579855D02*
X143310215Y-106503288D01*
X143310215Y-106503288D02*
X143310215Y-106426721D01*
X143310215Y-106426721D02*
X143310215Y-106350154D01*
X143310215Y-106350154D02*
X143310215Y-106273584D01*
X143310215Y-106273584D02*
X143310215Y-106197018D01*
X143310215Y-106197018D02*
X143310215Y-106120451D01*
X143310215Y-106120451D02*
X143332539Y-106110827D01*
X143332539Y-106110827D02*
X143351843Y-105995692D01*
X143351843Y-105995692D02*
X143340639Y-105853189D01*
X143340639Y-105853189D02*
X143317948Y-105745550D01*
X143317948Y-105745550D02*
X143280486Y-105668060D01*
X143280486Y-105668060D02*
X143224973Y-105616001D01*
X143224973Y-105616001D02*
X143148132Y-105584655D01*
X143148132Y-105584655D02*
X143046682Y-105569302D01*
X143046682Y-105569302D02*
X142917334Y-105565238D01*
X142917334Y-105565238D02*
X142772915Y-105561992D01*
X142772915Y-105561992D02*
X142664389Y-105539273D01*
X142664389Y-105539273D02*
X142586626Y-105477577D01*
X142586626Y-105477577D02*
X142534499Y-105357426D01*
X142534499Y-105357426D02*
X142502879Y-105159343D01*
X142502879Y-105159343D02*
X142486651Y-104863842D01*
X142486651Y-104863842D02*
X142480668Y-104451439D01*
X142480668Y-104451439D02*
X142479822Y-103902641D01*
X142479822Y-103902641D02*
X142480668Y-103353846D01*
X142480668Y-103353846D02*
X142486651Y-102941443D01*
X142486651Y-102941443D02*
X142502879Y-102645942D01*
X142502879Y-102645942D02*
X142534499Y-102447859D01*
X142534499Y-102447859D02*
X142586626Y-102327709D01*
X142586626Y-102327709D02*
X142664389Y-102266012D01*
X142664389Y-102266012D02*
X142772915Y-102243293D01*
X142772915Y-102243293D02*
X142917342Y-102240048D01*
X142917342Y-102240048D02*
X143046693Y-102235984D01*
X143046693Y-102235984D02*
X143148144Y-102220631D01*
X143148144Y-102220631D02*
X143224984Y-102189284D01*
X143224984Y-102189284D02*
X143280497Y-102137226D01*
X143280497Y-102137226D02*
X143317960Y-102059736D01*
X143317960Y-102059736D02*
X143340650Y-101952096D01*
X143340650Y-101952096D02*
X143351854Y-101809594D01*
X143351854Y-101809594D02*
X143377198Y-101649828D01*
X143377198Y-101649828D02*
X143399522Y-101595579D01*
X143399522Y-101595579D02*
X143399522Y-101519012D01*
X143399522Y-101519012D02*
X143399522Y-101442442D01*
X143399522Y-101442442D02*
X143399522Y-101365875D01*
X143399522Y-101365875D02*
X143399522Y-101289309D01*
X143399522Y-101289309D02*
X143399522Y-101212739D01*
X143399522Y-101212739D02*
X143399522Y-101136172D01*
X143399522Y-101136172D02*
X143377198Y-101037287D01*
X143377198Y-101037287D02*
X142851723Y-101014963D01*
X142851723Y-101014963D02*
X142348566Y-101014963D01*
X142348566Y-101014963D02*
X141845412Y-101014963D01*
X141845412Y-101014963D02*
X141342254Y-101014963D01*
X141342254Y-101014963D02*
X140839097Y-101014963D01*
X140839097Y-101014963D02*
X140335940Y-101014963D01*
X140335940Y-101014963D02*
X139832786Y-101014963D01*
X139832786Y-101014963D02*
X139284996Y-101081915D01*
X139284996Y-101081915D02*
X139240348Y-101225433D01*
X137200663Y-104824094D02*
X137200663Y-96423575D01*
X137200663Y-96423575D02*
X139300794Y-96423575D01*
X139300794Y-96423575D02*
X139300794Y-100798846D01*
X139300794Y-100798846D02*
X143326045Y-100798846D01*
X143326045Y-100798846D02*
X143326045Y-97823662D01*
X143326045Y-97823662D02*
X145776194Y-97823662D01*
X145776194Y-97823662D02*
X145776194Y-103774030D01*
X145776194Y-103774030D02*
X149801445Y-103774030D01*
X149801445Y-103774030D02*
X149801445Y-96073554D01*
X149801445Y-96073554D02*
X152076585Y-96073554D01*
X152076585Y-96073554D02*
X152076585Y-104999108D01*
X152076585Y-104999108D02*
X156101833Y-104999108D01*
X156101833Y-104999108D02*
X156101833Y-99748782D01*
X156101833Y-99748782D02*
X158201964Y-99748782D01*
X158201964Y-99748782D02*
X158201964Y-106924225D01*
X158201964Y-106924225D02*
X162229696Y-106924225D01*
X162229696Y-106924225D02*
X162229696Y-97173518D01*
X162229696Y-97173518D02*
X163769791Y-96035948D01*
X163769791Y-96035948D02*
X165858826Y-94272051D01*
X165858826Y-94272051D02*
X167779606Y-92322773D01*
X167779606Y-92322773D02*
X169511215Y-90204332D01*
X169511215Y-90204332D02*
X171032738Y-87932944D01*
X171032738Y-87932944D02*
X172191049Y-85633334D01*
X172191049Y-85633334D02*
X173126174Y-83230600D01*
X173126174Y-83230600D02*
X173832756Y-80750764D01*
X173832756Y-80750764D02*
X174305440Y-78219843D01*
X174305440Y-78219843D02*
X174489876Y-75572624D01*
X174489876Y-75572624D02*
X174367644Y-72938217D01*
X174367644Y-72938217D02*
X173954334Y-70339568D01*
X173954334Y-70339568D02*
X173265539Y-67799625D01*
X173265539Y-67799625D02*
X172316849Y-65341334D01*
X172316849Y-65341334D02*
X171123855Y-62987641D01*
X171123855Y-62987641D02*
X169702148Y-60761494D01*
X169702148Y-60761494D02*
X168067319Y-58685839D01*
X168067319Y-58685839D02*
X166234960Y-56783623D01*
X166234960Y-56783623D02*
X164296383Y-55094556D01*
X164296383Y-55094556D02*
X162220762Y-53586369D01*
X162220762Y-53586369D02*
X160025099Y-52261784D01*
X160025099Y-52261784D02*
X157726401Y-51123520D01*
X157726401Y-51123520D02*
X155341670Y-50174300D01*
X155341670Y-50174300D02*
X152887910Y-49416844D01*
X152887910Y-49416844D02*
X150382127Y-48853874D01*
X150382127Y-48853874D02*
X147841324Y-48488110D01*
X147841324Y-48488110D02*
X145136566Y-48319629D01*
X145136566Y-48319629D02*
X142424421Y-48375619D01*
X142424421Y-48375619D02*
X139724328Y-48653856D01*
X139724328Y-48653856D02*
X137055727Y-49152116D01*
X137055727Y-49152116D02*
X134438058Y-49868175D01*
X134438058Y-49868175D02*
X131890760Y-50799810D01*
X131890760Y-50799810D02*
X129433274Y-51944795D01*
X129433274Y-51944795D02*
X127085040Y-53300908D01*
X127085040Y-53300908D02*
X125112222Y-54702396D01*
X125112222Y-54702396D02*
X123246556Y-56257251D01*
X123246556Y-56257251D02*
X121508472Y-57957032D01*
X121508472Y-57957032D02*
X119918399Y-59793296D01*
X119918399Y-59793296D02*
X118496767Y-61757601D01*
X118496767Y-61757601D02*
X117264007Y-63841505D01*
X117264007Y-63841505D02*
X116240548Y-66036565D01*
X116240548Y-66036565D02*
X115446819Y-68334338D01*
X115446819Y-68334338D02*
X114811243Y-70887477D01*
X114811243Y-70887477D02*
X114497623Y-73490565D01*
X114497623Y-73490565D02*
X114501764Y-76122320D01*
X114501764Y-76122320D02*
X114641025Y-78682080D01*
X114641025Y-78682080D02*
X115114299Y-81197635D01*
X115114299Y-81197635D02*
X115825916Y-83556022D01*
X115825916Y-83556022D02*
X116756011Y-85831854D01*
X116756011Y-85831854D02*
X117893832Y-88010059D01*
X117893832Y-88010059D02*
X119228629Y-90075566D01*
X119228629Y-90075566D02*
X120749648Y-92013302D01*
X120749648Y-92013302D02*
X122689044Y-94008725D01*
X122689044Y-94008725D02*
X124819346Y-95806768D01*
X124819346Y-95806768D02*
X127108769Y-97405149D01*
X127108769Y-97405149D02*
X129525530Y-98801585D01*
X129525530Y-98801585D02*
X132037845Y-99993796D01*
X132037845Y-99993796D02*
X133087912Y-100413821D01*
X133087912Y-100413821D02*
X133192907Y-104824094D01*
X133192907Y-104824094D02*
X137200663Y-104824094D01*
X135533004Y-113045876D02*
X135800578Y-113032922D01*
X135800578Y-113032922D02*
X136018934Y-113008087D01*
X136018934Y-113008087D02*
X136198729Y-112968675D01*
X136198729Y-112968675D02*
X136350632Y-112912035D01*
X136350632Y-112912035D02*
X136485309Y-112835505D01*
X136485309Y-112835505D02*
X136613421Y-112736411D01*
X136613421Y-112736411D02*
X136745636Y-112612084D01*
X136745636Y-112612084D02*
X136890055Y-112465845D01*
X136890055Y-112465845D02*
X136998581Y-112311822D01*
X136998581Y-112311822D02*
X137076344Y-112104476D01*
X137076344Y-112104476D02*
X137128471Y-111798274D01*
X137128471Y-111798274D02*
X137160091Y-111347689D01*
X137160091Y-111347689D02*
X137176319Y-110707191D01*
X137176319Y-110707191D02*
X137182302Y-109831250D01*
X137182302Y-109831250D02*
X137183148Y-108674333D01*
X137183148Y-108674333D02*
X137183157Y-108236807D01*
X137183157Y-108236807D02*
X137183157Y-107799278D01*
X137183157Y-107799278D02*
X137183157Y-107361752D01*
X137183157Y-107361752D02*
X137183157Y-106924225D01*
X137183157Y-106924225D02*
X137183157Y-106486699D01*
X137183157Y-106486699D02*
X137183157Y-106049173D01*
X137183157Y-106049173D02*
X137183157Y-105611644D01*
X137183157Y-105611644D02*
X137183157Y-105174117D01*
X137183157Y-105174117D02*
X136682187Y-105174117D01*
X136682187Y-105174117D02*
X136181220Y-105174117D01*
X136181220Y-105174117D02*
X135680250Y-105174117D01*
X135680250Y-105174117D02*
X135179283Y-105174117D01*
X135179283Y-105174117D02*
X134678316Y-105174117D01*
X134678316Y-105174117D02*
X134177346Y-105174117D01*
X134177346Y-105174117D02*
X133676376Y-105174117D01*
X133676376Y-105174117D02*
X133175409Y-105174117D01*
X133175409Y-105174117D02*
X133175409Y-105620395D01*
X133175409Y-105620395D02*
X133175409Y-106066673D01*
X133175409Y-106066673D02*
X133175409Y-106512951D01*
X133175409Y-106512951D02*
X133175409Y-106959226D01*
X133175409Y-106959226D02*
X133175409Y-107405504D01*
X133175409Y-107405504D02*
X133175409Y-107851782D01*
X133175409Y-107851782D02*
X133175409Y-108298060D01*
X133175409Y-108298060D02*
X133175409Y-108744338D01*
X133175409Y-108744338D02*
X133176256Y-109901255D01*
X133176256Y-109901255D02*
X133182239Y-110777196D01*
X133182239Y-110777196D02*
X133198467Y-111417694D01*
X133198467Y-111417694D02*
X133230087Y-111868279D01*
X133230087Y-111868279D02*
X133282214Y-112174481D01*
X133282214Y-112174481D02*
X133359977Y-112381827D01*
X133359977Y-112381827D02*
X133468506Y-112535850D01*
X133468506Y-112535850D02*
X133612930Y-112682081D01*
X133612930Y-112682081D02*
X133750999Y-112778268D01*
X133750999Y-112778268D02*
X133893775Y-112857637D01*
X133893775Y-112857637D02*
X134047628Y-112921419D01*
X134047628Y-112921419D02*
X134218912Y-112970848D01*
X134218912Y-112970848D02*
X134413990Y-113007147D01*
X134413990Y-113007147D02*
X134639211Y-113031559D01*
X134639211Y-113031559D02*
X134900941Y-113045304D01*
X134900941Y-113045304D02*
X135205535Y-113049622D01*
X135205535Y-113049622D02*
X135532998Y-113045896D01*
X135532998Y-113045896D02*
X135533004Y-113045876D01*
X162227215Y-109418133D02*
X162227215Y-109111862D01*
X162227215Y-109111862D02*
X162227215Y-108805592D01*
X162227215Y-108805592D02*
X162227215Y-108499324D01*
X162227215Y-108499324D02*
X162227215Y-108193057D01*
X162227215Y-108193057D02*
X162227215Y-107886786D01*
X162227215Y-107886786D02*
X162227215Y-107580516D01*
X162227215Y-107580516D02*
X162227215Y-107274249D01*
X162227215Y-107274249D02*
X161724058Y-107274249D01*
X161724058Y-107274249D02*
X161220901Y-107274249D01*
X161220901Y-107274249D02*
X160717747Y-107274249D01*
X160717747Y-107274249D02*
X160214590Y-107274249D01*
X160214590Y-107274249D02*
X159711433Y-107274249D01*
X159711433Y-107274249D02*
X159208276Y-107274249D01*
X159208276Y-107274249D02*
X158705122Y-107274249D01*
X158705122Y-107274249D02*
X158201964Y-107274249D01*
X158201964Y-107274249D02*
X158201964Y-107589268D01*
X158201964Y-107589268D02*
X158201964Y-107904287D01*
X158201964Y-107904287D02*
X158201964Y-108219306D01*
X158201964Y-108219306D02*
X158201964Y-108534326D01*
X158201964Y-108534326D02*
X158201964Y-108849345D01*
X158201964Y-108849345D02*
X158201964Y-109164364D01*
X158201964Y-109164364D02*
X158201964Y-109479383D01*
X158201964Y-109479383D02*
X158201964Y-109794403D01*
X158201964Y-109794403D02*
X158202811Y-110627686D01*
X158202811Y-110627686D02*
X158209020Y-111259571D01*
X158209020Y-111259571D02*
X158225897Y-111723281D01*
X158225897Y-111723281D02*
X158258781Y-112052042D01*
X158258781Y-112052042D02*
X158312994Y-112279079D01*
X158312994Y-112279079D02*
X158393867Y-112437614D01*
X158393867Y-112437614D02*
X158506736Y-112560872D01*
X158506736Y-112560872D02*
X158656960Y-112682081D01*
X158656960Y-112682081D02*
X158795052Y-112778268D01*
X158795052Y-112778268D02*
X158937831Y-112857640D01*
X158937831Y-112857640D02*
X159091681Y-112921422D01*
X159091681Y-112921422D02*
X159262968Y-112970850D01*
X159262968Y-112970850D02*
X159458042Y-113007150D01*
X159458042Y-113007150D02*
X159683267Y-113031562D01*
X159683267Y-113031562D02*
X159944997Y-113045306D01*
X159944997Y-113045306D02*
X160249591Y-113049624D01*
X160249591Y-113049624D02*
X160577054Y-113045899D01*
X160577054Y-113045899D02*
X160844628Y-113032945D01*
X160844628Y-113032945D02*
X161062981Y-113008081D01*
X161062981Y-113008081D02*
X161242776Y-112968669D01*
X161242776Y-112968669D02*
X161394682Y-112912030D01*
X161394682Y-112912030D02*
X161529359Y-112835500D01*
X161529359Y-112835500D02*
X161657471Y-112736406D01*
X161657471Y-112736406D02*
X161789686Y-112612092D01*
X161789686Y-112612092D02*
X161929079Y-112470073D01*
X161929079Y-112470073D02*
X162035248Y-112325792D01*
X162035248Y-112325792D02*
X162112704Y-112149107D01*
X162112704Y-112149107D02*
X162165959Y-111909867D01*
X162165959Y-111909867D02*
X162199527Y-111577929D01*
X162199527Y-111577929D02*
X162217927Y-111123139D01*
X162217927Y-111123139D02*
X162225660Y-110515353D01*
X162225660Y-110515353D02*
X162227354Y-109724420D01*
X162227354Y-109724420D02*
X162227215Y-109418133D01*
D14*
G36*
X165497923Y-69397749D02*
X165464327Y-68732444D01*
X165365724Y-68086358D01*
X165205379Y-67462760D01*
X164986570Y-66864926D01*
X164712560Y-66296118D01*
X164386627Y-65759614D01*
X164012037Y-65258683D01*
X163592062Y-64796595D01*
X163129974Y-64376620D01*
X162629041Y-64002032D01*
X162092536Y-63676097D01*
X161523731Y-63402090D01*
X160925894Y-63183280D01*
X160302296Y-63022936D01*
X159656210Y-62924333D01*
X158990905Y-62890737D01*
X158325600Y-62924333D01*
X157679515Y-63022936D01*
X157055919Y-63183280D01*
X156458082Y-63402090D01*
X155889275Y-63676097D01*
X155352770Y-64002032D01*
X154851840Y-64376620D01*
X154389749Y-64796595D01*
X153969774Y-65258683D01*
X153595186Y-65759614D01*
X153269251Y-66296118D01*
X152995241Y-66864926D01*
X152776431Y-67462760D01*
X152616087Y-68086358D01*
X152517484Y-68732444D01*
X152483888Y-69397749D01*
X152517484Y-70063054D01*
X152616087Y-70709139D01*
X152776431Y-71332738D01*
X152995241Y-71930572D01*
X153269251Y-72499379D01*
X153595183Y-73035884D01*
X153969774Y-73536814D01*
X154389749Y-73998902D01*
X154851837Y-74418877D01*
X155352770Y-74793465D01*
X155889275Y-75119401D01*
X156458079Y-75393407D01*
X157055916Y-75612217D01*
X157679515Y-75772562D01*
X158325600Y-75871165D01*
X158990905Y-75904760D01*
X159656210Y-75871165D01*
X160302296Y-75772562D01*
X160925892Y-75612217D01*
X161523728Y-75393407D01*
X162092536Y-75119401D01*
X162629041Y-74793465D01*
X163129971Y-74418877D01*
X163592062Y-73998902D01*
X164012037Y-73536814D01*
X164386625Y-73035884D01*
X164712560Y-72499379D01*
X164986570Y-71930572D01*
X165205379Y-71332738D01*
X165365724Y-70709139D01*
X165464327Y-70063054D01*
X165497923Y-69397749D01*
X165497923Y-69397749D01*
G37*
X165497923Y-69397749D02*
X165464327Y-68732444D01*
X165365724Y-68086358D01*
X165205379Y-67462760D01*
X164986570Y-66864926D01*
X164712560Y-66296118D01*
X164386627Y-65759614D01*
X164012037Y-65258683D01*
X163592062Y-64796595D01*
X163129974Y-64376620D01*
X162629041Y-64002032D01*
X162092536Y-63676097D01*
X161523731Y-63402090D01*
X160925894Y-63183280D01*
X160302296Y-63022936D01*
X159656210Y-62924333D01*
X158990905Y-62890737D01*
X158325600Y-62924333D01*
X157679515Y-63022936D01*
X157055919Y-63183280D01*
X156458082Y-63402090D01*
X155889275Y-63676097D01*
X155352770Y-64002032D01*
X154851840Y-64376620D01*
X154389749Y-64796595D01*
X153969774Y-65258683D01*
X153595186Y-65759614D01*
X153269251Y-66296118D01*
X152995241Y-66864926D01*
X152776431Y-67462760D01*
X152616087Y-68086358D01*
X152517484Y-68732444D01*
X152483888Y-69397749D01*
X152517484Y-70063054D01*
X152616087Y-70709139D01*
X152776431Y-71332738D01*
X152995241Y-71930572D01*
X153269251Y-72499379D01*
X153595183Y-73035884D01*
X153969774Y-73536814D01*
X154389749Y-73998902D01*
X154851837Y-74418877D01*
X155352770Y-74793465D01*
X155889275Y-75119401D01*
X156458079Y-75393407D01*
X157055916Y-75612217D01*
X157679515Y-75772562D01*
X158325600Y-75871165D01*
X158990905Y-75904760D01*
X159656210Y-75871165D01*
X160302296Y-75772562D01*
X160925892Y-75612217D01*
X161523728Y-75393407D01*
X162092536Y-75119401D01*
X162629041Y-74793465D01*
X163129971Y-74418877D01*
X163592062Y-73998902D01*
X164012037Y-73536814D01*
X164386625Y-73035884D01*
X164712560Y-72499379D01*
X164986570Y-71930572D01*
X165205379Y-71332738D01*
X165365724Y-70709139D01*
X165464327Y-70063054D01*
X165497923Y-69397749D01*
G36*
X144052728Y-68212811D02*
X144005210Y-67265712D01*
X143865121Y-66345950D01*
X143637122Y-65458189D01*
X143325867Y-64607083D01*
X142936014Y-63797291D01*
X142472219Y-63033477D01*
X141939140Y-62320293D01*
X141341433Y-61662405D01*
X140683757Y-61064463D01*
X139970767Y-60531134D01*
X139207116Y-60067073D01*
X138397469Y-59676940D01*
X137546476Y-59365395D01*
X136658796Y-59137091D01*
X135739088Y-58996694D01*
X134792006Y-58948860D01*
X133844925Y-58996694D01*
X132925214Y-59137091D01*
X132037529Y-59365395D01*
X131186533Y-59676940D01*
X130376880Y-60067073D01*
X129613226Y-60531134D01*
X128900228Y-61064463D01*
X128242546Y-61662405D01*
X127644836Y-62320293D01*
X127111755Y-63033477D01*
X126647959Y-63797291D01*
X126258109Y-64607083D01*
X125946860Y-65458189D01*
X125718867Y-66345950D01*
X125578791Y-67265712D01*
X125531288Y-68212811D01*
X125578806Y-69159909D01*
X125718895Y-70079671D01*
X125946894Y-70967432D01*
X126258148Y-71818538D01*
X126648002Y-72628330D01*
X127111797Y-73392144D01*
X127644875Y-74105328D01*
X128242580Y-74763219D01*
X128900259Y-75361158D01*
X129613248Y-75894487D01*
X130376897Y-76358548D01*
X131186547Y-76748681D01*
X132037537Y-77060226D01*
X132925217Y-77288530D01*
X133844925Y-77428927D01*
X134792006Y-77476761D01*
X135739091Y-77428927D01*
X136658802Y-77288530D01*
X137546484Y-77060226D01*
X138397483Y-76748681D01*
X139207136Y-76358548D01*
X139970790Y-75894487D01*
X140683788Y-75361158D01*
X141341470Y-74763219D01*
X141939180Y-74105328D01*
X142472261Y-73392144D01*
X142936056Y-72628330D01*
X143325907Y-71818538D01*
X143637156Y-70967432D01*
X143865149Y-70079671D01*
X144005224Y-69159909D01*
X144052728Y-68212811D01*
X144052728Y-68212811D01*
G37*
X144052728Y-68212811D02*
X144005210Y-67265712D01*
X143865121Y-66345950D01*
X143637122Y-65458189D01*
X143325867Y-64607083D01*
X142936014Y-63797291D01*
X142472219Y-63033477D01*
X141939140Y-62320293D01*
X141341433Y-61662405D01*
X140683757Y-61064463D01*
X139970767Y-60531134D01*
X139207116Y-60067073D01*
X138397469Y-59676940D01*
X137546476Y-59365395D01*
X136658796Y-59137091D01*
X135739088Y-58996694D01*
X134792006Y-58948860D01*
X133844925Y-58996694D01*
X132925214Y-59137091D01*
X132037529Y-59365395D01*
X131186533Y-59676940D01*
X130376880Y-60067073D01*
X129613226Y-60531134D01*
X128900228Y-61064463D01*
X128242546Y-61662405D01*
X127644836Y-62320293D01*
X127111755Y-63033477D01*
X126647959Y-63797291D01*
X126258109Y-64607083D01*
X125946860Y-65458189D01*
X125718867Y-66345950D01*
X125578791Y-67265712D01*
X125531288Y-68212811D01*
X125578806Y-69159909D01*
X125718895Y-70079671D01*
X125946894Y-70967432D01*
X126258148Y-71818538D01*
X126648002Y-72628330D01*
X127111797Y-73392144D01*
X127644875Y-74105328D01*
X128242580Y-74763219D01*
X128900259Y-75361158D01*
X129613248Y-75894487D01*
X130376897Y-76358548D01*
X131186547Y-76748681D01*
X132037537Y-77060226D01*
X132925217Y-77288530D01*
X133844925Y-77428927D01*
X134792006Y-77476761D01*
X135739091Y-77428927D01*
X136658802Y-77288530D01*
X137546484Y-77060226D01*
X138397483Y-76748681D01*
X139207136Y-76358548D01*
X139970790Y-75894487D01*
X140683788Y-75361158D01*
X141341470Y-74763219D01*
X141939180Y-74105328D01*
X142472261Y-73392144D01*
X142936056Y-72628330D01*
X143325907Y-71818538D01*
X143637156Y-70967432D01*
X143865149Y-70079671D01*
X144005224Y-69159909D01*
X144052728Y-68212811D01*
D12*
X140450000Y-121300000D02*
X140450000Y-122300000D01*
X142150000Y-122300000D02*
X142150000Y-121300000D01*
X176320000Y-143610000D02*
X175920000Y-143610000D01*
X177090000Y-148190000D02*
X175920000Y-148190000D01*
X172510000Y-148190000D02*
X173680000Y-148190000D01*
X173280000Y-143610000D02*
X173680000Y-143610000D01*
X172510000Y-144380000D02*
X172510000Y-148190000D01*
X172510000Y-144380000D02*
X173280000Y-143610000D01*
X177090000Y-144380000D02*
X177090000Y-148190000D01*
X177090000Y-144380000D02*
X176320000Y-143610000D01*
X138250000Y-127500000D02*
X138250000Y-128500000D01*
X139950000Y-128500000D02*
X139950000Y-127500000D01*
X158250000Y-119100000D02*
X158250000Y-118100000D01*
X156550000Y-118100000D02*
X156550000Y-119100000D01*
X136250000Y-127500000D02*
X136250000Y-128500000D01*
X137950000Y-128500000D02*
X137950000Y-127500000D01*
X158107000Y-123152800D02*
X157107000Y-123152800D01*
X157107000Y-124852800D02*
X158107000Y-124852800D01*
X160150000Y-119100000D02*
X160150000Y-118100000D01*
X158450000Y-118100000D02*
X158450000Y-119100000D01*
X158132400Y-124753000D02*
X157132400Y-124753000D01*
X157132400Y-126453000D02*
X158132400Y-126453000D01*
X159150000Y-97000000D02*
X159150000Y-98000000D01*
X160850000Y-98000000D02*
X160850000Y-97000000D01*
X156650000Y-97000000D02*
X156650000Y-98000000D01*
X158350000Y-98000000D02*
X158350000Y-97000000D01*
X145450000Y-96600000D02*
X146450000Y-96600000D01*
X146450000Y-94900000D02*
X145450000Y-94900000D01*
X138200000Y-70600000D02*
X132100000Y-70600000D01*
X138200000Y-69500000D02*
X138200000Y-70600000D01*
X132100000Y-65200000D02*
X137100000Y-65200000D01*
X155400000Y-66500000D02*
X161500000Y-66500000D01*
X155400000Y-67600000D02*
X155400000Y-66500000D01*
X161500000Y-71900000D02*
X156500000Y-71900000D01*
X136050000Y-106500000D02*
X134350000Y-106500000D01*
X134350000Y-106550000D02*
X134350000Y-110600000D01*
X136050000Y-106550000D02*
X136050000Y-110600000D01*
X142250000Y-101400000D02*
X140550000Y-101400000D01*
X140550000Y-101450000D02*
X140550000Y-105500000D01*
X142250000Y-101450000D02*
X142250000Y-105500000D01*
X148550000Y-105700000D02*
X146850000Y-105700000D01*
X146850000Y-105750000D02*
X146850000Y-109800000D01*
X148550000Y-105750000D02*
X148550000Y-109800000D01*
X154950000Y-106600000D02*
X153250000Y-106600000D01*
X153250000Y-106650000D02*
X153250000Y-110700000D01*
X154950000Y-106650000D02*
X154950000Y-110700000D01*
X161150000Y-107700000D02*
X159450000Y-107700000D01*
X159450000Y-107750000D02*
X159450000Y-111800000D01*
X161150000Y-107750000D02*
X161150000Y-111800000D01*
X142770000Y-116330000D02*
X158070000Y-116330000D01*
X158070000Y-116330000D02*
X158070000Y-113670000D01*
X158070000Y-113670000D02*
X142770000Y-113670000D01*
X142770000Y-113670000D02*
X142770000Y-116330000D01*
X141500000Y-116330000D02*
X140170000Y-116330000D01*
X140170000Y-116330000D02*
X140170000Y-115000000D01*
X112031732Y-110489951D02*
X113480471Y-108259088D01*
X105590742Y-106307123D02*
X112031732Y-110489951D01*
X107039482Y-104076260D02*
X113480471Y-108259088D01*
X105590742Y-106307123D02*
X107039482Y-104076260D01*
X104525630Y-105615432D02*
X103410198Y-104891062D01*
X103410198Y-104891062D02*
X104134568Y-103775630D01*
X122031732Y-116489951D02*
X123480471Y-114259088D01*
X115590742Y-112307123D02*
X122031732Y-116489951D01*
X117039482Y-110076260D02*
X123480471Y-114259088D01*
X115590742Y-112307123D02*
X117039482Y-110076260D01*
X114525630Y-111615432D02*
X113410198Y-110891062D01*
X113410198Y-110891062D02*
X114134568Y-109775630D01*
X111570000Y-71150000D02*
X111570000Y-79850000D01*
X117980000Y-71150000D02*
X117980000Y-79850000D01*
X117980000Y-79850000D02*
X111570000Y-79850000D01*
X112800000Y-79850000D02*
X112800000Y-71150000D01*
X111570000Y-71150000D02*
X117980000Y-71150000D01*
X127330000Y-115130000D02*
X124670000Y-115130000D01*
X127330000Y-117730000D02*
X127330000Y-115130000D01*
X124670000Y-117730000D02*
X124670000Y-115130000D01*
X127330000Y-117730000D02*
X124670000Y-117730000D01*
X127330000Y-119000000D02*
X127330000Y-120330000D01*
X127330000Y-120330000D02*
X126000000Y-120330000D01*
X134930000Y-123570000D02*
X132270000Y-123570000D01*
X134930000Y-126170000D02*
X134930000Y-123570000D01*
X132270000Y-126170000D02*
X132270000Y-123570000D01*
X134930000Y-126170000D02*
X132270000Y-126170000D01*
X134930000Y-127440000D02*
X134930000Y-128770000D01*
X134930000Y-128770000D02*
X133600000Y-128770000D01*
X123700000Y-76780000D02*
X122500000Y-76780000D01*
X122500000Y-75020000D02*
X123700000Y-75020000D01*
X123750000Y-74630000D02*
X122550000Y-74630000D01*
X122550000Y-72870000D02*
X123750000Y-72870000D01*
X169800000Y-149120000D02*
X171000000Y-149120000D01*
X171000000Y-150880000D02*
X169800000Y-150880000D01*
X171000000Y-148680000D02*
X169800000Y-148680000D01*
X169800000Y-146920000D02*
X171000000Y-146920000D01*
X128120000Y-118100000D02*
X128120000Y-116900000D01*
X129880000Y-116900000D02*
X129880000Y-118100000D01*
X140021200Y-121040600D02*
X140021200Y-122240600D01*
X138261200Y-122240600D02*
X138261200Y-121040600D01*
X136320000Y-112600000D02*
X136320000Y-111400000D01*
X138080000Y-111400000D02*
X138080000Y-112600000D01*
X140520000Y-108800000D02*
X140520000Y-107600000D01*
X142280000Y-107600000D02*
X142280000Y-108800000D01*
X150120000Y-112400000D02*
X150120000Y-111200000D01*
X151880000Y-111200000D02*
X151880000Y-112400000D01*
X156320000Y-112300000D02*
X156320000Y-111100000D01*
X158080000Y-111100000D02*
X158080000Y-112300000D01*
X162920000Y-113400000D02*
X162920000Y-112200000D01*
X164680000Y-112200000D02*
X164680000Y-113400000D01*
D11*
X148150000Y-97245000D02*
X148150000Y-97900000D01*
X153650000Y-97245000D02*
X153650000Y-97995000D01*
X153650000Y-103655000D02*
X153650000Y-102905000D01*
X148150000Y-103655000D02*
X148150000Y-102905000D01*
X148150000Y-97245000D02*
X153650000Y-97245000D01*
X148150000Y-103655000D02*
X153650000Y-103655000D01*
X148150000Y-97900000D02*
X146400000Y-97900000D01*
X168850000Y-145650000D02*
X168850000Y-144750000D01*
D15*
X168950000Y-144250000D02*
X170950000Y-144250000D01*
D12*
X162347600Y-92770000D02*
X167547600Y-92770000D01*
X162347600Y-90170000D02*
X162347600Y-92770000D01*
X167547600Y-87570000D02*
X167547600Y-92770000D01*
X162347600Y-90170000D02*
X164947600Y-90170000D01*
X164947600Y-90170000D02*
X164947600Y-87570000D01*
X164947600Y-87570000D02*
X167547600Y-87570000D01*
X162347600Y-88900000D02*
X162347600Y-87570000D01*
X162347600Y-87570000D02*
X163677600Y-87570000D01*
X167808600Y-120202000D02*
X173008600Y-120202000D01*
X167808600Y-115062000D02*
X167808600Y-120202000D01*
X173008600Y-112462000D02*
X173008600Y-120202000D01*
X167808600Y-115062000D02*
X170408600Y-115062000D01*
X170408600Y-115062000D02*
X170408600Y-112462000D01*
X170408600Y-112462000D02*
X173008600Y-112462000D01*
X167808600Y-113792000D02*
X167808600Y-112462000D01*
X167808600Y-112462000D02*
X169138600Y-112462000D01*
D11*
X144831386Y-118908882D02*
X145403806Y-119481302D01*
X145504821Y-119514974D01*
X145572164Y-119514974D01*
X145673179Y-119481302D01*
X145807867Y-119346614D01*
X145841539Y-119245599D01*
X145841539Y-119178256D01*
X145807867Y-119077241D01*
X145235447Y-118504821D01*
X145605836Y-118269119D02*
X145605836Y-118201775D01*
X145639508Y-118100760D01*
X145807867Y-117932401D01*
X145908882Y-117898729D01*
X145976226Y-117898729D01*
X146077241Y-117932401D01*
X146144584Y-117999744D01*
X146211928Y-118134431D01*
X146211928Y-118942554D01*
X146649661Y-118504821D01*
X169533334Y-137852381D02*
X169057143Y-137852381D01*
X169057143Y-136852381D01*
X170390477Y-137852381D02*
X169819048Y-137852381D01*
X170104762Y-137852381D02*
X170104762Y-136852381D01*
X170009524Y-136995238D01*
X169914286Y-137090476D01*
X169819048Y-137138095D01*
X161217143Y-143566666D02*
X161264762Y-143614285D01*
X161312381Y-143757142D01*
X161312381Y-143852380D01*
X161264762Y-143995238D01*
X161169524Y-144090476D01*
X161074286Y-144138095D01*
X160883810Y-144185714D01*
X160740952Y-144185714D01*
X160550476Y-144138095D01*
X160455238Y-144090476D01*
X160360000Y-143995238D01*
X160312381Y-143852380D01*
X160312381Y-143757142D01*
X160360000Y-143614285D01*
X160407619Y-143566666D01*
X161312381Y-142614285D02*
X161312381Y-143185714D01*
X161312381Y-142900000D02*
X160312381Y-142900000D01*
X160455238Y-142995238D01*
X160550476Y-143090476D01*
X160598095Y-143185714D01*
X162461429Y-141010952D02*
X162461429Y-140249047D01*
X162842381Y-140629999D02*
X162080476Y-140629999D01*
X144643318Y-131654233D02*
X144037569Y-132032747D01*
X143891184Y-132068065D01*
X143759950Y-132037767D01*
X143643864Y-131941852D01*
X143593395Y-131861086D01*
X144072846Y-132628367D02*
X144173783Y-132789900D01*
X144264635Y-132845433D01*
X144330253Y-132860582D01*
X144501871Y-132865646D01*
X144688638Y-132805092D01*
X145011704Y-132603218D01*
X145067236Y-132512366D01*
X145082385Y-132446749D01*
X145072300Y-132340748D01*
X144971363Y-132179214D01*
X144880511Y-132123682D01*
X144814894Y-132108533D01*
X144708893Y-132118618D01*
X144506977Y-132244790D01*
X144451445Y-132335641D01*
X144436295Y-132401259D01*
X144446380Y-132507260D01*
X144547318Y-132668793D01*
X144638169Y-132724326D01*
X144703787Y-132739474D01*
X144809788Y-132729389D01*
X140157143Y-121966666D02*
X140204762Y-122014285D01*
X140252381Y-122157142D01*
X140252381Y-122252380D01*
X140204762Y-122395238D01*
X140109524Y-122490476D01*
X140014286Y-122538095D01*
X139823810Y-122585714D01*
X139680952Y-122585714D01*
X139490476Y-122538095D01*
X139395238Y-122490476D01*
X139300000Y-122395238D01*
X139252381Y-122252380D01*
X139252381Y-122157142D01*
X139300000Y-122014285D01*
X139347619Y-121966666D01*
X139585714Y-121109523D02*
X140252381Y-121109523D01*
X139204762Y-121347619D02*
X139919048Y-121585714D01*
X139919048Y-120966666D01*
X171617143Y-146066666D02*
X171664762Y-146114285D01*
X171712381Y-146257142D01*
X171712381Y-146352380D01*
X171664762Y-146495238D01*
X171569524Y-146590476D01*
X171474286Y-146638095D01*
X171283810Y-146685714D01*
X171140952Y-146685714D01*
X170950476Y-146638095D01*
X170855238Y-146590476D01*
X170760000Y-146495238D01*
X170712381Y-146352380D01*
X170712381Y-146257142D01*
X170760000Y-146114285D01*
X170807619Y-146066666D01*
X170807619Y-145685714D02*
X170760000Y-145638095D01*
X170712381Y-145542857D01*
X170712381Y-145304761D01*
X170760000Y-145209523D01*
X170807619Y-145161904D01*
X170902857Y-145114285D01*
X170998095Y-145114285D01*
X171140952Y-145161904D01*
X171712381Y-145733333D01*
X171712381Y-145114285D01*
X172861429Y-143510952D02*
X172861429Y-142749047D01*
X173242381Y-143129999D02*
X172480476Y-143129999D01*
X139507143Y-130916666D02*
X139554762Y-130964285D01*
X139602381Y-131107142D01*
X139602381Y-131202380D01*
X139554762Y-131345238D01*
X139459524Y-131440476D01*
X139364286Y-131488095D01*
X139173810Y-131535714D01*
X139030952Y-131535714D01*
X138840476Y-131488095D01*
X138745238Y-131440476D01*
X138650000Y-131345238D01*
X138602381Y-131202380D01*
X138602381Y-131107142D01*
X138650000Y-130964285D01*
X138697619Y-130916666D01*
X138602381Y-130583333D02*
X138602381Y-129964285D01*
X138983333Y-130297619D01*
X138983333Y-130154761D01*
X139030952Y-130059523D01*
X139078571Y-130011904D01*
X139173810Y-129964285D01*
X139411905Y-129964285D01*
X139507143Y-130011904D01*
X139554762Y-130059523D01*
X139602381Y-130154761D01*
X139602381Y-130440476D01*
X139554762Y-130535714D01*
X139507143Y-130583333D01*
X159257143Y-118766666D02*
X159304762Y-118814285D01*
X159352381Y-118957142D01*
X159352381Y-119052380D01*
X159304762Y-119195238D01*
X159209524Y-119290476D01*
X159114286Y-119338095D01*
X158923810Y-119385714D01*
X158780952Y-119385714D01*
X158590476Y-119338095D01*
X158495238Y-119290476D01*
X158400000Y-119195238D01*
X158352381Y-119052380D01*
X158352381Y-118957142D01*
X158400000Y-118814285D01*
X158447619Y-118766666D01*
X158352381Y-117861904D02*
X158352381Y-118338095D01*
X158828571Y-118385714D01*
X158780952Y-118338095D01*
X158733333Y-118242857D01*
X158733333Y-118004761D01*
X158780952Y-117909523D01*
X158828571Y-117861904D01*
X158923810Y-117814285D01*
X159161905Y-117814285D01*
X159257143Y-117861904D01*
X159304762Y-117909523D01*
X159352381Y-118004761D01*
X159352381Y-118242857D01*
X159304762Y-118338095D01*
X159257143Y-118385714D01*
X137557143Y-130966666D02*
X137604762Y-131014285D01*
X137652381Y-131157142D01*
X137652381Y-131252380D01*
X137604762Y-131395238D01*
X137509524Y-131490476D01*
X137414286Y-131538095D01*
X137223810Y-131585714D01*
X137080952Y-131585714D01*
X136890476Y-131538095D01*
X136795238Y-131490476D01*
X136700000Y-131395238D01*
X136652381Y-131252380D01*
X136652381Y-131157142D01*
X136700000Y-131014285D01*
X136747619Y-130966666D01*
X136652381Y-130109523D02*
X136652381Y-130300000D01*
X136700000Y-130395238D01*
X136747619Y-130442857D01*
X136890476Y-130538095D01*
X137080952Y-130585714D01*
X137461905Y-130585714D01*
X137557143Y-130538095D01*
X137604762Y-130490476D01*
X137652381Y-130395238D01*
X137652381Y-130204761D01*
X137604762Y-130109523D01*
X137557143Y-130061904D01*
X137461905Y-130014285D01*
X137223810Y-130014285D01*
X137128571Y-130061904D01*
X137080952Y-130109523D01*
X137033333Y-130204761D01*
X137033333Y-130395238D01*
X137080952Y-130490476D01*
X137128571Y-130538095D01*
X137223810Y-130585714D01*
X154590334Y-124359943D02*
X154542715Y-124407562D01*
X154399858Y-124455181D01*
X154304620Y-124455181D01*
X154161762Y-124407562D01*
X154066524Y-124312324D01*
X154018905Y-124217086D01*
X153971286Y-124026610D01*
X153971286Y-123883752D01*
X154018905Y-123693276D01*
X154066524Y-123598038D01*
X154161762Y-123502800D01*
X154304620Y-123455181D01*
X154399858Y-123455181D01*
X154542715Y-123502800D01*
X154590334Y-123550419D01*
X154923667Y-123455181D02*
X155590334Y-123455181D01*
X155161762Y-124455181D01*
X159707143Y-116066666D02*
X159754762Y-116114285D01*
X159802381Y-116257142D01*
X159802381Y-116352380D01*
X159754762Y-116495238D01*
X159659524Y-116590476D01*
X159564286Y-116638095D01*
X159373810Y-116685714D01*
X159230952Y-116685714D01*
X159040476Y-116638095D01*
X158945238Y-116590476D01*
X158850000Y-116495238D01*
X158802381Y-116352380D01*
X158802381Y-116257142D01*
X158850000Y-116114285D01*
X158897619Y-116066666D01*
X159230952Y-115495238D02*
X159183333Y-115590476D01*
X159135714Y-115638095D01*
X159040476Y-115685714D01*
X158992857Y-115685714D01*
X158897619Y-115638095D01*
X158850000Y-115590476D01*
X158802381Y-115495238D01*
X158802381Y-115304761D01*
X158850000Y-115209523D01*
X158897619Y-115161904D01*
X158992857Y-115114285D01*
X159040476Y-115114285D01*
X159135714Y-115161904D01*
X159183333Y-115209523D01*
X159230952Y-115304761D01*
X159230952Y-115495238D01*
X159278571Y-115590476D01*
X159326190Y-115638095D01*
X159421429Y-115685714D01*
X159611905Y-115685714D01*
X159707143Y-115638095D01*
X159754762Y-115590476D01*
X159802381Y-115495238D01*
X159802381Y-115304761D01*
X159754762Y-115209523D01*
X159707143Y-115161904D01*
X159611905Y-115114285D01*
X159421429Y-115114285D01*
X159326190Y-115161904D01*
X159278571Y-115209523D01*
X159230952Y-115304761D01*
X154665734Y-126010143D02*
X154618115Y-126057762D01*
X154475258Y-126105381D01*
X154380020Y-126105381D01*
X154237162Y-126057762D01*
X154141924Y-125962524D01*
X154094305Y-125867286D01*
X154046686Y-125676810D01*
X154046686Y-125533952D01*
X154094305Y-125343476D01*
X154141924Y-125248238D01*
X154237162Y-125153000D01*
X154380020Y-125105381D01*
X154475258Y-125105381D01*
X154618115Y-125153000D01*
X154665734Y-125200619D01*
X155141924Y-126105381D02*
X155332400Y-126105381D01*
X155427639Y-126057762D01*
X155475258Y-126010143D01*
X155570496Y-125867286D01*
X155618115Y-125676810D01*
X155618115Y-125295857D01*
X155570496Y-125200619D01*
X155522877Y-125153000D01*
X155427639Y-125105381D01*
X155237162Y-125105381D01*
X155141924Y-125153000D01*
X155094305Y-125200619D01*
X155046686Y-125295857D01*
X155046686Y-125533952D01*
X155094305Y-125629190D01*
X155141924Y-125676810D01*
X155237162Y-125724429D01*
X155427639Y-125724429D01*
X155522877Y-125676810D01*
X155570496Y-125629190D01*
X155618115Y-125533952D01*
X160357143Y-94642857D02*
X160404762Y-94690476D01*
X160452381Y-94833333D01*
X160452381Y-94928571D01*
X160404762Y-95071429D01*
X160309524Y-95166667D01*
X160214286Y-95214286D01*
X160023810Y-95261905D01*
X159880952Y-95261905D01*
X159690476Y-95214286D01*
X159595238Y-95166667D01*
X159500000Y-95071429D01*
X159452381Y-94928571D01*
X159452381Y-94833333D01*
X159500000Y-94690476D01*
X159547619Y-94642857D01*
X160452381Y-93690476D02*
X160452381Y-94261905D01*
X160452381Y-93976191D02*
X159452381Y-93976191D01*
X159595238Y-94071429D01*
X159690476Y-94166667D01*
X159738095Y-94261905D01*
X159452381Y-93071429D02*
X159452381Y-92976190D01*
X159500000Y-92880952D01*
X159547619Y-92833333D01*
X159642857Y-92785714D01*
X159833333Y-92738095D01*
X160071429Y-92738095D01*
X160261905Y-92785714D01*
X160357143Y-92833333D01*
X160404762Y-92880952D01*
X160452381Y-92976190D01*
X160452381Y-93071429D01*
X160404762Y-93166667D01*
X160357143Y-93214286D01*
X160261905Y-93261905D01*
X160071429Y-93309524D01*
X159833333Y-93309524D01*
X159642857Y-93261905D01*
X159547619Y-93214286D01*
X159500000Y-93166667D01*
X159452381Y-93071429D01*
X157857143Y-94642857D02*
X157904762Y-94690476D01*
X157952381Y-94833333D01*
X157952381Y-94928571D01*
X157904762Y-95071429D01*
X157809524Y-95166667D01*
X157714286Y-95214286D01*
X157523810Y-95261905D01*
X157380952Y-95261905D01*
X157190476Y-95214286D01*
X157095238Y-95166667D01*
X157000000Y-95071429D01*
X156952381Y-94928571D01*
X156952381Y-94833333D01*
X157000000Y-94690476D01*
X157047619Y-94642857D01*
X157952381Y-93690476D02*
X157952381Y-94261905D01*
X157952381Y-93976191D02*
X156952381Y-93976191D01*
X157095238Y-94071429D01*
X157190476Y-94166667D01*
X157238095Y-94261905D01*
X157952381Y-92738095D02*
X157952381Y-93309524D01*
X157952381Y-93023810D02*
X156952381Y-93023810D01*
X157095238Y-93119048D01*
X157190476Y-93214286D01*
X157238095Y-93309524D01*
X145307143Y-97607143D02*
X145259524Y-97654762D01*
X145116667Y-97702381D01*
X145021429Y-97702381D01*
X144878571Y-97654762D01*
X144783333Y-97559524D01*
X144735714Y-97464286D01*
X144688095Y-97273810D01*
X144688095Y-97130952D01*
X144735714Y-96940476D01*
X144783333Y-96845238D01*
X144878571Y-96750000D01*
X145021429Y-96702381D01*
X145116667Y-96702381D01*
X145259524Y-96750000D01*
X145307143Y-96797619D01*
X146259524Y-97702381D02*
X145688095Y-97702381D01*
X145973809Y-97702381D02*
X145973809Y-96702381D01*
X145878571Y-96845238D01*
X145783333Y-96940476D01*
X145688095Y-96988095D01*
X146640476Y-96797619D02*
X146688095Y-96750000D01*
X146783333Y-96702381D01*
X147021429Y-96702381D01*
X147116667Y-96750000D01*
X147164286Y-96797619D01*
X147211905Y-96892857D01*
X147211905Y-96988095D01*
X147164286Y-97130952D01*
X146592857Y-97702381D01*
X147211905Y-97702381D01*
X133861905Y-71852381D02*
X133861905Y-70852381D01*
X134100000Y-70852381D01*
X134242858Y-70900000D01*
X134338096Y-70995238D01*
X134385715Y-71090476D01*
X134433334Y-71280952D01*
X134433334Y-71423810D01*
X134385715Y-71614286D01*
X134338096Y-71709524D01*
X134242858Y-71804762D01*
X134100000Y-71852381D01*
X133861905Y-71852381D01*
X135385715Y-71852381D02*
X134814286Y-71852381D01*
X135100000Y-71852381D02*
X135100000Y-70852381D01*
X135004762Y-70995238D01*
X134909524Y-71090476D01*
X134814286Y-71138095D01*
X158261905Y-66152381D02*
X158261905Y-65152381D01*
X158500000Y-65152381D01*
X158642858Y-65200000D01*
X158738096Y-65295238D01*
X158785715Y-65390476D01*
X158833334Y-65580952D01*
X158833334Y-65723810D01*
X158785715Y-65914286D01*
X158738096Y-66009524D01*
X158642858Y-66104762D01*
X158500000Y-66152381D01*
X158261905Y-66152381D01*
X159214286Y-65247619D02*
X159261905Y-65200000D01*
X159357143Y-65152381D01*
X159595239Y-65152381D01*
X159690477Y-65200000D01*
X159738096Y-65247619D01*
X159785715Y-65342857D01*
X159785715Y-65438095D01*
X159738096Y-65580952D01*
X159166667Y-66152381D01*
X159785715Y-66152381D01*
X137252381Y-109738095D02*
X136252381Y-109738095D01*
X136252381Y-109500000D01*
X136300000Y-109357142D01*
X136395238Y-109261904D01*
X136490476Y-109214285D01*
X136680952Y-109166666D01*
X136823810Y-109166666D01*
X137014286Y-109214285D01*
X137109524Y-109261904D01*
X137204762Y-109357142D01*
X137252381Y-109500000D01*
X137252381Y-109738095D01*
X136252381Y-108833333D02*
X136252381Y-108214285D01*
X136633333Y-108547619D01*
X136633333Y-108404761D01*
X136680952Y-108309523D01*
X136728571Y-108261904D01*
X136823810Y-108214285D01*
X137061905Y-108214285D01*
X137157143Y-108261904D01*
X137204762Y-108309523D01*
X137252381Y-108404761D01*
X137252381Y-108690476D01*
X137204762Y-108785714D01*
X137157143Y-108833333D01*
X143452381Y-104638095D02*
X142452381Y-104638095D01*
X142452381Y-104400000D01*
X142500000Y-104257142D01*
X142595238Y-104161904D01*
X142690476Y-104114285D01*
X142880952Y-104066666D01*
X143023810Y-104066666D01*
X143214286Y-104114285D01*
X143309524Y-104161904D01*
X143404762Y-104257142D01*
X143452381Y-104400000D01*
X143452381Y-104638095D01*
X142785714Y-103209523D02*
X143452381Y-103209523D01*
X142404762Y-103447619D02*
X143119048Y-103685714D01*
X143119048Y-103066666D01*
X149752381Y-108938095D02*
X148752381Y-108938095D01*
X148752381Y-108700000D01*
X148800000Y-108557142D01*
X148895238Y-108461904D01*
X148990476Y-108414285D01*
X149180952Y-108366666D01*
X149323810Y-108366666D01*
X149514286Y-108414285D01*
X149609524Y-108461904D01*
X149704762Y-108557142D01*
X149752381Y-108700000D01*
X149752381Y-108938095D01*
X148752381Y-107461904D02*
X148752381Y-107938095D01*
X149228571Y-107985714D01*
X149180952Y-107938095D01*
X149133333Y-107842857D01*
X149133333Y-107604761D01*
X149180952Y-107509523D01*
X149228571Y-107461904D01*
X149323810Y-107414285D01*
X149561905Y-107414285D01*
X149657143Y-107461904D01*
X149704762Y-107509523D01*
X149752381Y-107604761D01*
X149752381Y-107842857D01*
X149704762Y-107938095D01*
X149657143Y-107985714D01*
X156152381Y-109838095D02*
X155152381Y-109838095D01*
X155152381Y-109600000D01*
X155200000Y-109457142D01*
X155295238Y-109361904D01*
X155390476Y-109314285D01*
X155580952Y-109266666D01*
X155723810Y-109266666D01*
X155914286Y-109314285D01*
X156009524Y-109361904D01*
X156104762Y-109457142D01*
X156152381Y-109600000D01*
X156152381Y-109838095D01*
X155152381Y-108409523D02*
X155152381Y-108600000D01*
X155200000Y-108695238D01*
X155247619Y-108742857D01*
X155390476Y-108838095D01*
X155580952Y-108885714D01*
X155961905Y-108885714D01*
X156057143Y-108838095D01*
X156104762Y-108790476D01*
X156152381Y-108695238D01*
X156152381Y-108504761D01*
X156104762Y-108409523D01*
X156057143Y-108361904D01*
X155961905Y-108314285D01*
X155723810Y-108314285D01*
X155628571Y-108361904D01*
X155580952Y-108409523D01*
X155533333Y-108504761D01*
X155533333Y-108695238D01*
X155580952Y-108790476D01*
X155628571Y-108838095D01*
X155723810Y-108885714D01*
X162352381Y-110938095D02*
X161352381Y-110938095D01*
X161352381Y-110700000D01*
X161400000Y-110557142D01*
X161495238Y-110461904D01*
X161590476Y-110414285D01*
X161780952Y-110366666D01*
X161923810Y-110366666D01*
X162114286Y-110414285D01*
X162209524Y-110461904D01*
X162304762Y-110557142D01*
X162352381Y-110700000D01*
X162352381Y-110938095D01*
X161352381Y-110033333D02*
X161352381Y-109366666D01*
X162352381Y-109795238D01*
X138622381Y-115333333D02*
X139336667Y-115333333D01*
X139479524Y-115380953D01*
X139574762Y-115476191D01*
X139622381Y-115619048D01*
X139622381Y-115714286D01*
X139622381Y-114333333D02*
X139622381Y-114904762D01*
X139622381Y-114619048D02*
X138622381Y-114619048D01*
X138765238Y-114714286D01*
X138860476Y-114809524D01*
X138908095Y-114904762D01*
X102655080Y-103212293D02*
X103254131Y-103601321D01*
X103348005Y-103719064D01*
X103376008Y-103850808D01*
X103338139Y-103996553D01*
X103286269Y-104076426D01*
X102968370Y-102904733D02*
X102954368Y-102838862D01*
X102966302Y-102733053D01*
X103095978Y-102533369D01*
X103187785Y-102479431D01*
X103253657Y-102465429D01*
X103359466Y-102477363D01*
X103439339Y-102529233D01*
X103533214Y-102646975D01*
X103701232Y-103437439D01*
X104038390Y-102918261D01*
X112655080Y-109212293D02*
X113254131Y-109601321D01*
X113348005Y-109719064D01*
X113376008Y-109850808D01*
X113338139Y-109996553D01*
X113286269Y-110076426D01*
X112862561Y-108892800D02*
X113199719Y-108373622D01*
X113337665Y-108860661D01*
X113415471Y-108740850D01*
X113507278Y-108686912D01*
X113573150Y-108672911D01*
X113678960Y-108684845D01*
X113878643Y-108814521D01*
X113932581Y-108906328D01*
X113946583Y-108972200D01*
X113934649Y-109078008D01*
X113779037Y-109317629D01*
X113687230Y-109371567D01*
X113621358Y-109385568D01*
X118292381Y-75833333D02*
X119006667Y-75833333D01*
X119149524Y-75880953D01*
X119244762Y-75976191D01*
X119292381Y-76119048D01*
X119292381Y-76214286D01*
X118625714Y-74928571D02*
X119292381Y-74928571D01*
X118244762Y-75166667D02*
X118959048Y-75404762D01*
X118959048Y-74785714D01*
X122666667Y-115452381D02*
X122666667Y-116166667D01*
X122619047Y-116309524D01*
X122523809Y-116404762D01*
X122380952Y-116452381D01*
X122285714Y-116452381D01*
X123619048Y-115452381D02*
X123142857Y-115452381D01*
X123095238Y-115928571D01*
X123142857Y-115880952D01*
X123238095Y-115833333D01*
X123476191Y-115833333D01*
X123571429Y-115880952D01*
X123619048Y-115928571D01*
X123666667Y-116023810D01*
X123666667Y-116261905D01*
X123619048Y-116357143D01*
X123571429Y-116404762D01*
X123476191Y-116452381D01*
X123238095Y-116452381D01*
X123142857Y-116404762D01*
X123095238Y-116357143D01*
X133266667Y-129222381D02*
X133266667Y-129936667D01*
X133219047Y-130079524D01*
X133123809Y-130174762D01*
X132980952Y-130222381D01*
X132885714Y-130222381D01*
X134171429Y-129222381D02*
X133980952Y-129222381D01*
X133885714Y-129270000D01*
X133838095Y-129317619D01*
X133742857Y-129460476D01*
X133695238Y-129650952D01*
X133695238Y-130031905D01*
X133742857Y-130127143D01*
X133790476Y-130174762D01*
X133885714Y-130222381D01*
X134076191Y-130222381D01*
X134171429Y-130174762D01*
X134219048Y-130127143D01*
X134266667Y-130031905D01*
X134266667Y-129793810D01*
X134219048Y-129698571D01*
X134171429Y-129650952D01*
X134076191Y-129603333D01*
X133885714Y-129603333D01*
X133790476Y-129650952D01*
X133742857Y-129698571D01*
X133695238Y-129793810D01*
X122933334Y-74702381D02*
X122600000Y-74226190D01*
X122361905Y-74702381D02*
X122361905Y-73702381D01*
X122742858Y-73702381D01*
X122838096Y-73750000D01*
X122885715Y-73797619D01*
X122933334Y-73892857D01*
X122933334Y-74035714D01*
X122885715Y-74130952D01*
X122838096Y-74178571D01*
X122742858Y-74226190D01*
X122361905Y-74226190D01*
X123885715Y-74702381D02*
X123314286Y-74702381D01*
X123600000Y-74702381D02*
X123600000Y-73702381D01*
X123504762Y-73845238D01*
X123409524Y-73940476D01*
X123314286Y-73988095D01*
X122983334Y-72552381D02*
X122650000Y-72076190D01*
X122411905Y-72552381D02*
X122411905Y-71552381D01*
X122792858Y-71552381D01*
X122888096Y-71600000D01*
X122935715Y-71647619D01*
X122983334Y-71742857D01*
X122983334Y-71885714D01*
X122935715Y-71980952D01*
X122888096Y-72028571D01*
X122792858Y-72076190D01*
X122411905Y-72076190D01*
X123364286Y-71647619D02*
X123411905Y-71600000D01*
X123507143Y-71552381D01*
X123745239Y-71552381D01*
X123840477Y-71600000D01*
X123888096Y-71647619D01*
X123935715Y-71742857D01*
X123935715Y-71838095D01*
X123888096Y-71980952D01*
X123316667Y-72552381D01*
X123935715Y-72552381D01*
X170233334Y-152102381D02*
X169900000Y-151626190D01*
X169661905Y-152102381D02*
X169661905Y-151102381D01*
X170042858Y-151102381D01*
X170138096Y-151150000D01*
X170185715Y-151197619D01*
X170233334Y-151292857D01*
X170233334Y-151435714D01*
X170185715Y-151530952D01*
X170138096Y-151578571D01*
X170042858Y-151626190D01*
X169661905Y-151626190D01*
X170566667Y-151102381D02*
X171185715Y-151102381D01*
X170852381Y-151483333D01*
X170995239Y-151483333D01*
X171090477Y-151530952D01*
X171138096Y-151578571D01*
X171185715Y-151673810D01*
X171185715Y-151911905D01*
X171138096Y-152007143D01*
X171090477Y-152054762D01*
X170995239Y-152102381D01*
X170709524Y-152102381D01*
X170614286Y-152054762D01*
X170566667Y-152007143D01*
X170233334Y-146602381D02*
X169900000Y-146126190D01*
X169661905Y-146602381D02*
X169661905Y-145602381D01*
X170042858Y-145602381D01*
X170138096Y-145650000D01*
X170185715Y-145697619D01*
X170233334Y-145792857D01*
X170233334Y-145935714D01*
X170185715Y-146030952D01*
X170138096Y-146078571D01*
X170042858Y-146126190D01*
X169661905Y-146126190D01*
X171090477Y-145935714D02*
X171090477Y-146602381D01*
X170852381Y-145554762D02*
X170614286Y-146269048D01*
X171233334Y-146269048D01*
X131102381Y-117666666D02*
X130626190Y-118000000D01*
X131102381Y-118238095D02*
X130102381Y-118238095D01*
X130102381Y-117857142D01*
X130150000Y-117761904D01*
X130197619Y-117714285D01*
X130292857Y-117666666D01*
X130435714Y-117666666D01*
X130530952Y-117714285D01*
X130578571Y-117761904D01*
X130626190Y-117857142D01*
X130626190Y-118238095D01*
X130102381Y-116761904D02*
X130102381Y-117238095D01*
X130578571Y-117285714D01*
X130530952Y-117238095D01*
X130483333Y-117142857D01*
X130483333Y-116904761D01*
X130530952Y-116809523D01*
X130578571Y-116761904D01*
X130673810Y-116714285D01*
X130911905Y-116714285D01*
X131007143Y-116761904D01*
X131054762Y-116809523D01*
X131102381Y-116904761D01*
X131102381Y-117142857D01*
X131054762Y-117238095D01*
X131007143Y-117285714D01*
X137943581Y-121807266D02*
X137467390Y-122140600D01*
X137943581Y-122378695D02*
X136943581Y-122378695D01*
X136943581Y-121997742D01*
X136991200Y-121902504D01*
X137038819Y-121854885D01*
X137134057Y-121807266D01*
X137276914Y-121807266D01*
X137372152Y-121854885D01*
X137419771Y-121902504D01*
X137467390Y-121997742D01*
X137467390Y-122378695D01*
X136943581Y-120950123D02*
X136943581Y-121140600D01*
X136991200Y-121235838D01*
X137038819Y-121283457D01*
X137181676Y-121378695D01*
X137372152Y-121426314D01*
X137753105Y-121426314D01*
X137848343Y-121378695D01*
X137895962Y-121331076D01*
X137943581Y-121235838D01*
X137943581Y-121045361D01*
X137895962Y-120950123D01*
X137848343Y-120902504D01*
X137753105Y-120854885D01*
X137515010Y-120854885D01*
X137419771Y-120902504D01*
X137372152Y-120950123D01*
X137324533Y-121045361D01*
X137324533Y-121235838D01*
X137372152Y-121331076D01*
X137419771Y-121378695D01*
X137515010Y-121426314D01*
X139302381Y-112166666D02*
X138826190Y-112500000D01*
X139302381Y-112738095D02*
X138302381Y-112738095D01*
X138302381Y-112357142D01*
X138350000Y-112261904D01*
X138397619Y-112214285D01*
X138492857Y-112166666D01*
X138635714Y-112166666D01*
X138730952Y-112214285D01*
X138778571Y-112261904D01*
X138826190Y-112357142D01*
X138826190Y-112738095D01*
X138302381Y-111833333D02*
X138302381Y-111166666D01*
X139302381Y-111595238D01*
X143502381Y-108366666D02*
X143026190Y-108700000D01*
X143502381Y-108938095D02*
X142502381Y-108938095D01*
X142502381Y-108557142D01*
X142550000Y-108461904D01*
X142597619Y-108414285D01*
X142692857Y-108366666D01*
X142835714Y-108366666D01*
X142930952Y-108414285D01*
X142978571Y-108461904D01*
X143026190Y-108557142D01*
X143026190Y-108938095D01*
X142930952Y-107795238D02*
X142883333Y-107890476D01*
X142835714Y-107938095D01*
X142740476Y-107985714D01*
X142692857Y-107985714D01*
X142597619Y-107938095D01*
X142550000Y-107890476D01*
X142502381Y-107795238D01*
X142502381Y-107604761D01*
X142550000Y-107509523D01*
X142597619Y-107461904D01*
X142692857Y-107414285D01*
X142740476Y-107414285D01*
X142835714Y-107461904D01*
X142883333Y-107509523D01*
X142930952Y-107604761D01*
X142930952Y-107795238D01*
X142978571Y-107890476D01*
X143026190Y-107938095D01*
X143121429Y-107985714D01*
X143311905Y-107985714D01*
X143407143Y-107938095D01*
X143454762Y-107890476D01*
X143502381Y-107795238D01*
X143502381Y-107604761D01*
X143454762Y-107509523D01*
X143407143Y-107461904D01*
X143311905Y-107414285D01*
X143121429Y-107414285D01*
X143026190Y-107461904D01*
X142978571Y-107509523D01*
X142930952Y-107604761D01*
X153102381Y-111966666D02*
X152626190Y-112300000D01*
X153102381Y-112538095D02*
X152102381Y-112538095D01*
X152102381Y-112157142D01*
X152150000Y-112061904D01*
X152197619Y-112014285D01*
X152292857Y-111966666D01*
X152435714Y-111966666D01*
X152530952Y-112014285D01*
X152578571Y-112061904D01*
X152626190Y-112157142D01*
X152626190Y-112538095D01*
X153102381Y-111490476D02*
X153102381Y-111300000D01*
X153054762Y-111204761D01*
X153007143Y-111157142D01*
X152864286Y-111061904D01*
X152673810Y-111014285D01*
X152292857Y-111014285D01*
X152197619Y-111061904D01*
X152150000Y-111109523D01*
X152102381Y-111204761D01*
X152102381Y-111395238D01*
X152150000Y-111490476D01*
X152197619Y-111538095D01*
X152292857Y-111585714D01*
X152530952Y-111585714D01*
X152626190Y-111538095D01*
X152673810Y-111490476D01*
X152721429Y-111395238D01*
X152721429Y-111204761D01*
X152673810Y-111109523D01*
X152626190Y-111061904D01*
X152530952Y-111014285D01*
X157702381Y-115342857D02*
X157226190Y-115676191D01*
X157702381Y-115914286D02*
X156702381Y-115914286D01*
X156702381Y-115533333D01*
X156750000Y-115438095D01*
X156797619Y-115390476D01*
X156892857Y-115342857D01*
X157035714Y-115342857D01*
X157130952Y-115390476D01*
X157178571Y-115438095D01*
X157226190Y-115533333D01*
X157226190Y-115914286D01*
X157702381Y-114390476D02*
X157702381Y-114961905D01*
X157702381Y-114676191D02*
X156702381Y-114676191D01*
X156845238Y-114771429D01*
X156940476Y-114866667D01*
X156988095Y-114961905D01*
X156702381Y-113771429D02*
X156702381Y-113676190D01*
X156750000Y-113580952D01*
X156797619Y-113533333D01*
X156892857Y-113485714D01*
X157083333Y-113438095D01*
X157321429Y-113438095D01*
X157511905Y-113485714D01*
X157607143Y-113533333D01*
X157654762Y-113580952D01*
X157702381Y-113676190D01*
X157702381Y-113771429D01*
X157654762Y-113866667D01*
X157607143Y-113914286D01*
X157511905Y-113961905D01*
X157321429Y-114009524D01*
X157083333Y-114009524D01*
X156892857Y-113961905D01*
X156797619Y-113914286D01*
X156750000Y-113866667D01*
X156702381Y-113771429D01*
X165902381Y-113442857D02*
X165426190Y-113776191D01*
X165902381Y-114014286D02*
X164902381Y-114014286D01*
X164902381Y-113633333D01*
X164950000Y-113538095D01*
X164997619Y-113490476D01*
X165092857Y-113442857D01*
X165235714Y-113442857D01*
X165330952Y-113490476D01*
X165378571Y-113538095D01*
X165426190Y-113633333D01*
X165426190Y-114014286D01*
X165902381Y-112490476D02*
X165902381Y-113061905D01*
X165902381Y-112776191D02*
X164902381Y-112776191D01*
X165045238Y-112871429D01*
X165140476Y-112966667D01*
X165188095Y-113061905D01*
X165902381Y-111538095D02*
X165902381Y-112109524D01*
X165902381Y-111823810D02*
X164902381Y-111823810D01*
X165045238Y-111919048D01*
X165140476Y-112014286D01*
X165188095Y-112109524D01*
X150138095Y-95772381D02*
X150138095Y-96581905D01*
X150185714Y-96677143D01*
X150233333Y-96724762D01*
X150328571Y-96772381D01*
X150519048Y-96772381D01*
X150614286Y-96724762D01*
X150661905Y-96677143D01*
X150709524Y-96581905D01*
X150709524Y-95772381D01*
X151090476Y-95772381D02*
X151709524Y-95772381D01*
X151376190Y-96153333D01*
X151519048Y-96153333D01*
X151614286Y-96200952D01*
X151661905Y-96248571D01*
X151709524Y-96343810D01*
X151709524Y-96581905D01*
X151661905Y-96677143D01*
X151614286Y-96724762D01*
X151519048Y-96772381D01*
X151233333Y-96772381D01*
X151138095Y-96724762D01*
X151090476Y-96677143D01*
X169511905Y-144859524D02*
X170159524Y-144859524D01*
X170235714Y-144821429D01*
X170273810Y-144783333D01*
X170311905Y-144707143D01*
X170311905Y-144554762D01*
X170273810Y-144478571D01*
X170235714Y-144440476D01*
X170159524Y-144402381D01*
X169511905Y-144402381D01*
X170311905Y-143602381D02*
X170311905Y-144059524D01*
X170311905Y-143830953D02*
X169511905Y-143830953D01*
X169626190Y-143907143D01*
X169702381Y-143983334D01*
X169740476Y-144059524D01*
X164614267Y-86022381D02*
X164614267Y-86736667D01*
X164566647Y-86879524D01*
X164471409Y-86974762D01*
X164328552Y-87022381D01*
X164233314Y-87022381D01*
X165233314Y-86450952D02*
X165138076Y-86403333D01*
X165090457Y-86355714D01*
X165042838Y-86260476D01*
X165042838Y-86212857D01*
X165090457Y-86117619D01*
X165138076Y-86070000D01*
X165233314Y-86022381D01*
X165423791Y-86022381D01*
X165519029Y-86070000D01*
X165566648Y-86117619D01*
X165614267Y-86212857D01*
X165614267Y-86260476D01*
X165566648Y-86355714D01*
X165519029Y-86403333D01*
X165423791Y-86450952D01*
X165233314Y-86450952D01*
X165138076Y-86498571D01*
X165090457Y-86546190D01*
X165042838Y-86641429D01*
X165042838Y-86831905D01*
X165090457Y-86927143D01*
X165138076Y-86974762D01*
X165233314Y-87022381D01*
X165423791Y-87022381D01*
X165519029Y-86974762D01*
X165566648Y-86927143D01*
X165614267Y-86831905D01*
X165614267Y-86641429D01*
X165566648Y-86546190D01*
X165519029Y-86498571D01*
X165423791Y-86450952D01*
X170075267Y-110914381D02*
X170075267Y-111628667D01*
X170027647Y-111771524D01*
X169932409Y-111866762D01*
X169789552Y-111914381D01*
X169694314Y-111914381D01*
X170456219Y-110914381D02*
X171122886Y-110914381D01*
X170694314Y-111914381D01*
X109100012Y-156914771D02*
X108766678Y-156914771D01*
X108766678Y-157438581D02*
X108766678Y-156438581D01*
X109242869Y-156438581D01*
X109623821Y-157438581D02*
X109623821Y-156438581D01*
X110100011Y-157438581D02*
X110100011Y-156438581D01*
X110338106Y-156438581D01*
X110480964Y-156486200D01*
X110576202Y-156581438D01*
X110623821Y-156676676D01*
X110671440Y-156867152D01*
X110671440Y-157010010D01*
X110623821Y-157200486D01*
X110576202Y-157295724D01*
X110480964Y-157390962D01*
X110338106Y-157438581D01*
X110100011Y-157438581D01*
X111623821Y-157438581D02*
X111052392Y-157438581D01*
X111338106Y-157438581D02*
X111338106Y-156438581D01*
X111242868Y-156581438D01*
X111147630Y-156676676D01*
X111052392Y-156724295D01*
X204527812Y-97250171D02*
X204194478Y-97250171D01*
X204194478Y-97773981D02*
X204194478Y-96773981D01*
X204670669Y-96773981D01*
X205051621Y-97773981D02*
X205051621Y-96773981D01*
X205527811Y-97773981D02*
X205527811Y-96773981D01*
X205765906Y-96773981D01*
X205908764Y-96821600D01*
X206004002Y-96916838D01*
X206051621Y-97012076D01*
X206099240Y-97202552D01*
X206099240Y-97345410D01*
X206051621Y-97535886D01*
X206004002Y-97631124D01*
X205908764Y-97726362D01*
X205765906Y-97773981D01*
X205527811Y-97773981D01*
X206480192Y-96869219D02*
X206527811Y-96821600D01*
X206623049Y-96773981D01*
X206861145Y-96773981D01*
X206956383Y-96821600D01*
X207004002Y-96869219D01*
X207051621Y-96964457D01*
X207051621Y-97059695D01*
X207004002Y-97202552D01*
X206432573Y-97773981D01*
X207051621Y-97773981D01*
X138731652Y-52988131D02*
X138398318Y-52988131D01*
X138398318Y-53511941D02*
X138398318Y-52511941D01*
X138874509Y-52511941D01*
X139255461Y-53511941D02*
X139255461Y-52511941D01*
X139731651Y-53511941D02*
X139731651Y-52511941D01*
X139969746Y-52511941D01*
X140112604Y-52559560D01*
X140207842Y-52654798D01*
X140255461Y-52750036D01*
X140303080Y-52940512D01*
X140303080Y-53083370D01*
X140255461Y-53273846D01*
X140207842Y-53369084D01*
X140112604Y-53464322D01*
X139969746Y-53511941D01*
X139731651Y-53511941D01*
X140636413Y-52511941D02*
X141255461Y-52511941D01*
X140922127Y-52892893D01*
X141064985Y-52892893D01*
X141160223Y-52940512D01*
X141207842Y-52988131D01*
X141255461Y-53083370D01*
X141255461Y-53321465D01*
X141207842Y-53416703D01*
X141160223Y-53464322D01*
X141064985Y-53511941D01*
X140779270Y-53511941D01*
X140684032Y-53464322D01*
X140636413Y-53416703D01*
%LPC*%
D10*
G36*
X144608311Y-124962221D02*
X144148692Y-124502602D01*
X145350773Y-123300521D01*
X145810392Y-123760140D01*
X144608311Y-124962221D01*
X144608311Y-124962221D01*
G37*
G36*
X144961864Y-125315774D02*
X144502245Y-124856155D01*
X145704326Y-123654074D01*
X146163945Y-124113693D01*
X144961864Y-125315774D01*
X144961864Y-125315774D01*
G37*
G36*
X145315418Y-125669328D02*
X144855799Y-125209709D01*
X146057880Y-124007628D01*
X146517499Y-124467247D01*
X145315418Y-125669328D01*
X145315418Y-125669328D01*
G37*
G36*
X145668971Y-126022881D02*
X145209352Y-125563262D01*
X146411433Y-124361181D01*
X146871052Y-124820800D01*
X145668971Y-126022881D01*
X145668971Y-126022881D01*
G37*
G36*
X146022524Y-126376434D02*
X145562905Y-125916815D01*
X146764986Y-124714734D01*
X147224605Y-125174353D01*
X146022524Y-126376434D01*
X146022524Y-126376434D01*
G37*
G36*
X146376078Y-126729988D02*
X145916459Y-126270369D01*
X147118540Y-125068288D01*
X147578159Y-125527907D01*
X146376078Y-126729988D01*
X146376078Y-126729988D01*
G37*
G36*
X146729631Y-127083541D02*
X146270012Y-126623922D01*
X147472093Y-125421841D01*
X147931712Y-125881460D01*
X146729631Y-127083541D01*
X146729631Y-127083541D01*
G37*
G36*
X147083185Y-127437095D02*
X146623566Y-126977476D01*
X147825647Y-125775395D01*
X148285266Y-126235014D01*
X147083185Y-127437095D01*
X147083185Y-127437095D01*
G37*
G36*
X147436738Y-127790648D02*
X146977119Y-127331029D01*
X148179200Y-126128948D01*
X148638819Y-126588567D01*
X147436738Y-127790648D01*
X147436738Y-127790648D01*
G37*
G36*
X147790291Y-128144201D02*
X147330672Y-127684582D01*
X148532753Y-126482501D01*
X148992372Y-126942120D01*
X147790291Y-128144201D01*
X147790291Y-128144201D01*
G37*
G36*
X148143845Y-128497755D02*
X147684226Y-128038136D01*
X148886307Y-126836055D01*
X149345926Y-127295674D01*
X148143845Y-128497755D01*
X148143845Y-128497755D01*
G37*
G36*
X148497398Y-128851308D02*
X148037779Y-128391689D01*
X149239860Y-127189608D01*
X149699479Y-127649227D01*
X148497398Y-128851308D01*
X148497398Y-128851308D01*
G37*
G36*
X151962221Y-128391689D02*
X151502602Y-128851308D01*
X150300521Y-127649227D01*
X150760140Y-127189608D01*
X151962221Y-128391689D01*
X151962221Y-128391689D01*
G37*
G36*
X152315774Y-128038136D02*
X151856155Y-128497755D01*
X150654074Y-127295674D01*
X151113693Y-126836055D01*
X152315774Y-128038136D01*
X152315774Y-128038136D01*
G37*
G36*
X152669328Y-127684582D02*
X152209709Y-128144201D01*
X151007628Y-126942120D01*
X151467247Y-126482501D01*
X152669328Y-127684582D01*
X152669328Y-127684582D01*
G37*
G36*
X153022881Y-127331029D02*
X152563262Y-127790648D01*
X151361181Y-126588567D01*
X151820800Y-126128948D01*
X153022881Y-127331029D01*
X153022881Y-127331029D01*
G37*
G36*
X153376434Y-126977476D02*
X152916815Y-127437095D01*
X151714734Y-126235014D01*
X152174353Y-125775395D01*
X153376434Y-126977476D01*
X153376434Y-126977476D01*
G37*
G36*
X153729988Y-126623922D02*
X153270369Y-127083541D01*
X152068288Y-125881460D01*
X152527907Y-125421841D01*
X153729988Y-126623922D01*
X153729988Y-126623922D01*
G37*
G36*
X154083541Y-126270369D02*
X153623922Y-126729988D01*
X152421841Y-125527907D01*
X152881460Y-125068288D01*
X154083541Y-126270369D01*
X154083541Y-126270369D01*
G37*
G36*
X154437095Y-125916815D02*
X153977476Y-126376434D01*
X152775395Y-125174353D01*
X153235014Y-124714734D01*
X154437095Y-125916815D01*
X154437095Y-125916815D01*
G37*
G36*
X154790648Y-125563262D02*
X154331029Y-126022881D01*
X153128948Y-124820800D01*
X153588567Y-124361181D01*
X154790648Y-125563262D01*
X154790648Y-125563262D01*
G37*
G36*
X155144201Y-125209709D02*
X154684582Y-125669328D01*
X153482501Y-124467247D01*
X153942120Y-124007628D01*
X155144201Y-125209709D01*
X155144201Y-125209709D01*
G37*
G36*
X155497755Y-124856155D02*
X155038136Y-125315774D01*
X153836055Y-124113693D01*
X154295674Y-123654074D01*
X155497755Y-124856155D01*
X155497755Y-124856155D01*
G37*
G36*
X155851308Y-124502602D02*
X155391689Y-124962221D01*
X154189608Y-123760140D01*
X154649227Y-123300521D01*
X155851308Y-124502602D01*
X155851308Y-124502602D01*
G37*
G36*
X154649227Y-122699479D02*
X154189608Y-122239860D01*
X155391689Y-121037779D01*
X155851308Y-121497398D01*
X154649227Y-122699479D01*
X154649227Y-122699479D01*
G37*
G36*
X154295674Y-122345926D02*
X153836055Y-121886307D01*
X155038136Y-120684226D01*
X155497755Y-121143845D01*
X154295674Y-122345926D01*
X154295674Y-122345926D01*
G37*
G36*
X153942120Y-121992372D02*
X153482501Y-121532753D01*
X154684582Y-120330672D01*
X155144201Y-120790291D01*
X153942120Y-121992372D01*
X153942120Y-121992372D01*
G37*
G36*
X153588567Y-121638819D02*
X153128948Y-121179200D01*
X154331029Y-119977119D01*
X154790648Y-120436738D01*
X153588567Y-121638819D01*
X153588567Y-121638819D01*
G37*
G36*
X153235014Y-121285266D02*
X152775395Y-120825647D01*
X153977476Y-119623566D01*
X154437095Y-120083185D01*
X153235014Y-121285266D01*
X153235014Y-121285266D01*
G37*
G36*
X152881460Y-120931712D02*
X152421841Y-120472093D01*
X153623922Y-119270012D01*
X154083541Y-119729631D01*
X152881460Y-120931712D01*
X152881460Y-120931712D01*
G37*
G36*
X152527907Y-120578159D02*
X152068288Y-120118540D01*
X153270369Y-118916459D01*
X153729988Y-119376078D01*
X152527907Y-120578159D01*
X152527907Y-120578159D01*
G37*
G36*
X152174353Y-120224605D02*
X151714734Y-119764986D01*
X152916815Y-118562905D01*
X153376434Y-119022524D01*
X152174353Y-120224605D01*
X152174353Y-120224605D01*
G37*
G36*
X151820800Y-119871052D02*
X151361181Y-119411433D01*
X152563262Y-118209352D01*
X153022881Y-118668971D01*
X151820800Y-119871052D01*
X151820800Y-119871052D01*
G37*
G36*
X151467247Y-119517499D02*
X151007628Y-119057880D01*
X152209709Y-117855799D01*
X152669328Y-118315418D01*
X151467247Y-119517499D01*
X151467247Y-119517499D01*
G37*
G36*
X151113693Y-119163945D02*
X150654074Y-118704326D01*
X151856155Y-117502245D01*
X152315774Y-117961864D01*
X151113693Y-119163945D01*
X151113693Y-119163945D01*
G37*
G36*
X150760140Y-118810392D02*
X150300521Y-118350773D01*
X151502602Y-117148692D01*
X151962221Y-117608311D01*
X150760140Y-118810392D01*
X150760140Y-118810392D01*
G37*
G36*
X149699479Y-118350773D02*
X149239860Y-118810392D01*
X148037779Y-117608311D01*
X148497398Y-117148692D01*
X149699479Y-118350773D01*
X149699479Y-118350773D01*
G37*
G36*
X149345926Y-118704326D02*
X148886307Y-119163945D01*
X147684226Y-117961864D01*
X148143845Y-117502245D01*
X149345926Y-118704326D01*
X149345926Y-118704326D01*
G37*
G36*
X148992372Y-119057880D02*
X148532753Y-119517499D01*
X147330672Y-118315418D01*
X147790291Y-117855799D01*
X148992372Y-119057880D01*
X148992372Y-119057880D01*
G37*
G36*
X148638819Y-119411433D02*
X148179200Y-119871052D01*
X146977119Y-118668971D01*
X147436738Y-118209352D01*
X148638819Y-119411433D01*
X148638819Y-119411433D01*
G37*
G36*
X148285266Y-119764986D02*
X147825647Y-120224605D01*
X146623566Y-119022524D01*
X147083185Y-118562905D01*
X148285266Y-119764986D01*
X148285266Y-119764986D01*
G37*
G36*
X147931712Y-120118540D02*
X147472093Y-120578159D01*
X146270012Y-119376078D01*
X146729631Y-118916459D01*
X147931712Y-120118540D01*
X147931712Y-120118540D01*
G37*
G36*
X147578159Y-120472093D02*
X147118540Y-120931712D01*
X145916459Y-119729631D01*
X146376078Y-119270012D01*
X147578159Y-120472093D01*
X147578159Y-120472093D01*
G37*
G36*
X147224605Y-120825647D02*
X146764986Y-121285266D01*
X145562905Y-120083185D01*
X146022524Y-119623566D01*
X147224605Y-120825647D01*
X147224605Y-120825647D01*
G37*
G36*
X146871052Y-121179200D02*
X146411433Y-121638819D01*
X145209352Y-120436738D01*
X145668971Y-119977119D01*
X146871052Y-121179200D01*
X146871052Y-121179200D01*
G37*
G36*
X146517499Y-121532753D02*
X146057880Y-121992372D01*
X144855799Y-120790291D01*
X145315418Y-120330672D01*
X146517499Y-121532753D01*
X146517499Y-121532753D01*
G37*
G36*
X146163945Y-121886307D02*
X145704326Y-122345926D01*
X144502245Y-121143845D01*
X144961864Y-120684226D01*
X146163945Y-121886307D01*
X146163945Y-121886307D01*
G37*
G36*
X145810392Y-122239860D02*
X145350773Y-122699479D01*
X144148692Y-121497398D01*
X144608311Y-121037779D01*
X145810392Y-122239860D01*
X145810392Y-122239860D01*
G37*
D16*
X167700000Y-140100000D03*
X169900000Y-140100000D03*
D17*
X164400000Y-141600000D03*
X164400000Y-145200000D03*
D10*
G36*
X140259734Y-132050765D02*
X142040635Y-130937934D01*
X143153466Y-132718835D01*
X141372565Y-133831666D01*
X140259734Y-132050765D01*
X140259734Y-132050765D01*
G37*
D18*
X143052595Y-134538842D02*
X143052595Y-134538842D01*
X139552558Y-133730795D02*
X139552558Y-133730795D01*
X140898553Y-135884837D02*
X140898553Y-135884837D01*
X137398516Y-135076790D02*
X137398516Y-135076790D01*
X138744511Y-137230832D02*
X138744511Y-137230832D01*
X135244474Y-136422785D02*
X135244474Y-136422785D01*
X136590468Y-138576827D02*
X136590468Y-138576827D01*
X133090431Y-137768780D02*
X133090431Y-137768780D01*
X134436426Y-139922822D02*
X134436426Y-139922822D01*
X130936389Y-139114775D02*
X130936389Y-139114775D01*
X132282384Y-141268817D02*
X132282384Y-141268817D01*
X128782347Y-140460770D02*
X128782347Y-140460770D01*
X130128342Y-142614812D02*
X130128342Y-142614812D01*
X126628305Y-141806765D02*
X126628305Y-141806765D01*
X127974300Y-143960807D02*
X127974300Y-143960807D01*
D10*
G36*
X151635439Y-134874755D02*
X152907245Y-132839439D01*
X154942561Y-134111245D01*
X153670755Y-136146561D01*
X151635439Y-134874755D01*
X151635439Y-134874755D01*
G37*
D19*
X191196750Y-158180391D03*
D20*
X141300000Y-122800000D03*
X141300000Y-120800000D03*
D21*
X144700000Y-70820000D03*
X144700000Y-93680000D03*
X147240000Y-93680000D03*
D17*
X174800000Y-144100000D03*
X174800000Y-147700000D03*
D20*
X139100000Y-129000000D03*
X139100000Y-127000000D03*
X157400000Y-117600000D03*
X157400000Y-119600000D03*
X137100000Y-129000000D03*
X137100000Y-127000000D03*
D22*
X156607000Y-124002800D03*
X158607000Y-124002800D03*
D20*
X159300000Y-117600000D03*
X159300000Y-119600000D03*
D22*
X156632400Y-125603000D03*
X158632400Y-125603000D03*
D20*
X160000000Y-98500000D03*
X160000000Y-96500000D03*
X157500000Y-98500000D03*
X157500000Y-96500000D03*
D22*
X146950000Y-95750000D03*
X144950000Y-95750000D03*
D23*
X137000000Y-69600000D03*
X137000000Y-67900000D03*
X137000000Y-66200000D03*
X132200000Y-66200000D03*
X132200000Y-67900000D03*
X132200000Y-69600000D03*
X156600000Y-67500000D03*
X156600000Y-69200000D03*
X156600000Y-70900000D03*
X161400000Y-70900000D03*
X161400000Y-69200000D03*
X161400000Y-67500000D03*
D24*
X135200000Y-110650000D03*
X135200000Y-107350000D03*
X141400000Y-105550000D03*
X141400000Y-102250000D03*
X147700000Y-109850000D03*
X147700000Y-106550000D03*
X154100000Y-110750000D03*
X154100000Y-107450000D03*
X160300000Y-111850000D03*
X160300000Y-108550000D03*
D25*
X141500000Y-115000000D03*
D26*
X144040000Y-115000000D03*
X146580000Y-115000000D03*
X149120000Y-115000000D03*
X151660000Y-115000000D03*
X154200000Y-115000000D03*
X156740000Y-115000000D03*
D10*
G36*
X105558733Y-105952475D02*
X103797525Y-104808733D01*
X104941267Y-103047525D01*
X106702475Y-104191267D01*
X105558733Y-105952475D01*
X105558733Y-105952475D01*
G37*
D18*
X107380223Y-105883383D02*
X107380223Y-105883383D01*
X109510446Y-107266766D02*
X109510446Y-107266766D01*
X111640670Y-108650149D02*
X111640670Y-108650149D01*
D10*
G36*
X115558733Y-111952475D02*
X113797525Y-110808733D01*
X114941267Y-109047525D01*
X116702475Y-110191267D01*
X115558733Y-111952475D01*
X115558733Y-111952475D01*
G37*
D18*
X117380223Y-111883383D02*
X117380223Y-111883383D01*
X119510446Y-113266766D02*
X119510446Y-113266766D01*
X121640670Y-114650149D02*
X121640670Y-114650149D01*
D27*
X116950000Y-74200000D03*
X116950000Y-74850000D03*
X116950000Y-75500000D03*
X116950000Y-76150000D03*
X116950000Y-76800000D03*
D28*
X116950000Y-73000000D03*
X116950000Y-78000000D03*
D29*
X114250000Y-72000000D03*
X114250000Y-79000000D03*
D25*
X126000000Y-119000000D03*
D26*
X126000000Y-116460000D03*
D25*
X133600000Y-127440000D03*
D26*
X133600000Y-124900000D03*
D30*
X122150000Y-75900000D03*
X124050000Y-75900000D03*
X122200000Y-73750000D03*
X124100000Y-73750000D03*
X171350000Y-150000000D03*
X169450000Y-150000000D03*
X169450000Y-147800000D03*
X171350000Y-147800000D03*
D31*
X129000000Y-116550000D03*
X129000000Y-118450000D03*
X139141200Y-122590600D03*
X139141200Y-120690600D03*
X137200000Y-111050000D03*
X137200000Y-112950000D03*
X141400000Y-107250000D03*
X141400000Y-109150000D03*
X151000000Y-110850000D03*
X151000000Y-112750000D03*
X157200000Y-110750000D03*
X157200000Y-112650000D03*
X163800000Y-111850000D03*
X163800000Y-113750000D03*
D32*
X147200000Y-98545000D03*
X147200000Y-99815000D03*
X147200000Y-101085000D03*
X147200000Y-102355000D03*
X154600000Y-102355000D03*
X154600000Y-101085000D03*
X154600000Y-99815000D03*
X154600000Y-98545000D03*
D33*
X169950000Y-143300000D03*
X169300000Y-145200000D03*
X170600000Y-145200000D03*
X169950000Y-145200000D03*
X170600000Y-143300000D03*
X169300000Y-143300000D03*
D25*
X163677600Y-88900000D03*
D26*
X166217600Y-88900000D03*
X163677600Y-91440000D03*
X166217600Y-91440000D03*
D25*
X169138600Y-113792000D03*
D26*
X171678600Y-113792000D03*
X169138600Y-116332000D03*
X171678600Y-116332000D03*
X169138600Y-118872000D03*
X171678600Y-118872000D03*
D34*
X106771440Y-156286200D03*
X202199240Y-96621600D03*
X136403080Y-52359560D03*
M02*
