G04 #@! TF.FileFunction,Soldermask,Bot*
%FSLAX46Y46*%
G04 Gerber Fmt 4.6, Leading zero omitted, Abs format (unit mm)*
G04 Created by KiCad (PCBNEW 4.0.7-e2-6376~58~ubuntu16.04.1) date Sun Jan 14 11:27:02 2018*
%MOMM*%
%LPD*%
G01*
G04 APERTURE LIST*
%ADD10C,0.100000*%
%ADD11C,2.100000*%
%ADD12C,2.400000*%
%ADD13C,1.924000*%
%ADD14R,2.100000X2.100000*%
%ADD15O,2.100000X2.100000*%
%ADD16O,1.350000X1.650000*%
%ADD17O,1.950000X1.400000*%
G04 APERTURE END LIST*
D10*
G36*
X140259734Y-132050765D02*
X142040635Y-130937934D01*
X143153466Y-132718835D01*
X141372565Y-133831666D01*
X140259734Y-132050765D01*
X140259734Y-132050765D01*
G37*
D11*
X143052595Y-134538842D02*
X143052595Y-134538842D01*
X139552558Y-133730795D02*
X139552558Y-133730795D01*
X140898553Y-135884837D02*
X140898553Y-135884837D01*
X137398516Y-135076790D02*
X137398516Y-135076790D01*
X138744511Y-137230832D02*
X138744511Y-137230832D01*
X135244474Y-136422785D02*
X135244474Y-136422785D01*
X136590468Y-138576827D02*
X136590468Y-138576827D01*
X133090431Y-137768780D02*
X133090431Y-137768780D01*
X134436426Y-139922822D02*
X134436426Y-139922822D01*
X130936389Y-139114775D02*
X130936389Y-139114775D01*
X132282384Y-141268817D02*
X132282384Y-141268817D01*
X128782347Y-140460770D02*
X128782347Y-140460770D01*
X130128342Y-142614812D02*
X130128342Y-142614812D01*
X126628305Y-141806765D02*
X126628305Y-141806765D01*
X127974300Y-143960807D02*
X127974300Y-143960807D01*
D10*
G36*
X151635439Y-134874755D02*
X152907245Y-132839439D01*
X154942561Y-134111245D01*
X153670755Y-136146561D01*
X151635439Y-134874755D01*
X151635439Y-134874755D01*
G37*
D12*
X191196750Y-158180391D03*
D13*
X144700000Y-70820000D03*
X144700000Y-93680000D03*
X147240000Y-93680000D03*
D14*
X141500000Y-115000000D03*
D15*
X144040000Y-115000000D03*
X146580000Y-115000000D03*
X149120000Y-115000000D03*
X151660000Y-115000000D03*
X154200000Y-115000000D03*
X156740000Y-115000000D03*
D10*
G36*
X105558733Y-105952475D02*
X103797525Y-104808733D01*
X104941267Y-103047525D01*
X106702475Y-104191267D01*
X105558733Y-105952475D01*
X105558733Y-105952475D01*
G37*
D11*
X107380223Y-105883383D02*
X107380223Y-105883383D01*
X109510446Y-107266766D02*
X109510446Y-107266766D01*
X111640670Y-108650149D02*
X111640670Y-108650149D01*
D10*
G36*
X115558733Y-111952475D02*
X113797525Y-110808733D01*
X114941267Y-109047525D01*
X116702475Y-110191267D01*
X115558733Y-111952475D01*
X115558733Y-111952475D01*
G37*
D11*
X117380223Y-111883383D02*
X117380223Y-111883383D01*
X119510446Y-113266766D02*
X119510446Y-113266766D01*
X121640670Y-114650149D02*
X121640670Y-114650149D01*
D16*
X116950000Y-73000000D03*
X116950000Y-78000000D03*
D17*
X114250000Y-72000000D03*
X114250000Y-79000000D03*
D14*
X126000000Y-119000000D03*
D15*
X126000000Y-116460000D03*
D14*
X133600000Y-127440000D03*
D15*
X133600000Y-124900000D03*
D14*
X163677600Y-88900000D03*
D15*
X166217600Y-88900000D03*
X163677600Y-91440000D03*
X166217600Y-91440000D03*
D14*
X169138600Y-113792000D03*
D15*
X171678600Y-113792000D03*
X169138600Y-116332000D03*
X171678600Y-116332000D03*
X169138600Y-118872000D03*
X171678600Y-118872000D03*
M02*
