M48
;DRILL file {KiCad 4.0.7-e2-6376~58~ubuntu16.04.1} date Sun Jan 14 11:26:52 2018
;FORMAT={-:-/ absolute / inch / decimal}
FMAT,2
INCH,TZ
T1C0.016
T2C0.020
T3C0.022
T4C0.024
T5C0.039
T6C0.040
%
G90
G05
M72
T1
X5.1496Y-4.6969
X5.1811Y-4.6969
X5.2047Y-3.6654
X5.205Y-3.623
X5.2323Y-3.6929
X5.327Y-4.117
X5.3386Y-4.9488
X5.411Y-4.033
X5.433Y-4.707
X5.439Y-4.961
X5.5Y-4.706
X5.561Y-4.707
X5.561Y-5.051
X5.564Y-4.911
X5.591Y-4.962
X5.591Y-5.107
X5.622Y-5.107
X5.623Y-4.961
X5.634Y-4.791
X5.6378Y-4.689
X5.656Y-5.12
X5.657Y-4.963
X5.687Y-4.295
X5.7087Y-4.4439
X5.727Y-3.879
X5.731Y-5.158
X5.733Y-5.067
X5.734Y-4.612
X5.759Y-5.04
X5.766Y-4.617
X5.7717Y-4.8504
X5.79Y-5.16
X5.8Y-4.88
X5.8189Y-4.4685
X5.82Y-5.167
X5.831Y-4.597
X5.842Y-5.194
X5.858Y-4.789
X5.866Y-5.238
X5.877Y-3.999
X5.8819Y-4.4646
X5.882Y-4.763
X5.888Y-5.276
X5.899Y-4.165
X5.902Y-5.18
X5.904Y-4.905
X5.929Y-4.875
X5.9298Y-4.6141
X5.9331Y-4.8228
X5.936Y-4.908
X5.94Y-5.214
X5.942Y-5.147
X5.968Y-5.173
X5.972Y-4.907
X5.978Y-4.806
X5.979Y-4.198
X6.01Y-4.801
X6.011Y-4.898
X6.0137Y-4.6211
X6.014Y-3.931
X6.0197Y-4.4685
X6.021Y-5.058
X6.068Y-4.293
X6.097Y-5.028
X6.097Y-5.058
X6.097Y-5.088
X6.122Y-5.1693
X6.123Y-4.99
X6.146Y-4.793
X6.148Y-5.239
X6.1614Y-4.7008
X6.166Y-4.032
X6.167Y-3.979
X6.173Y-4.807
X6.183Y-5.182
X6.191Y-5.38
X6.2087Y-4.7687
X6.216Y-4.999
X6.222Y-4.184
X6.2263Y-3.933
X6.242Y-3.723
X6.243Y-4.16
X6.245Y-4.828
X6.249Y-4.259
X6.263Y-4.135
X6.267Y-4.798
X6.272Y-4.707
X6.296Y-4.088
X6.311Y-4.644
X6.3346Y-4.626
X6.3612Y-4.6063
X6.38Y-4.724
X6.402Y-4.7
X6.425Y-4.678
X6.447Y-4.656
X6.469Y-4.634
X6.492Y-4.607
X6.563Y-5.6102
X6.5981Y-5.7956
X6.7815Y-5.5945
X6.8071Y-5.9646
T4
X5.6969Y-2.7882
X5.6969Y-3.6882
X5.7969Y-3.6882
T5
X4.1437Y-4.1142
X4.2276Y-4.1686
X4.3114Y-4.2231
X4.3953Y-4.2776
X4.5374Y-4.3504
X4.6213Y-4.4049
X4.7051Y-4.4593
X4.789Y-4.5138
X4.9606Y-4.585
X4.9606Y-4.685
X4.9854Y-5.5829
X5.0384Y-5.6677
X5.0702Y-5.53
X5.1232Y-5.6148
X5.155Y-5.477
X5.208Y-5.5618
X5.2398Y-5.424
X5.2598Y-4.9173
X5.2598Y-5.0173
X5.2928Y-5.5088
X5.3246Y-5.371
X5.3776Y-5.4558
X5.4094Y-5.318
X5.4624Y-5.4028
X5.4942Y-5.265
X5.5472Y-5.3498
X5.5709Y-4.5276
X5.579Y-5.212
X5.632Y-5.2968
X5.6709Y-4.5276
X5.7709Y-4.5276
X5.8709Y-4.5276
X5.9709Y-4.5276
X6.0709Y-4.5276
X6.1709Y-4.5276
X6.444Y-3.5
X6.444Y-3.6
X6.544Y-3.5
X6.544Y-3.6
X6.659Y-4.48
X6.659Y-4.58
X6.659Y-4.68
X6.759Y-4.48
X6.759Y-4.58
X6.759Y-4.68
T6
X6.035Y-5.295
X7.5274Y-6.2276
T2
X4.4852Y-2.8346G85X4.5108Y-2.8346
G05
X4.4852Y-3.1102G85X4.5108Y-3.1102
G05
T3
X4.6043Y-2.8681G85X4.6043Y-2.8799
G05
X4.6043Y-3.065G85X4.6043Y-3.0768
G05
T0
M30
